%TF.GenerationSoftware,KiCad,Pcbnew,8.99.0-3415-g545c771fd6*%
%TF.CreationDate,2025-05-12T12:54:29+02:00*%
%TF.ProjectId,logic-solder,6c6f6769-632d-4736-9f6c-6465722e6b69,3*%
%TF.SameCoordinates,Original*%
%TF.FileFunction,Legend,Bot*%
%TF.FilePolarity,Positive*%
%FSLAX46Y46*%
G04 Gerber Fmt 4.6, Leading zero omitted, Abs format (unit mm)*
G04 Created by KiCad (PCBNEW 8.99.0-3415-g545c771fd6) date 2025-05-12 12:54:29*
%MOMM*%
%LPD*%
G01*
G04 APERTURE LIST*
%ADD10C,0.100000*%
%ADD11C,0.150000*%
%ADD12C,0.120000*%
%ADD13C,0.350000*%
G04 APERTURE END LIST*
D10*
X234000000Y-84000000D02*
X234000000Y-94000000D01*
X208000000Y-50000000D02*
X208000000Y-57000000D01*
X233000000Y-53000000D02*
G75*
G02*
X223000000Y-53000000I-5000000J0D01*
G01*
X228000000Y-87000000D02*
X228000000Y-94000000D01*
X231000000Y-45000000D02*
X231000000Y-48000000D01*
X186000000Y-30000000D02*
X186000000Y-37000000D01*
X188000000Y-27000000D02*
X188000000Y-30000000D01*
X213000000Y-50000000D02*
X208000000Y-50000000D01*
X205000000Y-75000000D02*
X218000000Y-75000000D01*
X159000000Y-59950000D02*
X159000000Y-45000000D01*
X187000000Y-52000000D02*
X187000000Y-49000000D01*
X171000000Y-35000000D02*
X171000000Y-38000000D01*
X169000000Y-86000000D02*
X169000000Y-89000000D01*
X244000000Y-64000000D02*
X241000000Y-64000000D01*
X166999998Y-61000000D02*
X167000000Y-68000000D01*
X198000000Y-93000000D02*
X205000000Y-93000000D01*
X198000000Y-90000000D02*
X198000000Y-93000000D01*
X241000000Y-29000000D02*
X241000000Y-30000000D01*
X162000000Y-76000000D02*
X163000000Y-76000000D01*
X165000000Y-60000000D02*
X165000000Y-62450000D01*
X241000000Y-84000000D02*
X234000000Y-84000000D01*
X228000000Y-58000000D02*
X228000000Y-61000000D01*
X249000000Y-32500000D02*
X249000000Y-39500000D01*
X192000000Y-43000000D02*
G75*
G02*
X190000000Y-43000000I-1000000J0D01*
G01*
X190000000Y-43000000D02*
G75*
G02*
X192000000Y-43000000I1000000J0D01*
G01*
X226000000Y-95000000D02*
X226000000Y-102000000D01*
X199000000Y-89000000D02*
G75*
G02*
X197000000Y-89000000I-1000000J0D01*
G01*
X197000000Y-89000000D02*
G75*
G02*
X199000000Y-89000000I1000000J0D01*
G01*
X189999998Y-85000000D02*
X190000000Y-92000000D01*
X220000000Y-94000000D02*
G75*
G02*
X210000000Y-94000000I-5000000J0D01*
G01*
X225000000Y-45000000D02*
X225000000Y-42000000D01*
X208000000Y-30000000D02*
X213000000Y-38000000D01*
X230000000Y-79025000D02*
G75*
G02*
X220000000Y-79025000I-5000000J0D01*
G01*
X205000000Y-93000000D02*
X205000000Y-81000000D01*
X174000000Y-104000000D02*
X174000000Y-77000000D01*
X218000000Y-75000000D02*
X218000000Y-86000000D01*
X200000000Y-58500000D02*
X200000000Y-65500000D01*
X231000000Y-45000000D02*
X231000000Y-29000000D01*
X241000000Y-64000000D02*
X241000000Y-66500000D01*
X228000000Y-71025000D02*
X228000000Y-73475000D01*
X241000000Y-82500000D02*
X241000000Y-84000000D01*
X166000000Y-101000000D02*
X166000000Y-104000000D01*
X236000000Y-69500000D02*
X241000000Y-77500000D01*
X196000000Y-37000000D02*
G75*
G02*
X186000000Y-37000000I-5000000J0D01*
G01*
X173000000Y-43000000D02*
G75*
G02*
X163000000Y-43000000I-5000000J0D01*
G01*
X241000000Y-66500000D02*
X241000000Y-69500000D01*
X215000000Y-99000000D02*
X215000000Y-102000000D01*
X220000000Y-72025000D02*
X220000000Y-79025000D01*
X167000000Y-60000000D02*
G75*
G02*
X157000000Y-60000000I-5000000J2000000D01*
G01*
X173000000Y-36000000D02*
G75*
G02*
X163000000Y-36000000I-5000000J3000000D01*
G01*
X190000000Y-92000000D02*
G75*
G02*
X180000000Y-92000000I-5000000J0D01*
G01*
X247000000Y-30000000D02*
X247000000Y-27000000D01*
X225000000Y-45000000D02*
X225000000Y-48000000D01*
X230000000Y-72025000D02*
G75*
G02*
X220000000Y-72025000I-5000000J3000000D01*
G01*
X219999998Y-87000000D02*
X220000000Y-94000000D01*
X249000000Y-32500000D02*
X239000000Y-32500000D01*
X225000000Y-84025000D02*
X225000000Y-87025000D01*
X161000000Y-89000000D02*
X161000000Y-96000000D01*
X189000000Y-55000000D02*
X189000000Y-62000000D01*
X171000000Y-89000000D02*
X171000000Y-96000000D01*
X232999998Y-46000000D02*
X233000000Y-53000000D01*
X196000000Y-30000000D02*
X196000000Y-37000000D01*
X210000000Y-87000000D02*
X210000000Y-94000000D01*
X162000000Y-73000000D02*
X162000000Y-76000000D01*
X167000000Y-61000000D02*
G75*
G02*
X157000000Y-61000000I-5000000J3000000D01*
G01*
X213000000Y-38000000D02*
X218000000Y-30000000D01*
X242000000Y-78500000D02*
G75*
G02*
X240000000Y-78500000I-1000000J0D01*
G01*
X240000000Y-78500000D02*
G75*
G02*
X242000000Y-78500000I1000000J0D01*
G01*
X215000000Y-102000000D02*
X215000000Y-110000000D01*
X187000000Y-49000000D02*
X191000000Y-49000000D01*
X239000000Y-32500000D02*
X239000000Y-39500000D01*
X220000000Y-87000000D02*
G75*
G02*
X210000000Y-87000000I-5000000J3000000D01*
G01*
X165000000Y-51000000D02*
X165000000Y-60000000D01*
X222000000Y-70975000D02*
X222000000Y-73475000D01*
X203000000Y-80000000D02*
X193000000Y-80000000D01*
X182000000Y-77000000D02*
X182000000Y-84000000D01*
X212000000Y-86000000D02*
X212000000Y-89000000D01*
X159000000Y-59950000D02*
X159000000Y-62450000D01*
X228000000Y-61000000D02*
X228000000Y-71000000D01*
X157000000Y-61000000D02*
X157000000Y-68000000D01*
X241000000Y-79500000D02*
X241000000Y-82500000D01*
X205000000Y-70500000D02*
X205000000Y-73500000D01*
X189000000Y-55000000D02*
X179000000Y-55000000D01*
X213000000Y-40000000D02*
X213000000Y-43000000D01*
X229999998Y-72025000D02*
X230000000Y-79025000D01*
X225000000Y-87000000D02*
X228000000Y-87000000D01*
X249000000Y-39500000D02*
G75*
G02*
X239000000Y-39500000I-5000000J0D01*
G01*
X185000000Y-97000000D02*
X185000000Y-100000000D01*
X172999998Y-36000000D02*
X173000000Y-43000000D01*
X184000000Y-72000000D02*
X198000000Y-72000000D01*
X213000000Y-50000000D02*
X222000000Y-50000000D01*
X188000000Y-84000000D02*
X188000000Y-87000000D01*
X191000000Y-49000000D02*
X202000000Y-49000000D01*
X210000000Y-65500000D02*
G75*
G02*
X200000000Y-65500000I-5000000J0D01*
G01*
X168000000Y-48000000D02*
X168000000Y-51000000D01*
X181000000Y-52000000D02*
X181000000Y-55000000D01*
X181000000Y-51000000D02*
X168000000Y-51000000D01*
X180000000Y-85000000D02*
X180000000Y-92000000D01*
X171000000Y-89000000D02*
X161000000Y-89000000D01*
X182000000Y-84000000D02*
X182000000Y-87000000D01*
X218000000Y-30000000D02*
X208000000Y-30000000D01*
X163000000Y-76000000D02*
X163000000Y-87500000D01*
X210000000Y-58500000D02*
X200000000Y-58500000D01*
X190000000Y-85000000D02*
G75*
G02*
X180000000Y-85000000I-5000000J3000000D01*
G01*
X165000000Y-35000000D02*
X165000000Y-27000000D01*
X163000000Y-36000000D02*
X163000000Y-43000000D01*
X210000000Y-58500000D02*
X210000000Y-65500000D01*
X231000000Y-29000000D02*
X241000000Y-29000000D01*
X187000000Y-52000000D02*
X187000000Y-55000000D01*
X165000000Y-35000000D02*
X165000000Y-38000000D01*
X198000000Y-77000000D02*
X198000000Y-80000000D01*
X236000000Y-102000000D02*
G75*
G02*
X226000000Y-102000000I-5000000J0D01*
G01*
X218000000Y-86000000D02*
X218000000Y-89000000D01*
X222000000Y-50000000D02*
X222000000Y-71000000D01*
X202000000Y-49000000D02*
X202000000Y-57000000D01*
X189000000Y-62000000D02*
G75*
G02*
X179000000Y-62000000I-5000000J0D01*
G01*
X191000000Y-44000000D02*
X191000000Y-47000000D01*
X166000000Y-104000000D02*
X174000000Y-104000000D01*
X244000000Y-48000000D02*
X244000000Y-64000000D01*
X208000000Y-55500000D02*
X208000000Y-58500000D01*
X235999998Y-95000000D02*
X236000000Y-102000000D01*
X231000000Y-107000000D02*
X231000000Y-110000000D01*
X246000000Y-69500000D02*
X236000000Y-69500000D01*
X179000000Y-55000000D02*
X179000000Y-62000000D01*
X241000000Y-29500000D02*
X241000000Y-32500000D01*
X169000000Y-86000000D02*
X169000000Y-51000000D01*
X213000000Y-27000000D02*
X213000000Y-30000000D01*
X171000000Y-35000000D02*
X171000000Y-27000000D01*
X225000000Y-42000000D02*
X213000000Y-42000000D01*
X223000000Y-46000000D02*
X223000000Y-53000000D01*
X233000000Y-46000000D02*
G75*
G02*
X223000000Y-46000000I-5000000J3000000D01*
G01*
X214000000Y-39000000D02*
G75*
G02*
X212000000Y-39000000I-1000000J0D01*
G01*
X212000000Y-39000000D02*
G75*
G02*
X214000000Y-39000000I1000000J0D01*
G01*
X247000000Y-29500000D02*
X247000000Y-32500000D01*
X185000000Y-100000000D02*
X185000000Y-110000000D01*
X168000000Y-51000000D02*
X165000000Y-51000000D01*
X198000000Y-88000000D02*
X203000000Y-80000000D01*
X236000000Y-95000000D02*
G75*
G02*
X226000000Y-95000000I-5000000J3000000D01*
G01*
X181000000Y-52000000D02*
X181000000Y-51000000D01*
X230000000Y-71025000D02*
G75*
G02*
X220000000Y-71025000I-5000000J2000000D01*
G01*
X234000000Y-94000000D02*
X234000000Y-97000000D01*
X205000000Y-73500000D02*
X205000000Y-75000000D01*
X236000000Y-29000000D02*
X236000000Y-27000000D01*
X194000000Y-27000000D02*
X194000000Y-30000000D01*
X163000000Y-86000000D02*
X163000000Y-89000000D01*
X244000000Y-44500000D02*
X244000000Y-47500000D01*
X228000000Y-94000000D02*
X228000000Y-97000000D01*
X184000000Y-69000000D02*
X184000000Y-72000000D01*
X198000000Y-72000000D02*
X198000000Y-77000000D01*
X191000000Y-49000000D02*
X191000000Y-47000000D01*
X167000000Y-68000000D02*
G75*
G02*
X157000000Y-68000000I-5000000J0D01*
G01*
X174000000Y-77000000D02*
X182000000Y-77000000D01*
X185000000Y-68000000D02*
G75*
G02*
X183000000Y-68000000I-1000000J0D01*
G01*
X183000000Y-68000000D02*
G75*
G02*
X185000000Y-68000000I1000000J0D01*
G01*
X205000000Y-81000000D02*
X212000000Y-81000000D01*
X159000000Y-45000000D02*
X153000000Y-45000000D01*
X212000000Y-81000000D02*
X212000000Y-86000000D01*
X241000000Y-77500000D02*
X246000000Y-69500000D01*
X202000000Y-55500000D02*
X202000000Y-58500000D01*
X213000000Y-43000000D02*
X213000000Y-50000000D01*
X196000000Y-30000000D02*
X186000000Y-30000000D01*
X193000000Y-80000000D02*
X198000000Y-88000000D01*
X171000000Y-96000000D02*
G75*
G02*
X161000000Y-96000000I-5000000J0D01*
G01*
D11*
X205785714Y-50431009D02*
X205642857Y-50478628D01*
X205642857Y-50478628D02*
X205595238Y-50526247D01*
X205595238Y-50526247D02*
X205547619Y-50621485D01*
X205547619Y-50621485D02*
X205547619Y-50764342D01*
X205547619Y-50764342D02*
X205595238Y-50859580D01*
X205595238Y-50859580D02*
X205642857Y-50907200D01*
X205642857Y-50907200D02*
X205738095Y-50954819D01*
X205738095Y-50954819D02*
X206119047Y-50954819D01*
X206119047Y-50954819D02*
X206119047Y-49954819D01*
X206119047Y-49954819D02*
X205785714Y-49954819D01*
X205785714Y-49954819D02*
X205690476Y-50002438D01*
X205690476Y-50002438D02*
X205642857Y-50050057D01*
X205642857Y-50050057D02*
X205595238Y-50145295D01*
X205595238Y-50145295D02*
X205595238Y-50240533D01*
X205595238Y-50240533D02*
X205642857Y-50335771D01*
X205642857Y-50335771D02*
X205690476Y-50383390D01*
X205690476Y-50383390D02*
X205785714Y-50431009D01*
X205785714Y-50431009D02*
X206119047Y-50431009D01*
X205261904Y-49954819D02*
X204690476Y-49954819D01*
X204976190Y-50954819D02*
X204976190Y-49954819D01*
X203833333Y-50954819D02*
X204404761Y-50954819D01*
X204119047Y-50954819D02*
X204119047Y-49954819D01*
X204119047Y-49954819D02*
X204214285Y-50097676D01*
X204214285Y-50097676D02*
X204309523Y-50192914D01*
X204309523Y-50192914D02*
X204404761Y-50240533D01*
X180535714Y-50431010D02*
X180392857Y-50478629D01*
X180392857Y-50478629D02*
X180345238Y-50526248D01*
X180345238Y-50526248D02*
X180297619Y-50621486D01*
X180297619Y-50621486D02*
X180297619Y-50764343D01*
X180297619Y-50764343D02*
X180345238Y-50859581D01*
X180345238Y-50859581D02*
X180392857Y-50907201D01*
X180392857Y-50907201D02*
X180488095Y-50954820D01*
X180488095Y-50954820D02*
X180869047Y-50954820D01*
X180869047Y-50954820D02*
X180869047Y-49954820D01*
X180869047Y-49954820D02*
X180535714Y-49954820D01*
X180535714Y-49954820D02*
X180440476Y-50002439D01*
X180440476Y-50002439D02*
X180392857Y-50050058D01*
X180392857Y-50050058D02*
X180345238Y-50145296D01*
X180345238Y-50145296D02*
X180345238Y-50240534D01*
X180345238Y-50240534D02*
X180392857Y-50335772D01*
X180392857Y-50335772D02*
X180440476Y-50383391D01*
X180440476Y-50383391D02*
X180535714Y-50431010D01*
X180535714Y-50431010D02*
X180869047Y-50431010D01*
X180011904Y-49954820D02*
X179440476Y-49954820D01*
X179726190Y-50954820D02*
X179726190Y-49954820D01*
X179154761Y-50050058D02*
X179107142Y-50002439D01*
X179107142Y-50002439D02*
X179011904Y-49954820D01*
X179011904Y-49954820D02*
X178773809Y-49954820D01*
X178773809Y-49954820D02*
X178678571Y-50002439D01*
X178678571Y-50002439D02*
X178630952Y-50050058D01*
X178630952Y-50050058D02*
X178583333Y-50145296D01*
X178583333Y-50145296D02*
X178583333Y-50240534D01*
X178583333Y-50240534D02*
X178630952Y-50383391D01*
X178630952Y-50383391D02*
X179202380Y-50954820D01*
X179202380Y-50954820D02*
X178583333Y-50954820D01*
D12*
%TO.C,BT1*%
X194220000Y-35370000D02*
X195660000Y-31420000D01*
X194220000Y-36000000D02*
X194220000Y-35370000D01*
X194220000Y-44460000D02*
X194220000Y-42000000D01*
X196300000Y-46540000D02*
X194220000Y-44460000D01*
X199800000Y-46540000D02*
X196300000Y-46540000D01*
X213700000Y-46540000D02*
X210200000Y-46540000D01*
X213700000Y-46540000D02*
X215780000Y-44460000D01*
X215780000Y-35370000D02*
X214340000Y-31420000D01*
X215780000Y-36000000D02*
X215780000Y-35370000D01*
X215780000Y-44460000D02*
X215780000Y-42000000D01*
X195660000Y-31420000D02*
G75*
G02*
X198996646Y-30433470I2030000J-730001D01*
G01*
X211000000Y-30450000D02*
G75*
G02*
X214325243Y-31411831I1310000J-1700000D01*
G01*
%TO.C,BT2*%
X168970000Y-35370001D02*
X170410000Y-31420001D01*
X168970000Y-36000001D02*
X168970000Y-35370001D01*
X168970000Y-44460001D02*
X168970000Y-42000001D01*
X171050000Y-46540001D02*
X168970000Y-44460001D01*
X174550000Y-46540001D02*
X171050000Y-46540001D01*
X188450000Y-46540001D02*
X184950000Y-46540001D01*
X188450000Y-46540001D02*
X190530000Y-44460001D01*
X190530000Y-35370001D02*
X189090000Y-31420001D01*
X190530000Y-36000001D02*
X190530000Y-35370001D01*
X190530000Y-44460001D02*
X190530000Y-42000001D01*
X170410000Y-31420001D02*
G75*
G02*
X173746646Y-30433471I2030000J-730001D01*
G01*
X185750000Y-30450001D02*
G75*
G02*
X189075243Y-31411832I1310000J-1700000D01*
G01*
%TD*%
D13*
X229620000Y-66500000D03*
X222000000Y-66500000D03*
X199000000Y-105620000D03*
X199000000Y-98000000D03*
X192460000Y-102000000D03*
X195000000Y-102000000D03*
X232000000Y-60730000D03*
X230730000Y-62000000D03*
X232000000Y-63270000D03*
X243000000Y-67460000D03*
X241730000Y-68730000D03*
X243000000Y-70000000D03*
X229000000Y-73730000D03*
X227730000Y-75000000D03*
X229000000Y-76270000D03*
X243000000Y-77730000D03*
X241730000Y-79000000D03*
X243000000Y-80270000D03*
X243810000Y-54000000D03*
X236190000Y-54000000D03*
X227810000Y-56000000D03*
X220190000Y-56000000D03*
X227810000Y-62000000D03*
X220190000Y-62000000D03*
X177810000Y-79000000D03*
X170190000Y-79000000D03*
X197810000Y-78000000D03*
X190190000Y-78000000D03*
X177810000Y-87000000D03*
X170190000Y-87000000D03*
X223810000Y-75000000D03*
X216190000Y-75000000D03*
X236000000Y-78810000D03*
X236000000Y-71190000D03*
X223810000Y-81000000D03*
X216190000Y-81000000D03*
X217190000Y-71000000D03*
X224810000Y-71000000D03*
X237380000Y-91000000D03*
X245000000Y-91000000D03*
X178190000Y-97000000D03*
X185810000Y-97000000D03*
X224810000Y-94000000D03*
X217190000Y-94000000D03*
X177810000Y-102000000D03*
X170190000Y-102000000D03*
X205750000Y-62750000D03*
X212250000Y-62750000D03*
X205750000Y-67250000D03*
X212250000Y-67250000D03*
X157750000Y-76750000D03*
X164250000Y-76750000D03*
X157750000Y-81250000D03*
X164250000Y-81250000D03*
X157750000Y-84750000D03*
X164250000Y-84750000D03*
X157750000Y-89250000D03*
X164250000Y-89250000D03*
X205750000Y-91750000D03*
X212250000Y-91750000D03*
X205750000Y-96250000D03*
X212250000Y-96250000D03*
X157750000Y-99750000D03*
X164250000Y-99750000D03*
X157750000Y-104250000D03*
X164250000Y-104250000D03*
X205750000Y-99750000D03*
X212250000Y-99750000D03*
X205750000Y-104250000D03*
X212250000Y-104250000D03*
X195000000Y-83000000D03*
X192460000Y-83000000D03*
X232000000Y-57270000D03*
X230730000Y-56000000D03*
X232000000Y-54730000D03*
X240000000Y-60000000D03*
X242540000Y-60000000D03*
X182000000Y-58270000D03*
X180730000Y-57000000D03*
X182000000Y-55730000D03*
X195000000Y-61000000D03*
X192460000Y-61000000D03*
X182000000Y-80270000D03*
X180730000Y-79000000D03*
X182000000Y-77730000D03*
X190190000Y-56000000D03*
X197810000Y-56000000D03*
X243000000Y-97000000D03*
X240460000Y-97000000D03*
X229000000Y-103270000D03*
X227730000Y-102000000D03*
X229000000Y-100730000D03*
X164250000Y-67250000D03*
X157750000Y-67250000D03*
X164250000Y-62750000D03*
X157750000Y-62750000D03*
X247000000Y-56190000D03*
X247000000Y-63810000D03*
X229000000Y-82270000D03*
X227730000Y-81000000D03*
X229000000Y-79730000D03*
X182000000Y-88270000D03*
X180730000Y-87000000D03*
X182000000Y-85730000D03*
X170190000Y-65000000D03*
X177810000Y-65000000D03*
X229000000Y-95270000D03*
X227730000Y-94000000D03*
X229000000Y-92730000D03*
X182000000Y-103270000D03*
X180730000Y-102000000D03*
X182000000Y-100730000D03*
X212250000Y-59250000D03*
X205750000Y-59250000D03*
X212250000Y-54750000D03*
X205750000Y-54750000D03*
X164250000Y-59250000D03*
X157750000Y-59250000D03*
X164250000Y-54750000D03*
X157750000Y-54750000D03*
X182000000Y-66270000D03*
X180730000Y-65000000D03*
X182000000Y-63730000D03*
X170190000Y-57000000D03*
X177810000Y-57000000D03*
X217190000Y-102000000D03*
X224810000Y-102000000D03*
X247000000Y-102620000D03*
X247000000Y-95000000D03*
M02*
