%TF.GenerationSoftware,KiCad,Pcbnew,8.99.0-3415-g545c771fd6*%
%TF.CreationDate,2025-05-14T09:58:38+02:00*%
%TF.ProjectId,logic-solder,6c6f6769-632d-4736-9f6c-6465722e6b69,3*%
%TF.SameCoordinates,Original*%
%TF.FileFunction,Drillmap*%
%TF.FilePolarity,Positive*%
%FSLAX45Y45*%
G04 Gerber Fmt 4.5, Leading zero omitted, Abs format (unit mm)*
G04 Created by KiCad (PCBNEW 8.99.0-3415-g545c771fd6) date 2025-05-14 09:58:38*
%MOMM*%
%LPD*%
G01*
G04 APERTURE LIST*
%ADD10C,0.050000*%
%ADD11C,0.200000*%
%ADD12C,0.100000*%
%ADD13C,0.110000*%
G04 APERTURE END LIST*
D10*
X15300000Y-10800000D02*
X15300000Y-2900000D01*
X25100000Y-10800000D02*
G75*
G02*
X24900000Y-11000000I-200000J0D01*
G01*
X24900000Y-11000000D02*
X15500000Y-11000000D01*
X25100000Y-2900000D02*
X25100000Y-10800000D01*
X15500000Y-11000000D02*
G75*
G02*
X15300000Y-10800000I0J200000D01*
G01*
X15500000Y-2700000D02*
X24900000Y-2700000D01*
X15300000Y-2900000D02*
G75*
G02*
X15500000Y-2700000I200000J0D01*
G01*
X24900000Y-2700000D02*
G75*
G02*
X25100000Y-2900000I0J-200000D01*
G01*
D11*
D12*
X21510000Y-5460000D02*
X21540000Y-5490000D01*
X21540000Y-5460000D02*
X21510000Y-5490000D01*
X23485000Y-6685000D02*
X23515000Y-6715000D01*
X23515000Y-6685000D02*
X23485000Y-6715000D01*
X16901500Y-3900000D02*
G75*
G02*
X16851500Y-3900000I-25000J0D01*
G01*
X16851500Y-3900000D02*
G75*
G02*
X16901500Y-3900000I25000J0D01*
G01*
X19098500Y-3900000D02*
G75*
G02*
X19048500Y-3900000I-25000J0D01*
G01*
X19048500Y-3900000D02*
G75*
G02*
X19098500Y-3900000I25000J0D01*
G01*
X19426500Y-3900000D02*
G75*
G02*
X19376500Y-3900000I-25000J0D01*
G01*
X19376500Y-3900000D02*
G75*
G02*
X19426500Y-3900000I25000J0D01*
G01*
X21623500Y-3900000D02*
G75*
G02*
X21573500Y-3900000I-25000J0D01*
G01*
X21573500Y-3900000D02*
G75*
G02*
X21623500Y-3900000I25000J0D01*
G01*
X18073000Y-5662500D02*
X18073000Y-5737500D01*
X18035500Y-5700000D02*
X18110500Y-5700000D01*
X18073000Y-6462500D02*
X18073000Y-6537500D01*
X18035500Y-6500000D02*
X18110500Y-6500000D01*
X18073000Y-7862500D02*
X18073000Y-7937500D01*
X18035500Y-7900000D02*
X18110500Y-7900000D01*
X18073000Y-8662500D02*
X18073000Y-8737500D01*
X18035500Y-8700000D02*
X18110500Y-8700000D01*
X18073000Y-10162500D02*
X18073000Y-10237500D01*
X18035500Y-10200000D02*
X18110500Y-10200000D01*
X18200000Y-5535500D02*
X18200000Y-5610500D01*
X18162500Y-5573000D02*
X18237500Y-5573000D01*
X18200000Y-5789500D02*
X18200000Y-5864500D01*
X18162500Y-5827000D02*
X18237500Y-5827000D01*
X18200000Y-6335500D02*
X18200000Y-6410500D01*
X18162500Y-6373000D02*
X18237500Y-6373000D01*
X18200000Y-6589500D02*
X18200000Y-6664500D01*
X18162500Y-6627000D02*
X18237500Y-6627000D01*
X18200000Y-7735500D02*
X18200000Y-7810500D01*
X18162500Y-7773000D02*
X18237500Y-7773000D01*
X18200000Y-7989500D02*
X18200000Y-8064500D01*
X18162500Y-8027000D02*
X18237500Y-8027000D01*
X18200000Y-8535500D02*
X18200000Y-8610500D01*
X18162500Y-8573000D02*
X18237500Y-8573000D01*
X18200000Y-8789500D02*
X18200000Y-8864500D01*
X18162500Y-8827000D02*
X18237500Y-8827000D01*
X18200000Y-10035500D02*
X18200000Y-10110500D01*
X18162500Y-10073000D02*
X18237500Y-10073000D01*
X18200000Y-10289500D02*
X18200000Y-10364500D01*
X18162500Y-10327000D02*
X18237500Y-10327000D01*
X22773000Y-7462500D02*
X22773000Y-7537500D01*
X22735500Y-7500000D02*
X22810500Y-7500000D01*
X22773000Y-8062500D02*
X22773000Y-8137500D01*
X22735500Y-8100000D02*
X22810500Y-8100000D01*
X22773000Y-9362500D02*
X22773000Y-9437500D01*
X22735500Y-9400000D02*
X22810500Y-9400000D01*
X22773000Y-10162500D02*
X22773000Y-10237500D01*
X22735500Y-10200000D02*
X22810500Y-10200000D01*
X22900000Y-7335500D02*
X22900000Y-7410500D01*
X22862500Y-7373000D02*
X22937500Y-7373000D01*
X22900000Y-7589500D02*
X22900000Y-7664500D01*
X22862500Y-7627000D02*
X22937500Y-7627000D01*
X22900000Y-7935500D02*
X22900000Y-8010500D01*
X22862500Y-7973000D02*
X22937500Y-7973000D01*
X22900000Y-8189500D02*
X22900000Y-8264500D01*
X22862500Y-8227000D02*
X22937500Y-8227000D01*
X22900000Y-9235500D02*
X22900000Y-9310500D01*
X22862500Y-9273000D02*
X22937500Y-9273000D01*
X22900000Y-9489500D02*
X22900000Y-9564500D01*
X22862500Y-9527000D02*
X22937500Y-9527000D01*
X22900000Y-10035500D02*
X22900000Y-10110500D01*
X22862500Y-10073000D02*
X22937500Y-10073000D01*
X22900000Y-10289500D02*
X22900000Y-10364500D01*
X22862500Y-10327000D02*
X22937500Y-10327000D01*
X23073000Y-5562500D02*
X23073000Y-5637500D01*
X23035500Y-5600000D02*
X23110500Y-5600000D01*
X23073000Y-6162500D02*
X23073000Y-6237500D01*
X23035500Y-6200000D02*
X23110500Y-6200000D01*
X23200000Y-5435500D02*
X23200000Y-5510500D01*
X23162500Y-5473000D02*
X23237500Y-5473000D01*
X23200000Y-5689500D02*
X23200000Y-5764500D01*
X23162500Y-5727000D02*
X23237500Y-5727000D01*
X23200000Y-6035500D02*
X23200000Y-6110500D01*
X23162500Y-6073000D02*
X23237500Y-6073000D01*
X23200000Y-6289500D02*
X23200000Y-6364500D01*
X23162500Y-6327000D02*
X23237500Y-6327000D01*
X24173000Y-6835500D02*
X24173000Y-6910500D01*
X24135500Y-6873000D02*
X24210500Y-6873000D01*
X24173000Y-7862500D02*
X24173000Y-7937500D01*
X24135500Y-7900000D02*
X24210500Y-7900000D01*
X24300000Y-6708500D02*
X24300000Y-6783500D01*
X24262500Y-6746000D02*
X24337500Y-6746000D01*
X24300000Y-6962500D02*
X24300000Y-7037500D01*
X24262500Y-7000000D02*
X24337500Y-7000000D01*
X24300000Y-7735500D02*
X24300000Y-7810500D01*
X24262500Y-7773000D02*
X24337500Y-7773000D01*
X24300000Y-7989500D02*
X24300000Y-8064500D01*
X24262500Y-8027000D02*
X24337500Y-8027000D01*
X17047285Y-5728284D02*
X17047285Y-5671715D01*
X16990716Y-5671715D01*
X16990716Y-5728284D01*
X17047285Y-5728284D01*
X17047285Y-6528284D02*
X17047285Y-6471715D01*
X16990716Y-6471715D01*
X16990716Y-6528284D01*
X17047285Y-6528284D01*
X17047285Y-7928284D02*
X17047285Y-7871715D01*
X16990716Y-7871715D01*
X16990716Y-7928284D01*
X17047285Y-7928284D01*
X17047285Y-8728285D02*
X17047285Y-8671716D01*
X16990716Y-8671716D01*
X16990716Y-8728285D01*
X17047285Y-8728285D01*
X17047285Y-10228285D02*
X17047285Y-10171716D01*
X16990716Y-10171716D01*
X16990716Y-10228285D01*
X17047285Y-10228285D01*
X17809285Y-5728284D02*
X17809285Y-5671715D01*
X17752716Y-5671715D01*
X17752716Y-5728284D01*
X17809285Y-5728284D01*
X17809285Y-6528284D02*
X17809285Y-6471715D01*
X17752716Y-6471715D01*
X17752716Y-6528284D01*
X17809285Y-6528284D01*
X17809285Y-7928284D02*
X17809285Y-7871715D01*
X17752716Y-7871715D01*
X17752716Y-7928284D01*
X17809285Y-7928284D01*
X17809285Y-8728285D02*
X17809285Y-8671716D01*
X17752716Y-8671716D01*
X17752716Y-8728285D01*
X17809285Y-8728285D01*
X17809285Y-10228285D02*
X17809285Y-10171716D01*
X17752716Y-10171716D01*
X17752716Y-10228285D01*
X17809285Y-10228285D01*
X17847285Y-9728285D02*
X17847285Y-9671716D01*
X17790716Y-9671716D01*
X17790716Y-9728285D01*
X17847285Y-9728285D01*
X18609285Y-9728285D02*
X18609285Y-9671716D01*
X18552716Y-9671716D01*
X18552716Y-9728285D01*
X18609285Y-9728285D01*
X19047285Y-5628284D02*
X19047285Y-5571716D01*
X18990716Y-5571716D01*
X18990716Y-5628284D01*
X19047285Y-5628284D01*
X19047285Y-7828284D02*
X19047285Y-7771715D01*
X18990716Y-7771715D01*
X18990716Y-7828284D01*
X19047285Y-7828284D01*
X19809285Y-5628284D02*
X19809285Y-5571716D01*
X19752716Y-5571716D01*
X19752716Y-5628284D01*
X19809285Y-5628284D01*
X19809285Y-7828284D02*
X19809285Y-7771715D01*
X19752716Y-7771715D01*
X19752716Y-7828284D01*
X19809285Y-7828284D01*
X19928285Y-9828285D02*
X19928285Y-9771716D01*
X19871716Y-9771716D01*
X19871716Y-9828285D01*
X19928285Y-9828285D01*
X19928285Y-10590285D02*
X19928285Y-10533716D01*
X19871716Y-10533716D01*
X19871716Y-10590285D01*
X19928285Y-10590285D01*
X21647285Y-7528284D02*
X21647285Y-7471715D01*
X21590716Y-7471715D01*
X21590716Y-7528284D01*
X21647285Y-7528284D01*
X21647285Y-8128284D02*
X21647285Y-8071715D01*
X21590716Y-8071715D01*
X21590716Y-8128284D01*
X21647285Y-8128284D01*
X21747285Y-7128284D02*
X21747285Y-7071715D01*
X21690716Y-7071715D01*
X21690716Y-7128284D01*
X21747285Y-7128284D01*
X21747285Y-9428285D02*
X21747285Y-9371716D01*
X21690716Y-9371716D01*
X21690716Y-9428285D01*
X21747285Y-9428285D01*
X21747285Y-10228285D02*
X21747285Y-10171716D01*
X21690716Y-10171716D01*
X21690716Y-10228285D01*
X21747285Y-10228285D01*
X22047285Y-5628284D02*
X22047285Y-5571716D01*
X21990716Y-5571716D01*
X21990716Y-5628284D01*
X22047285Y-5628284D01*
X22047285Y-6228284D02*
X22047285Y-6171715D01*
X21990716Y-6171715D01*
X21990716Y-6228284D01*
X22047285Y-6228284D01*
X22228285Y-6678284D02*
X22228285Y-6621715D01*
X22171716Y-6621715D01*
X22171716Y-6678284D01*
X22228285Y-6678284D01*
X22409284Y-7528284D02*
X22409284Y-7471715D01*
X22352716Y-7471715D01*
X22352716Y-7528284D01*
X22409284Y-7528284D01*
X22409284Y-8128284D02*
X22409284Y-8071715D01*
X22352716Y-8071715D01*
X22352716Y-8128284D01*
X22409284Y-8128284D01*
X22509284Y-7128284D02*
X22509284Y-7071715D01*
X22452715Y-7071715D01*
X22452715Y-7128284D01*
X22509284Y-7128284D01*
X22509284Y-9428285D02*
X22509284Y-9371716D01*
X22452715Y-9371716D01*
X22452715Y-9428285D01*
X22509284Y-9428285D01*
X22509284Y-10228285D02*
X22509284Y-10171716D01*
X22452715Y-10171716D01*
X22452715Y-10228285D01*
X22509284Y-10228285D01*
X22809284Y-5628284D02*
X22809284Y-5571716D01*
X22752715Y-5571716D01*
X22752715Y-5628284D01*
X22809284Y-5628284D01*
X22809284Y-6228284D02*
X22809284Y-6171715D01*
X22752715Y-6171715D01*
X22752715Y-6228284D01*
X22809284Y-6228284D01*
X22990284Y-6678284D02*
X22990284Y-6621715D01*
X22933715Y-6621715D01*
X22933715Y-6678284D01*
X22990284Y-6678284D01*
X23628284Y-7147284D02*
X23628284Y-7090715D01*
X23571715Y-7090715D01*
X23571715Y-7147284D01*
X23628284Y-7147284D01*
X23628284Y-7909284D02*
X23628284Y-7852715D01*
X23571715Y-7852715D01*
X23571715Y-7909284D01*
X23628284Y-7909284D01*
X23647284Y-5428285D02*
X23647284Y-5371716D01*
X23590715Y-5371716D01*
X23590715Y-5428285D01*
X23647284Y-5428285D01*
X23766284Y-9128285D02*
X23766284Y-9071716D01*
X23709715Y-9071716D01*
X23709715Y-9128285D01*
X23766284Y-9128285D01*
X24409284Y-5428285D02*
X24409284Y-5371716D01*
X24352715Y-5371716D01*
X24352715Y-5428285D01*
X24409284Y-5428285D01*
X24528284Y-9128285D02*
X24528284Y-9071716D01*
X24471715Y-9071716D01*
X24471715Y-9128285D01*
X24528284Y-9128285D01*
X24728284Y-5647284D02*
X24728284Y-5590716D01*
X24671715Y-5590716D01*
X24671715Y-5647284D01*
X24728284Y-5647284D01*
X24728284Y-6409284D02*
X24728284Y-6352715D01*
X24671715Y-6352715D01*
X24671715Y-6409284D01*
X24728284Y-6409284D01*
X24728284Y-9528285D02*
X24728284Y-9471716D01*
X24671715Y-9471716D01*
X24671715Y-9528285D01*
X24728284Y-9528285D01*
X24728284Y-10290285D02*
X24728284Y-10233716D01*
X24671715Y-10233716D01*
X24671715Y-10290285D01*
X24728284Y-10290285D01*
X19246000Y-6145000D02*
X19291000Y-6100000D01*
X19246000Y-6055000D01*
X19201000Y-6100000D01*
X19246000Y-6145000D01*
X19246000Y-8345000D02*
X19291000Y-8300000D01*
X19246000Y-8255000D01*
X19201000Y-8300000D01*
X19246000Y-8345000D01*
X19246000Y-10245000D02*
X19291000Y-10200000D01*
X19246000Y-10155000D01*
X19201000Y-10200000D01*
X19246000Y-10245000D01*
X19500000Y-6145000D02*
X19545000Y-6100000D01*
X19500000Y-6055000D01*
X19455000Y-6100000D01*
X19500000Y-6145000D01*
X19500000Y-8345000D02*
X19545000Y-8300000D01*
X19500000Y-8255000D01*
X19455000Y-8300000D01*
X19500000Y-8345000D01*
X19500000Y-10245000D02*
X19545000Y-10200000D01*
X19500000Y-10155000D01*
X19455000Y-10200000D01*
X19500000Y-10245000D01*
X24000000Y-6045000D02*
X24045000Y-6000000D01*
X24000000Y-5955000D01*
X23955000Y-6000000D01*
X24000000Y-6045000D01*
X24046000Y-9745000D02*
X24091000Y-9700000D01*
X24046000Y-9655000D01*
X24001000Y-9700000D01*
X24046000Y-9745000D01*
X24254000Y-6045000D02*
X24299000Y-6000000D01*
X24254000Y-5955000D01*
X24209000Y-6000000D01*
X24254000Y-6045000D01*
X24300000Y-9745000D02*
X24345000Y-9700000D01*
X24300000Y-9655000D01*
X24255000Y-9700000D01*
X24300000Y-9745000D01*
D13*
X15720000Y-5420000D02*
X15830000Y-5530000D01*
X15830000Y-5420000D02*
X15720000Y-5530000D01*
X15830000Y-5475000D02*
G75*
G02*
X15720000Y-5475000I-55000J0D01*
G01*
X15720000Y-5475000D02*
G75*
G02*
X15830000Y-5475000I55000J0D01*
G01*
X15720000Y-5870000D02*
X15830000Y-5980000D01*
X15830000Y-5870000D02*
X15720000Y-5980000D01*
X15830000Y-5925000D02*
G75*
G02*
X15720000Y-5925000I-55000J0D01*
G01*
X15720000Y-5925000D02*
G75*
G02*
X15830000Y-5925000I55000J0D01*
G01*
X15720000Y-6220000D02*
X15830000Y-6330000D01*
X15830000Y-6220000D02*
X15720000Y-6330000D01*
X15830000Y-6275000D02*
G75*
G02*
X15720000Y-6275000I-55000J0D01*
G01*
X15720000Y-6275000D02*
G75*
G02*
X15830000Y-6275000I55000J0D01*
G01*
X15720000Y-6670000D02*
X15830000Y-6780000D01*
X15830000Y-6670000D02*
X15720000Y-6780000D01*
X15830000Y-6725000D02*
G75*
G02*
X15720000Y-6725000I-55000J0D01*
G01*
X15720000Y-6725000D02*
G75*
G02*
X15830000Y-6725000I55000J0D01*
G01*
X15720000Y-7620000D02*
X15830000Y-7730000D01*
X15830000Y-7620000D02*
X15720000Y-7730000D01*
X15830000Y-7675000D02*
G75*
G02*
X15720000Y-7675000I-55000J0D01*
G01*
X15720000Y-7675000D02*
G75*
G02*
X15830000Y-7675000I55000J0D01*
G01*
X15720000Y-8070000D02*
X15830000Y-8180000D01*
X15830000Y-8070000D02*
X15720000Y-8180000D01*
X15830000Y-8125000D02*
G75*
G02*
X15720000Y-8125000I-55000J0D01*
G01*
X15720000Y-8125000D02*
G75*
G02*
X15830000Y-8125000I55000J0D01*
G01*
X15720000Y-8420000D02*
X15830000Y-8530000D01*
X15830000Y-8420000D02*
X15720000Y-8530000D01*
X15830000Y-8475000D02*
G75*
G02*
X15720000Y-8475000I-55000J0D01*
G01*
X15720000Y-8475000D02*
G75*
G02*
X15830000Y-8475000I55000J0D01*
G01*
X15720000Y-8870000D02*
X15830000Y-8980000D01*
X15830000Y-8870000D02*
X15720000Y-8980000D01*
X15830000Y-8925000D02*
G75*
G02*
X15720000Y-8925000I-55000J0D01*
G01*
X15720000Y-8925000D02*
G75*
G02*
X15830000Y-8925000I55000J0D01*
G01*
X15720000Y-9920000D02*
X15830000Y-10030000D01*
X15830000Y-9920000D02*
X15720000Y-10030000D01*
X15830000Y-9975000D02*
G75*
G02*
X15720000Y-9975000I-55000J0D01*
G01*
X15720000Y-9975000D02*
G75*
G02*
X15830000Y-9975000I55000J0D01*
G01*
X15720000Y-10370000D02*
X15830000Y-10480000D01*
X15830000Y-10370000D02*
X15720000Y-10480000D01*
X15830000Y-10425000D02*
G75*
G02*
X15720000Y-10425000I-55000J0D01*
G01*
X15720000Y-10425000D02*
G75*
G02*
X15830000Y-10425000I55000J0D01*
G01*
X16370000Y-5420000D02*
X16480000Y-5530000D01*
X16480000Y-5420000D02*
X16370000Y-5530000D01*
X16480000Y-5475000D02*
G75*
G02*
X16370000Y-5475000I-55000J0D01*
G01*
X16370000Y-5475000D02*
G75*
G02*
X16480000Y-5475000I55000J0D01*
G01*
X16370000Y-5870000D02*
X16480000Y-5980000D01*
X16480000Y-5870000D02*
X16370000Y-5980000D01*
X16480000Y-5925000D02*
G75*
G02*
X16370000Y-5925000I-55000J0D01*
G01*
X16370000Y-5925000D02*
G75*
G02*
X16480000Y-5925000I55000J0D01*
G01*
X16370000Y-6220000D02*
X16480000Y-6330000D01*
X16480000Y-6220000D02*
X16370000Y-6330000D01*
X16480000Y-6275000D02*
G75*
G02*
X16370000Y-6275000I-55000J0D01*
G01*
X16370000Y-6275000D02*
G75*
G02*
X16480000Y-6275000I55000J0D01*
G01*
X16370000Y-6670000D02*
X16480000Y-6780000D01*
X16480000Y-6670000D02*
X16370000Y-6780000D01*
X16480000Y-6725000D02*
G75*
G02*
X16370000Y-6725000I-55000J0D01*
G01*
X16370000Y-6725000D02*
G75*
G02*
X16480000Y-6725000I55000J0D01*
G01*
X16370000Y-7620000D02*
X16480000Y-7730000D01*
X16480000Y-7620000D02*
X16370000Y-7730000D01*
X16480000Y-7675000D02*
G75*
G02*
X16370000Y-7675000I-55000J0D01*
G01*
X16370000Y-7675000D02*
G75*
G02*
X16480000Y-7675000I55000J0D01*
G01*
X16370000Y-8070000D02*
X16480000Y-8180000D01*
X16480000Y-8070000D02*
X16370000Y-8180000D01*
X16480000Y-8125000D02*
G75*
G02*
X16370000Y-8125000I-55000J0D01*
G01*
X16370000Y-8125000D02*
G75*
G02*
X16480000Y-8125000I55000J0D01*
G01*
X16370000Y-8420000D02*
X16480000Y-8530000D01*
X16480000Y-8420000D02*
X16370000Y-8530000D01*
X16480000Y-8475000D02*
G75*
G02*
X16370000Y-8475000I-55000J0D01*
G01*
X16370000Y-8475000D02*
G75*
G02*
X16480000Y-8475000I55000J0D01*
G01*
X16370000Y-8870000D02*
X16480000Y-8980000D01*
X16480000Y-8870000D02*
X16370000Y-8980000D01*
X16480000Y-8925000D02*
G75*
G02*
X16370000Y-8925000I-55000J0D01*
G01*
X16370000Y-8925000D02*
G75*
G02*
X16480000Y-8925000I55000J0D01*
G01*
X16370000Y-9920000D02*
X16480000Y-10030000D01*
X16480000Y-9920000D02*
X16370000Y-10030000D01*
X16480000Y-9975000D02*
G75*
G02*
X16370000Y-9975000I-55000J0D01*
G01*
X16370000Y-9975000D02*
G75*
G02*
X16480000Y-9975000I55000J0D01*
G01*
X16370000Y-10370000D02*
X16480000Y-10480000D01*
X16480000Y-10370000D02*
X16370000Y-10480000D01*
X16480000Y-10425000D02*
G75*
G02*
X16370000Y-10425000I-55000J0D01*
G01*
X16370000Y-10425000D02*
G75*
G02*
X16480000Y-10425000I55000J0D01*
G01*
X20520000Y-5420000D02*
X20630000Y-5530000D01*
X20630000Y-5420000D02*
X20520000Y-5530000D01*
X20630000Y-5475000D02*
G75*
G02*
X20520000Y-5475000I-55000J0D01*
G01*
X20520000Y-5475000D02*
G75*
G02*
X20630000Y-5475000I55000J0D01*
G01*
X20520000Y-5870000D02*
X20630000Y-5980000D01*
X20630000Y-5870000D02*
X20520000Y-5980000D01*
X20630000Y-5925000D02*
G75*
G02*
X20520000Y-5925000I-55000J0D01*
G01*
X20520000Y-5925000D02*
G75*
G02*
X20630000Y-5925000I55000J0D01*
G01*
X20520000Y-6220000D02*
X20630000Y-6330000D01*
X20630000Y-6220000D02*
X20520000Y-6330000D01*
X20630000Y-6275000D02*
G75*
G02*
X20520000Y-6275000I-55000J0D01*
G01*
X20520000Y-6275000D02*
G75*
G02*
X20630000Y-6275000I55000J0D01*
G01*
X20520000Y-6670000D02*
X20630000Y-6780000D01*
X20630000Y-6670000D02*
X20520000Y-6780000D01*
X20630000Y-6725000D02*
G75*
G02*
X20520000Y-6725000I-55000J0D01*
G01*
X20520000Y-6725000D02*
G75*
G02*
X20630000Y-6725000I55000J0D01*
G01*
X20520000Y-9120000D02*
X20630000Y-9230000D01*
X20630000Y-9120000D02*
X20520000Y-9230000D01*
X20630000Y-9175000D02*
G75*
G02*
X20520000Y-9175000I-55000J0D01*
G01*
X20520000Y-9175000D02*
G75*
G02*
X20630000Y-9175000I55000J0D01*
G01*
X20520000Y-9570000D02*
X20630000Y-9680000D01*
X20630000Y-9570000D02*
X20520000Y-9680000D01*
X20630000Y-9625000D02*
G75*
G02*
X20520000Y-9625000I-55000J0D01*
G01*
X20520000Y-9625000D02*
G75*
G02*
X20630000Y-9625000I55000J0D01*
G01*
X20520000Y-9920000D02*
X20630000Y-10030000D01*
X20630000Y-9920000D02*
X20520000Y-10030000D01*
X20630000Y-9975000D02*
G75*
G02*
X20520000Y-9975000I-55000J0D01*
G01*
X20520000Y-9975000D02*
G75*
G02*
X20630000Y-9975000I55000J0D01*
G01*
X20520000Y-10370000D02*
X20630000Y-10480000D01*
X20630000Y-10370000D02*
X20520000Y-10480000D01*
X20630000Y-10425000D02*
G75*
G02*
X20520000Y-10425000I-55000J0D01*
G01*
X20520000Y-10425000D02*
G75*
G02*
X20630000Y-10425000I55000J0D01*
G01*
X21170000Y-5420000D02*
X21280000Y-5530000D01*
X21280000Y-5420000D02*
X21170000Y-5530000D01*
X21280000Y-5475000D02*
G75*
G02*
X21170000Y-5475000I-55000J0D01*
G01*
X21170000Y-5475000D02*
G75*
G02*
X21280000Y-5475000I55000J0D01*
G01*
X21170000Y-5870000D02*
X21280000Y-5980000D01*
X21280000Y-5870000D02*
X21170000Y-5980000D01*
X21280000Y-5925000D02*
G75*
G02*
X21170000Y-5925000I-55000J0D01*
G01*
X21170000Y-5925000D02*
G75*
G02*
X21280000Y-5925000I55000J0D01*
G01*
X21170000Y-6220000D02*
X21280000Y-6330000D01*
X21280000Y-6220000D02*
X21170000Y-6330000D01*
X21280000Y-6275000D02*
G75*
G02*
X21170000Y-6275000I-55000J0D01*
G01*
X21170000Y-6275000D02*
G75*
G02*
X21280000Y-6275000I55000J0D01*
G01*
X21170000Y-6670000D02*
X21280000Y-6780000D01*
X21280000Y-6670000D02*
X21170000Y-6780000D01*
X21280000Y-6725000D02*
G75*
G02*
X21170000Y-6725000I-55000J0D01*
G01*
X21170000Y-6725000D02*
G75*
G02*
X21280000Y-6725000I55000J0D01*
G01*
X21170000Y-9120000D02*
X21280000Y-9230000D01*
X21280000Y-9120000D02*
X21170000Y-9230000D01*
X21280000Y-9175000D02*
G75*
G02*
X21170000Y-9175000I-55000J0D01*
G01*
X21170000Y-9175000D02*
G75*
G02*
X21280000Y-9175000I55000J0D01*
G01*
X21170000Y-9570000D02*
X21280000Y-9680000D01*
X21280000Y-9570000D02*
X21170000Y-9680000D01*
X21280000Y-9625000D02*
G75*
G02*
X21170000Y-9625000I-55000J0D01*
G01*
X21170000Y-9625000D02*
G75*
G02*
X21280000Y-9625000I55000J0D01*
G01*
X21170000Y-9920000D02*
X21280000Y-10030000D01*
X21280000Y-9920000D02*
X21170000Y-10030000D01*
X21280000Y-9975000D02*
G75*
G02*
X21170000Y-9975000I-55000J0D01*
G01*
X21170000Y-9975000D02*
G75*
G02*
X21280000Y-9975000I55000J0D01*
G01*
X21170000Y-10370000D02*
X21280000Y-10480000D01*
X21280000Y-10370000D02*
X21170000Y-10480000D01*
X21280000Y-10425000D02*
G75*
G02*
X21170000Y-10425000I-55000J0D01*
G01*
X21170000Y-10425000D02*
G75*
G02*
X21280000Y-10425000I55000J0D01*
G01*
D11*
X15558277Y-11313984D02*
X15558277Y-11113984D01*
X15558277Y-11113984D02*
X15605896Y-11113984D01*
X15605896Y-11113984D02*
X15634467Y-11123508D01*
X15634467Y-11123508D02*
X15653515Y-11142555D01*
X15653515Y-11142555D02*
X15663039Y-11161603D01*
X15663039Y-11161603D02*
X15672562Y-11199698D01*
X15672562Y-11199698D02*
X15672562Y-11228269D01*
X15672562Y-11228269D02*
X15663039Y-11266365D01*
X15663039Y-11266365D02*
X15653515Y-11285412D01*
X15653515Y-11285412D02*
X15634467Y-11304460D01*
X15634467Y-11304460D02*
X15605896Y-11313984D01*
X15605896Y-11313984D02*
X15558277Y-11313984D01*
X15758277Y-11313984D02*
X15758277Y-11180650D01*
X15758277Y-11218746D02*
X15767801Y-11199698D01*
X15767801Y-11199698D02*
X15777324Y-11190174D01*
X15777324Y-11190174D02*
X15796372Y-11180650D01*
X15796372Y-11180650D02*
X15815420Y-11180650D01*
X15882086Y-11313984D02*
X15882086Y-11180650D01*
X15882086Y-11113984D02*
X15872562Y-11123508D01*
X15872562Y-11123508D02*
X15882086Y-11133031D01*
X15882086Y-11133031D02*
X15891610Y-11123508D01*
X15891610Y-11123508D02*
X15882086Y-11113984D01*
X15882086Y-11113984D02*
X15882086Y-11133031D01*
X16005896Y-11313984D02*
X15986848Y-11304460D01*
X15986848Y-11304460D02*
X15977324Y-11285412D01*
X15977324Y-11285412D02*
X15977324Y-11113984D01*
X16110658Y-11313984D02*
X16091610Y-11304460D01*
X16091610Y-11304460D02*
X16082086Y-11285412D01*
X16082086Y-11285412D02*
X16082086Y-11113984D01*
X16339229Y-11313984D02*
X16339229Y-11113984D01*
X16339229Y-11113984D02*
X16405896Y-11256841D01*
X16405896Y-11256841D02*
X16472562Y-11113984D01*
X16472562Y-11113984D02*
X16472562Y-11313984D01*
X16653515Y-11313984D02*
X16653515Y-11209222D01*
X16653515Y-11209222D02*
X16643991Y-11190174D01*
X16643991Y-11190174D02*
X16624943Y-11180650D01*
X16624943Y-11180650D02*
X16586848Y-11180650D01*
X16586848Y-11180650D02*
X16567801Y-11190174D01*
X16653515Y-11304460D02*
X16634467Y-11313984D01*
X16634467Y-11313984D02*
X16586848Y-11313984D01*
X16586848Y-11313984D02*
X16567801Y-11304460D01*
X16567801Y-11304460D02*
X16558277Y-11285412D01*
X16558277Y-11285412D02*
X16558277Y-11266365D01*
X16558277Y-11266365D02*
X16567801Y-11247317D01*
X16567801Y-11247317D02*
X16586848Y-11237793D01*
X16586848Y-11237793D02*
X16634467Y-11237793D01*
X16634467Y-11237793D02*
X16653515Y-11228269D01*
X16748753Y-11180650D02*
X16748753Y-11380650D01*
X16748753Y-11190174D02*
X16767801Y-11180650D01*
X16767801Y-11180650D02*
X16805896Y-11180650D01*
X16805896Y-11180650D02*
X16824944Y-11190174D01*
X16824944Y-11190174D02*
X16834467Y-11199698D01*
X16834467Y-11199698D02*
X16843991Y-11218746D01*
X16843991Y-11218746D02*
X16843991Y-11275888D01*
X16843991Y-11275888D02*
X16834467Y-11294936D01*
X16834467Y-11294936D02*
X16824944Y-11304460D01*
X16824944Y-11304460D02*
X16805896Y-11313984D01*
X16805896Y-11313984D02*
X16767801Y-11313984D01*
X16767801Y-11313984D02*
X16748753Y-11304460D01*
X16929705Y-11294936D02*
X16939229Y-11304460D01*
X16939229Y-11304460D02*
X16929705Y-11313984D01*
X16929705Y-11313984D02*
X16920182Y-11304460D01*
X16920182Y-11304460D02*
X16929705Y-11294936D01*
X16929705Y-11294936D02*
X16929705Y-11313984D01*
X16929705Y-11190174D02*
X16939229Y-11199698D01*
X16939229Y-11199698D02*
X16929705Y-11209222D01*
X16929705Y-11209222D02*
X16920182Y-11199698D01*
X16920182Y-11199698D02*
X16929705Y-11190174D01*
X16929705Y-11190174D02*
X16929705Y-11209222D01*
D12*
X15267500Y-11627500D02*
X15297500Y-11657500D01*
X15297500Y-11627500D02*
X15267500Y-11657500D01*
D11*
X15596372Y-11533984D02*
X15615420Y-11533984D01*
X15615420Y-11533984D02*
X15634467Y-11543508D01*
X15634467Y-11543508D02*
X15643991Y-11553031D01*
X15643991Y-11553031D02*
X15653515Y-11572079D01*
X15653515Y-11572079D02*
X15663039Y-11610174D01*
X15663039Y-11610174D02*
X15663039Y-11657793D01*
X15663039Y-11657793D02*
X15653515Y-11695888D01*
X15653515Y-11695888D02*
X15643991Y-11714936D01*
X15643991Y-11714936D02*
X15634467Y-11724460D01*
X15634467Y-11724460D02*
X15615420Y-11733984D01*
X15615420Y-11733984D02*
X15596372Y-11733984D01*
X15596372Y-11733984D02*
X15577324Y-11724460D01*
X15577324Y-11724460D02*
X15567801Y-11714936D01*
X15567801Y-11714936D02*
X15558277Y-11695888D01*
X15558277Y-11695888D02*
X15548753Y-11657793D01*
X15548753Y-11657793D02*
X15548753Y-11610174D01*
X15548753Y-11610174D02*
X15558277Y-11572079D01*
X15558277Y-11572079D02*
X15567801Y-11553031D01*
X15567801Y-11553031D02*
X15577324Y-11543508D01*
X15577324Y-11543508D02*
X15596372Y-11533984D01*
X15748753Y-11714936D02*
X15758277Y-11724460D01*
X15758277Y-11724460D02*
X15748753Y-11733984D01*
X15748753Y-11733984D02*
X15739229Y-11724460D01*
X15739229Y-11724460D02*
X15748753Y-11714936D01*
X15748753Y-11714936D02*
X15748753Y-11733984D01*
X15824943Y-11533984D02*
X15948753Y-11533984D01*
X15948753Y-11533984D02*
X15882086Y-11610174D01*
X15882086Y-11610174D02*
X15910658Y-11610174D01*
X15910658Y-11610174D02*
X15929705Y-11619698D01*
X15929705Y-11619698D02*
X15939229Y-11629222D01*
X15939229Y-11629222D02*
X15948753Y-11648269D01*
X15948753Y-11648269D02*
X15948753Y-11695888D01*
X15948753Y-11695888D02*
X15939229Y-11714936D01*
X15939229Y-11714936D02*
X15929705Y-11724460D01*
X15929705Y-11724460D02*
X15910658Y-11733984D01*
X15910658Y-11733984D02*
X15853515Y-11733984D01*
X15853515Y-11733984D02*
X15834467Y-11724460D01*
X15834467Y-11724460D02*
X15824943Y-11714936D01*
X16072562Y-11533984D02*
X16091610Y-11533984D01*
X16091610Y-11533984D02*
X16110658Y-11543508D01*
X16110658Y-11543508D02*
X16120182Y-11553031D01*
X16120182Y-11553031D02*
X16129705Y-11572079D01*
X16129705Y-11572079D02*
X16139229Y-11610174D01*
X16139229Y-11610174D02*
X16139229Y-11657793D01*
X16139229Y-11657793D02*
X16129705Y-11695888D01*
X16129705Y-11695888D02*
X16120182Y-11714936D01*
X16120182Y-11714936D02*
X16110658Y-11724460D01*
X16110658Y-11724460D02*
X16091610Y-11733984D01*
X16091610Y-11733984D02*
X16072562Y-11733984D01*
X16072562Y-11733984D02*
X16053515Y-11724460D01*
X16053515Y-11724460D02*
X16043991Y-11714936D01*
X16043991Y-11714936D02*
X16034467Y-11695888D01*
X16034467Y-11695888D02*
X16024943Y-11657793D01*
X16024943Y-11657793D02*
X16024943Y-11610174D01*
X16024943Y-11610174D02*
X16034467Y-11572079D01*
X16034467Y-11572079D02*
X16043991Y-11553031D01*
X16043991Y-11553031D02*
X16053515Y-11543508D01*
X16053515Y-11543508D02*
X16072562Y-11533984D01*
X16263039Y-11533984D02*
X16282086Y-11533984D01*
X16282086Y-11533984D02*
X16301134Y-11543508D01*
X16301134Y-11543508D02*
X16310658Y-11553031D01*
X16310658Y-11553031D02*
X16320182Y-11572079D01*
X16320182Y-11572079D02*
X16329705Y-11610174D01*
X16329705Y-11610174D02*
X16329705Y-11657793D01*
X16329705Y-11657793D02*
X16320182Y-11695888D01*
X16320182Y-11695888D02*
X16310658Y-11714936D01*
X16310658Y-11714936D02*
X16301134Y-11724460D01*
X16301134Y-11724460D02*
X16282086Y-11733984D01*
X16282086Y-11733984D02*
X16263039Y-11733984D01*
X16263039Y-11733984D02*
X16243991Y-11724460D01*
X16243991Y-11724460D02*
X16234467Y-11714936D01*
X16234467Y-11714936D02*
X16224943Y-11695888D01*
X16224943Y-11695888D02*
X16215420Y-11657793D01*
X16215420Y-11657793D02*
X16215420Y-11610174D01*
X16215420Y-11610174D02*
X16224943Y-11572079D01*
X16224943Y-11572079D02*
X16234467Y-11553031D01*
X16234467Y-11553031D02*
X16243991Y-11543508D01*
X16243991Y-11543508D02*
X16263039Y-11533984D01*
X16415420Y-11733984D02*
X16415420Y-11600650D01*
X16415420Y-11619698D02*
X16424943Y-11610174D01*
X16424943Y-11610174D02*
X16443991Y-11600650D01*
X16443991Y-11600650D02*
X16472563Y-11600650D01*
X16472563Y-11600650D02*
X16491610Y-11610174D01*
X16491610Y-11610174D02*
X16501134Y-11629222D01*
X16501134Y-11629222D02*
X16501134Y-11733984D01*
X16501134Y-11629222D02*
X16510658Y-11610174D01*
X16510658Y-11610174D02*
X16529705Y-11600650D01*
X16529705Y-11600650D02*
X16558277Y-11600650D01*
X16558277Y-11600650D02*
X16577324Y-11610174D01*
X16577324Y-11610174D02*
X16586848Y-11629222D01*
X16586848Y-11629222D02*
X16586848Y-11733984D01*
X16682086Y-11733984D02*
X16682086Y-11600650D01*
X16682086Y-11619698D02*
X16691610Y-11610174D01*
X16691610Y-11610174D02*
X16710658Y-11600650D01*
X16710658Y-11600650D02*
X16739229Y-11600650D01*
X16739229Y-11600650D02*
X16758277Y-11610174D01*
X16758277Y-11610174D02*
X16767801Y-11629222D01*
X16767801Y-11629222D02*
X16767801Y-11733984D01*
X16767801Y-11629222D02*
X16777325Y-11610174D01*
X16777325Y-11610174D02*
X16796372Y-11600650D01*
X16796372Y-11600650D02*
X16824944Y-11600650D01*
X16824944Y-11600650D02*
X16843991Y-11610174D01*
X16843991Y-11610174D02*
X16853515Y-11629222D01*
X16853515Y-11629222D02*
X16853515Y-11733984D01*
X17243991Y-11524460D02*
X17072563Y-11781603D01*
X17501134Y-11533984D02*
X17520182Y-11533984D01*
X17520182Y-11533984D02*
X17539229Y-11543508D01*
X17539229Y-11543508D02*
X17548753Y-11553031D01*
X17548753Y-11553031D02*
X17558277Y-11572079D01*
X17558277Y-11572079D02*
X17567801Y-11610174D01*
X17567801Y-11610174D02*
X17567801Y-11657793D01*
X17567801Y-11657793D02*
X17558277Y-11695888D01*
X17558277Y-11695888D02*
X17548753Y-11714936D01*
X17548753Y-11714936D02*
X17539229Y-11724460D01*
X17539229Y-11724460D02*
X17520182Y-11733984D01*
X17520182Y-11733984D02*
X17501134Y-11733984D01*
X17501134Y-11733984D02*
X17482087Y-11724460D01*
X17482087Y-11724460D02*
X17472563Y-11714936D01*
X17472563Y-11714936D02*
X17463039Y-11695888D01*
X17463039Y-11695888D02*
X17453515Y-11657793D01*
X17453515Y-11657793D02*
X17453515Y-11610174D01*
X17453515Y-11610174D02*
X17463039Y-11572079D01*
X17463039Y-11572079D02*
X17472563Y-11553031D01*
X17472563Y-11553031D02*
X17482087Y-11543508D01*
X17482087Y-11543508D02*
X17501134Y-11533984D01*
X17653515Y-11714936D02*
X17663039Y-11724460D01*
X17663039Y-11724460D02*
X17653515Y-11733984D01*
X17653515Y-11733984D02*
X17643991Y-11724460D01*
X17643991Y-11724460D02*
X17653515Y-11714936D01*
X17653515Y-11714936D02*
X17653515Y-11733984D01*
X17786848Y-11533984D02*
X17805896Y-11533984D01*
X17805896Y-11533984D02*
X17824944Y-11543508D01*
X17824944Y-11543508D02*
X17834468Y-11553031D01*
X17834468Y-11553031D02*
X17843991Y-11572079D01*
X17843991Y-11572079D02*
X17853515Y-11610174D01*
X17853515Y-11610174D02*
X17853515Y-11657793D01*
X17853515Y-11657793D02*
X17843991Y-11695888D01*
X17843991Y-11695888D02*
X17834468Y-11714936D01*
X17834468Y-11714936D02*
X17824944Y-11724460D01*
X17824944Y-11724460D02*
X17805896Y-11733984D01*
X17805896Y-11733984D02*
X17786848Y-11733984D01*
X17786848Y-11733984D02*
X17767801Y-11724460D01*
X17767801Y-11724460D02*
X17758277Y-11714936D01*
X17758277Y-11714936D02*
X17748753Y-11695888D01*
X17748753Y-11695888D02*
X17739229Y-11657793D01*
X17739229Y-11657793D02*
X17739229Y-11610174D01*
X17739229Y-11610174D02*
X17748753Y-11572079D01*
X17748753Y-11572079D02*
X17758277Y-11553031D01*
X17758277Y-11553031D02*
X17767801Y-11543508D01*
X17767801Y-11543508D02*
X17786848Y-11533984D01*
X18043991Y-11733984D02*
X17929706Y-11733984D01*
X17986848Y-11733984D02*
X17986848Y-11533984D01*
X17986848Y-11533984D02*
X17967801Y-11562555D01*
X17967801Y-11562555D02*
X17948753Y-11581603D01*
X17948753Y-11581603D02*
X17929706Y-11591127D01*
X18234468Y-11733984D02*
X18120182Y-11733984D01*
X18177325Y-11733984D02*
X18177325Y-11533984D01*
X18177325Y-11533984D02*
X18158277Y-11562555D01*
X18158277Y-11562555D02*
X18139229Y-11581603D01*
X18139229Y-11581603D02*
X18120182Y-11591127D01*
X18348753Y-11619698D02*
X18329706Y-11610174D01*
X18329706Y-11610174D02*
X18320182Y-11600650D01*
X18320182Y-11600650D02*
X18310658Y-11581603D01*
X18310658Y-11581603D02*
X18310658Y-11572079D01*
X18310658Y-11572079D02*
X18320182Y-11553031D01*
X18320182Y-11553031D02*
X18329706Y-11543508D01*
X18329706Y-11543508D02*
X18348753Y-11533984D01*
X18348753Y-11533984D02*
X18386849Y-11533984D01*
X18386849Y-11533984D02*
X18405896Y-11543508D01*
X18405896Y-11543508D02*
X18415420Y-11553031D01*
X18415420Y-11553031D02*
X18424944Y-11572079D01*
X18424944Y-11572079D02*
X18424944Y-11581603D01*
X18424944Y-11581603D02*
X18415420Y-11600650D01*
X18415420Y-11600650D02*
X18405896Y-11610174D01*
X18405896Y-11610174D02*
X18386849Y-11619698D01*
X18386849Y-11619698D02*
X18348753Y-11619698D01*
X18348753Y-11619698D02*
X18329706Y-11629222D01*
X18329706Y-11629222D02*
X18320182Y-11638746D01*
X18320182Y-11638746D02*
X18310658Y-11657793D01*
X18310658Y-11657793D02*
X18310658Y-11695888D01*
X18310658Y-11695888D02*
X18320182Y-11714936D01*
X18320182Y-11714936D02*
X18329706Y-11724460D01*
X18329706Y-11724460D02*
X18348753Y-11733984D01*
X18348753Y-11733984D02*
X18386849Y-11733984D01*
X18386849Y-11733984D02*
X18405896Y-11724460D01*
X18405896Y-11724460D02*
X18415420Y-11714936D01*
X18415420Y-11714936D02*
X18424944Y-11695888D01*
X18424944Y-11695888D02*
X18424944Y-11657793D01*
X18424944Y-11657793D02*
X18415420Y-11638746D01*
X18415420Y-11638746D02*
X18405896Y-11629222D01*
X18405896Y-11629222D02*
X18386849Y-11619698D01*
X18501134Y-11533984D02*
X18501134Y-11572079D01*
X18577325Y-11533984D02*
X18577325Y-11572079D01*
X18872563Y-11810174D02*
X18863039Y-11800650D01*
X18863039Y-11800650D02*
X18843991Y-11772079D01*
X18843991Y-11772079D02*
X18834468Y-11753031D01*
X18834468Y-11753031D02*
X18824944Y-11724460D01*
X18824944Y-11724460D02*
X18815420Y-11676841D01*
X18815420Y-11676841D02*
X18815420Y-11638746D01*
X18815420Y-11638746D02*
X18824944Y-11591127D01*
X18824944Y-11591127D02*
X18834468Y-11562555D01*
X18834468Y-11562555D02*
X18843991Y-11543508D01*
X18843991Y-11543508D02*
X18863039Y-11514936D01*
X18863039Y-11514936D02*
X18872563Y-11505412D01*
X18939230Y-11553031D02*
X18948753Y-11543508D01*
X18948753Y-11543508D02*
X18967801Y-11533984D01*
X18967801Y-11533984D02*
X19015420Y-11533984D01*
X19015420Y-11533984D02*
X19034468Y-11543508D01*
X19034468Y-11543508D02*
X19043991Y-11553031D01*
X19043991Y-11553031D02*
X19053515Y-11572079D01*
X19053515Y-11572079D02*
X19053515Y-11591127D01*
X19053515Y-11591127D02*
X19043991Y-11619698D01*
X19043991Y-11619698D02*
X18929706Y-11733984D01*
X18929706Y-11733984D02*
X19053515Y-11733984D01*
X19291611Y-11733984D02*
X19291611Y-11533984D01*
X19377325Y-11733984D02*
X19377325Y-11629222D01*
X19377325Y-11629222D02*
X19367801Y-11610174D01*
X19367801Y-11610174D02*
X19348753Y-11600650D01*
X19348753Y-11600650D02*
X19320182Y-11600650D01*
X19320182Y-11600650D02*
X19301134Y-11610174D01*
X19301134Y-11610174D02*
X19291611Y-11619698D01*
X19501134Y-11733984D02*
X19482087Y-11724460D01*
X19482087Y-11724460D02*
X19472563Y-11714936D01*
X19472563Y-11714936D02*
X19463039Y-11695888D01*
X19463039Y-11695888D02*
X19463039Y-11638746D01*
X19463039Y-11638746D02*
X19472563Y-11619698D01*
X19472563Y-11619698D02*
X19482087Y-11610174D01*
X19482087Y-11610174D02*
X19501134Y-11600650D01*
X19501134Y-11600650D02*
X19529706Y-11600650D01*
X19529706Y-11600650D02*
X19548753Y-11610174D01*
X19548753Y-11610174D02*
X19558277Y-11619698D01*
X19558277Y-11619698D02*
X19567801Y-11638746D01*
X19567801Y-11638746D02*
X19567801Y-11695888D01*
X19567801Y-11695888D02*
X19558277Y-11714936D01*
X19558277Y-11714936D02*
X19548753Y-11724460D01*
X19548753Y-11724460D02*
X19529706Y-11733984D01*
X19529706Y-11733984D02*
X19501134Y-11733984D01*
X19682087Y-11733984D02*
X19663039Y-11724460D01*
X19663039Y-11724460D02*
X19653515Y-11705412D01*
X19653515Y-11705412D02*
X19653515Y-11533984D01*
X19834468Y-11724460D02*
X19815420Y-11733984D01*
X19815420Y-11733984D02*
X19777325Y-11733984D01*
X19777325Y-11733984D02*
X19758277Y-11724460D01*
X19758277Y-11724460D02*
X19748753Y-11705412D01*
X19748753Y-11705412D02*
X19748753Y-11629222D01*
X19748753Y-11629222D02*
X19758277Y-11610174D01*
X19758277Y-11610174D02*
X19777325Y-11600650D01*
X19777325Y-11600650D02*
X19815420Y-11600650D01*
X19815420Y-11600650D02*
X19834468Y-11610174D01*
X19834468Y-11610174D02*
X19843992Y-11629222D01*
X19843992Y-11629222D02*
X19843992Y-11648269D01*
X19843992Y-11648269D02*
X19748753Y-11667317D01*
X19920182Y-11724460D02*
X19939230Y-11733984D01*
X19939230Y-11733984D02*
X19977325Y-11733984D01*
X19977325Y-11733984D02*
X19996373Y-11724460D01*
X19996373Y-11724460D02*
X20005896Y-11705412D01*
X20005896Y-11705412D02*
X20005896Y-11695888D01*
X20005896Y-11695888D02*
X19996373Y-11676841D01*
X19996373Y-11676841D02*
X19977325Y-11667317D01*
X19977325Y-11667317D02*
X19948753Y-11667317D01*
X19948753Y-11667317D02*
X19929706Y-11657793D01*
X19929706Y-11657793D02*
X19920182Y-11638746D01*
X19920182Y-11638746D02*
X19920182Y-11629222D01*
X19920182Y-11629222D02*
X19929706Y-11610174D01*
X19929706Y-11610174D02*
X19948753Y-11600650D01*
X19948753Y-11600650D02*
X19977325Y-11600650D01*
X19977325Y-11600650D02*
X19996373Y-11610174D01*
X20072563Y-11810174D02*
X20082087Y-11800650D01*
X20082087Y-11800650D02*
X20101134Y-11772079D01*
X20101134Y-11772079D02*
X20110658Y-11753031D01*
X20110658Y-11753031D02*
X20120182Y-11724460D01*
X20120182Y-11724460D02*
X20129706Y-11676841D01*
X20129706Y-11676841D02*
X20129706Y-11638746D01*
X20129706Y-11638746D02*
X20120182Y-11591127D01*
X20120182Y-11591127D02*
X20110658Y-11562555D01*
X20110658Y-11562555D02*
X20101134Y-11543508D01*
X20101134Y-11543508D02*
X20082087Y-11514936D01*
X20082087Y-11514936D02*
X20072563Y-11505412D01*
D12*
X15297500Y-11906500D02*
G75*
G02*
X15247500Y-11906500I-25000J0D01*
G01*
X15247500Y-11906500D02*
G75*
G02*
X15297500Y-11906500I25000J0D01*
G01*
D11*
X15596372Y-11797984D02*
X15615420Y-11797984D01*
X15615420Y-11797984D02*
X15634467Y-11807508D01*
X15634467Y-11807508D02*
X15643991Y-11817031D01*
X15643991Y-11817031D02*
X15653515Y-11836079D01*
X15653515Y-11836079D02*
X15663039Y-11874174D01*
X15663039Y-11874174D02*
X15663039Y-11921793D01*
X15663039Y-11921793D02*
X15653515Y-11959888D01*
X15653515Y-11959888D02*
X15643991Y-11978936D01*
X15643991Y-11978936D02*
X15634467Y-11988460D01*
X15634467Y-11988460D02*
X15615420Y-11997984D01*
X15615420Y-11997984D02*
X15596372Y-11997984D01*
X15596372Y-11997984D02*
X15577324Y-11988460D01*
X15577324Y-11988460D02*
X15567801Y-11978936D01*
X15567801Y-11978936D02*
X15558277Y-11959888D01*
X15558277Y-11959888D02*
X15548753Y-11921793D01*
X15548753Y-11921793D02*
X15548753Y-11874174D01*
X15548753Y-11874174D02*
X15558277Y-11836079D01*
X15558277Y-11836079D02*
X15567801Y-11817031D01*
X15567801Y-11817031D02*
X15577324Y-11807508D01*
X15577324Y-11807508D02*
X15596372Y-11797984D01*
X15748753Y-11978936D02*
X15758277Y-11988460D01*
X15758277Y-11988460D02*
X15748753Y-11997984D01*
X15748753Y-11997984D02*
X15739229Y-11988460D01*
X15739229Y-11988460D02*
X15748753Y-11978936D01*
X15748753Y-11978936D02*
X15748753Y-11997984D01*
X15939229Y-11797984D02*
X15843991Y-11797984D01*
X15843991Y-11797984D02*
X15834467Y-11893222D01*
X15834467Y-11893222D02*
X15843991Y-11883698D01*
X15843991Y-11883698D02*
X15863039Y-11874174D01*
X15863039Y-11874174D02*
X15910658Y-11874174D01*
X15910658Y-11874174D02*
X15929705Y-11883698D01*
X15929705Y-11883698D02*
X15939229Y-11893222D01*
X15939229Y-11893222D02*
X15948753Y-11912269D01*
X15948753Y-11912269D02*
X15948753Y-11959888D01*
X15948753Y-11959888D02*
X15939229Y-11978936D01*
X15939229Y-11978936D02*
X15929705Y-11988460D01*
X15929705Y-11988460D02*
X15910658Y-11997984D01*
X15910658Y-11997984D02*
X15863039Y-11997984D01*
X15863039Y-11997984D02*
X15843991Y-11988460D01*
X15843991Y-11988460D02*
X15834467Y-11978936D01*
X16072562Y-11797984D02*
X16091610Y-11797984D01*
X16091610Y-11797984D02*
X16110658Y-11807508D01*
X16110658Y-11807508D02*
X16120182Y-11817031D01*
X16120182Y-11817031D02*
X16129705Y-11836079D01*
X16129705Y-11836079D02*
X16139229Y-11874174D01*
X16139229Y-11874174D02*
X16139229Y-11921793D01*
X16139229Y-11921793D02*
X16129705Y-11959888D01*
X16129705Y-11959888D02*
X16120182Y-11978936D01*
X16120182Y-11978936D02*
X16110658Y-11988460D01*
X16110658Y-11988460D02*
X16091610Y-11997984D01*
X16091610Y-11997984D02*
X16072562Y-11997984D01*
X16072562Y-11997984D02*
X16053515Y-11988460D01*
X16053515Y-11988460D02*
X16043991Y-11978936D01*
X16043991Y-11978936D02*
X16034467Y-11959888D01*
X16034467Y-11959888D02*
X16024943Y-11921793D01*
X16024943Y-11921793D02*
X16024943Y-11874174D01*
X16024943Y-11874174D02*
X16034467Y-11836079D01*
X16034467Y-11836079D02*
X16043991Y-11817031D01*
X16043991Y-11817031D02*
X16053515Y-11807508D01*
X16053515Y-11807508D02*
X16072562Y-11797984D01*
X16263039Y-11797984D02*
X16282086Y-11797984D01*
X16282086Y-11797984D02*
X16301134Y-11807508D01*
X16301134Y-11807508D02*
X16310658Y-11817031D01*
X16310658Y-11817031D02*
X16320182Y-11836079D01*
X16320182Y-11836079D02*
X16329705Y-11874174D01*
X16329705Y-11874174D02*
X16329705Y-11921793D01*
X16329705Y-11921793D02*
X16320182Y-11959888D01*
X16320182Y-11959888D02*
X16310658Y-11978936D01*
X16310658Y-11978936D02*
X16301134Y-11988460D01*
X16301134Y-11988460D02*
X16282086Y-11997984D01*
X16282086Y-11997984D02*
X16263039Y-11997984D01*
X16263039Y-11997984D02*
X16243991Y-11988460D01*
X16243991Y-11988460D02*
X16234467Y-11978936D01*
X16234467Y-11978936D02*
X16224943Y-11959888D01*
X16224943Y-11959888D02*
X16215420Y-11921793D01*
X16215420Y-11921793D02*
X16215420Y-11874174D01*
X16215420Y-11874174D02*
X16224943Y-11836079D01*
X16224943Y-11836079D02*
X16234467Y-11817031D01*
X16234467Y-11817031D02*
X16243991Y-11807508D01*
X16243991Y-11807508D02*
X16263039Y-11797984D01*
X16415420Y-11997984D02*
X16415420Y-11864650D01*
X16415420Y-11883698D02*
X16424943Y-11874174D01*
X16424943Y-11874174D02*
X16443991Y-11864650D01*
X16443991Y-11864650D02*
X16472563Y-11864650D01*
X16472563Y-11864650D02*
X16491610Y-11874174D01*
X16491610Y-11874174D02*
X16501134Y-11893222D01*
X16501134Y-11893222D02*
X16501134Y-11997984D01*
X16501134Y-11893222D02*
X16510658Y-11874174D01*
X16510658Y-11874174D02*
X16529705Y-11864650D01*
X16529705Y-11864650D02*
X16558277Y-11864650D01*
X16558277Y-11864650D02*
X16577324Y-11874174D01*
X16577324Y-11874174D02*
X16586848Y-11893222D01*
X16586848Y-11893222D02*
X16586848Y-11997984D01*
X16682086Y-11997984D02*
X16682086Y-11864650D01*
X16682086Y-11883698D02*
X16691610Y-11874174D01*
X16691610Y-11874174D02*
X16710658Y-11864650D01*
X16710658Y-11864650D02*
X16739229Y-11864650D01*
X16739229Y-11864650D02*
X16758277Y-11874174D01*
X16758277Y-11874174D02*
X16767801Y-11893222D01*
X16767801Y-11893222D02*
X16767801Y-11997984D01*
X16767801Y-11893222D02*
X16777325Y-11874174D01*
X16777325Y-11874174D02*
X16796372Y-11864650D01*
X16796372Y-11864650D02*
X16824944Y-11864650D01*
X16824944Y-11864650D02*
X16843991Y-11874174D01*
X16843991Y-11874174D02*
X16853515Y-11893222D01*
X16853515Y-11893222D02*
X16853515Y-11997984D01*
X17243991Y-11788460D02*
X17072563Y-12045603D01*
X17501134Y-11797984D02*
X17520182Y-11797984D01*
X17520182Y-11797984D02*
X17539229Y-11807508D01*
X17539229Y-11807508D02*
X17548753Y-11817031D01*
X17548753Y-11817031D02*
X17558277Y-11836079D01*
X17558277Y-11836079D02*
X17567801Y-11874174D01*
X17567801Y-11874174D02*
X17567801Y-11921793D01*
X17567801Y-11921793D02*
X17558277Y-11959888D01*
X17558277Y-11959888D02*
X17548753Y-11978936D01*
X17548753Y-11978936D02*
X17539229Y-11988460D01*
X17539229Y-11988460D02*
X17520182Y-11997984D01*
X17520182Y-11997984D02*
X17501134Y-11997984D01*
X17501134Y-11997984D02*
X17482087Y-11988460D01*
X17482087Y-11988460D02*
X17472563Y-11978936D01*
X17472563Y-11978936D02*
X17463039Y-11959888D01*
X17463039Y-11959888D02*
X17453515Y-11921793D01*
X17453515Y-11921793D02*
X17453515Y-11874174D01*
X17453515Y-11874174D02*
X17463039Y-11836079D01*
X17463039Y-11836079D02*
X17472563Y-11817031D01*
X17472563Y-11817031D02*
X17482087Y-11807508D01*
X17482087Y-11807508D02*
X17501134Y-11797984D01*
X17653515Y-11978936D02*
X17663039Y-11988460D01*
X17663039Y-11988460D02*
X17653515Y-11997984D01*
X17653515Y-11997984D02*
X17643991Y-11988460D01*
X17643991Y-11988460D02*
X17653515Y-11978936D01*
X17653515Y-11978936D02*
X17653515Y-11997984D01*
X17786848Y-11797984D02*
X17805896Y-11797984D01*
X17805896Y-11797984D02*
X17824944Y-11807508D01*
X17824944Y-11807508D02*
X17834468Y-11817031D01*
X17834468Y-11817031D02*
X17843991Y-11836079D01*
X17843991Y-11836079D02*
X17853515Y-11874174D01*
X17853515Y-11874174D02*
X17853515Y-11921793D01*
X17853515Y-11921793D02*
X17843991Y-11959888D01*
X17843991Y-11959888D02*
X17834468Y-11978936D01*
X17834468Y-11978936D02*
X17824944Y-11988460D01*
X17824944Y-11988460D02*
X17805896Y-11997984D01*
X17805896Y-11997984D02*
X17786848Y-11997984D01*
X17786848Y-11997984D02*
X17767801Y-11988460D01*
X17767801Y-11988460D02*
X17758277Y-11978936D01*
X17758277Y-11978936D02*
X17748753Y-11959888D01*
X17748753Y-11959888D02*
X17739229Y-11921793D01*
X17739229Y-11921793D02*
X17739229Y-11874174D01*
X17739229Y-11874174D02*
X17748753Y-11836079D01*
X17748753Y-11836079D02*
X17758277Y-11817031D01*
X17758277Y-11817031D02*
X17767801Y-11807508D01*
X17767801Y-11807508D02*
X17786848Y-11797984D01*
X18043991Y-11997984D02*
X17929706Y-11997984D01*
X17986848Y-11997984D02*
X17986848Y-11797984D01*
X17986848Y-11797984D02*
X17967801Y-11826555D01*
X17967801Y-11826555D02*
X17948753Y-11845603D01*
X17948753Y-11845603D02*
X17929706Y-11855127D01*
X18139229Y-11997984D02*
X18177325Y-11997984D01*
X18177325Y-11997984D02*
X18196372Y-11988460D01*
X18196372Y-11988460D02*
X18205896Y-11978936D01*
X18205896Y-11978936D02*
X18224944Y-11950365D01*
X18224944Y-11950365D02*
X18234468Y-11912269D01*
X18234468Y-11912269D02*
X18234468Y-11836079D01*
X18234468Y-11836079D02*
X18224944Y-11817031D01*
X18224944Y-11817031D02*
X18215420Y-11807508D01*
X18215420Y-11807508D02*
X18196372Y-11797984D01*
X18196372Y-11797984D02*
X18158277Y-11797984D01*
X18158277Y-11797984D02*
X18139229Y-11807508D01*
X18139229Y-11807508D02*
X18129706Y-11817031D01*
X18129706Y-11817031D02*
X18120182Y-11836079D01*
X18120182Y-11836079D02*
X18120182Y-11883698D01*
X18120182Y-11883698D02*
X18129706Y-11902746D01*
X18129706Y-11902746D02*
X18139229Y-11912269D01*
X18139229Y-11912269D02*
X18158277Y-11921793D01*
X18158277Y-11921793D02*
X18196372Y-11921793D01*
X18196372Y-11921793D02*
X18215420Y-11912269D01*
X18215420Y-11912269D02*
X18224944Y-11902746D01*
X18224944Y-11902746D02*
X18234468Y-11883698D01*
X18301134Y-11797984D02*
X18434468Y-11797984D01*
X18434468Y-11797984D02*
X18348753Y-11997984D01*
X18501134Y-11797984D02*
X18501134Y-11836079D01*
X18577325Y-11797984D02*
X18577325Y-11836079D01*
X18872563Y-12074174D02*
X18863039Y-12064650D01*
X18863039Y-12064650D02*
X18843991Y-12036079D01*
X18843991Y-12036079D02*
X18834468Y-12017031D01*
X18834468Y-12017031D02*
X18824944Y-11988460D01*
X18824944Y-11988460D02*
X18815420Y-11940841D01*
X18815420Y-11940841D02*
X18815420Y-11902746D01*
X18815420Y-11902746D02*
X18824944Y-11855127D01*
X18824944Y-11855127D02*
X18834468Y-11826555D01*
X18834468Y-11826555D02*
X18843991Y-11807508D01*
X18843991Y-11807508D02*
X18863039Y-11778936D01*
X18863039Y-11778936D02*
X18872563Y-11769412D01*
X19034468Y-11864650D02*
X19034468Y-11997984D01*
X18986849Y-11788460D02*
X18939230Y-11931317D01*
X18939230Y-11931317D02*
X19063039Y-11931317D01*
X19291611Y-11997984D02*
X19291611Y-11797984D01*
X19377325Y-11997984D02*
X19377325Y-11893222D01*
X19377325Y-11893222D02*
X19367801Y-11874174D01*
X19367801Y-11874174D02*
X19348753Y-11864650D01*
X19348753Y-11864650D02*
X19320182Y-11864650D01*
X19320182Y-11864650D02*
X19301134Y-11874174D01*
X19301134Y-11874174D02*
X19291611Y-11883698D01*
X19501134Y-11997984D02*
X19482087Y-11988460D01*
X19482087Y-11988460D02*
X19472563Y-11978936D01*
X19472563Y-11978936D02*
X19463039Y-11959888D01*
X19463039Y-11959888D02*
X19463039Y-11902746D01*
X19463039Y-11902746D02*
X19472563Y-11883698D01*
X19472563Y-11883698D02*
X19482087Y-11874174D01*
X19482087Y-11874174D02*
X19501134Y-11864650D01*
X19501134Y-11864650D02*
X19529706Y-11864650D01*
X19529706Y-11864650D02*
X19548753Y-11874174D01*
X19548753Y-11874174D02*
X19558277Y-11883698D01*
X19558277Y-11883698D02*
X19567801Y-11902746D01*
X19567801Y-11902746D02*
X19567801Y-11959888D01*
X19567801Y-11959888D02*
X19558277Y-11978936D01*
X19558277Y-11978936D02*
X19548753Y-11988460D01*
X19548753Y-11988460D02*
X19529706Y-11997984D01*
X19529706Y-11997984D02*
X19501134Y-11997984D01*
X19682087Y-11997984D02*
X19663039Y-11988460D01*
X19663039Y-11988460D02*
X19653515Y-11969412D01*
X19653515Y-11969412D02*
X19653515Y-11797984D01*
X19834468Y-11988460D02*
X19815420Y-11997984D01*
X19815420Y-11997984D02*
X19777325Y-11997984D01*
X19777325Y-11997984D02*
X19758277Y-11988460D01*
X19758277Y-11988460D02*
X19748753Y-11969412D01*
X19748753Y-11969412D02*
X19748753Y-11893222D01*
X19748753Y-11893222D02*
X19758277Y-11874174D01*
X19758277Y-11874174D02*
X19777325Y-11864650D01*
X19777325Y-11864650D02*
X19815420Y-11864650D01*
X19815420Y-11864650D02*
X19834468Y-11874174D01*
X19834468Y-11874174D02*
X19843992Y-11893222D01*
X19843992Y-11893222D02*
X19843992Y-11912269D01*
X19843992Y-11912269D02*
X19748753Y-11931317D01*
X19920182Y-11988460D02*
X19939230Y-11997984D01*
X19939230Y-11997984D02*
X19977325Y-11997984D01*
X19977325Y-11997984D02*
X19996373Y-11988460D01*
X19996373Y-11988460D02*
X20005896Y-11969412D01*
X20005896Y-11969412D02*
X20005896Y-11959888D01*
X20005896Y-11959888D02*
X19996373Y-11940841D01*
X19996373Y-11940841D02*
X19977325Y-11931317D01*
X19977325Y-11931317D02*
X19948753Y-11931317D01*
X19948753Y-11931317D02*
X19929706Y-11921793D01*
X19929706Y-11921793D02*
X19920182Y-11902746D01*
X19920182Y-11902746D02*
X19920182Y-11893222D01*
X19920182Y-11893222D02*
X19929706Y-11874174D01*
X19929706Y-11874174D02*
X19948753Y-11864650D01*
X19948753Y-11864650D02*
X19977325Y-11864650D01*
X19977325Y-11864650D02*
X19996373Y-11874174D01*
X20072563Y-12074174D02*
X20082087Y-12064650D01*
X20082087Y-12064650D02*
X20101134Y-12036079D01*
X20101134Y-12036079D02*
X20110658Y-12017031D01*
X20110658Y-12017031D02*
X20120182Y-11988460D01*
X20120182Y-11988460D02*
X20129706Y-11940841D01*
X20129706Y-11940841D02*
X20129706Y-11902746D01*
X20129706Y-11902746D02*
X20120182Y-11855127D01*
X20120182Y-11855127D02*
X20110658Y-11826555D01*
X20110658Y-11826555D02*
X20101134Y-11807508D01*
X20101134Y-11807508D02*
X20082087Y-11778936D01*
X20082087Y-11778936D02*
X20072563Y-11769412D01*
D12*
X15260000Y-12133000D02*
X15260000Y-12208000D01*
X15222500Y-12170500D02*
X15297500Y-12170500D01*
D11*
X15596372Y-12061984D02*
X15615420Y-12061984D01*
X15615420Y-12061984D02*
X15634467Y-12071508D01*
X15634467Y-12071508D02*
X15643991Y-12081031D01*
X15643991Y-12081031D02*
X15653515Y-12100079D01*
X15653515Y-12100079D02*
X15663039Y-12138174D01*
X15663039Y-12138174D02*
X15663039Y-12185793D01*
X15663039Y-12185793D02*
X15653515Y-12223888D01*
X15653515Y-12223888D02*
X15643991Y-12242936D01*
X15643991Y-12242936D02*
X15634467Y-12252460D01*
X15634467Y-12252460D02*
X15615420Y-12261984D01*
X15615420Y-12261984D02*
X15596372Y-12261984D01*
X15596372Y-12261984D02*
X15577324Y-12252460D01*
X15577324Y-12252460D02*
X15567801Y-12242936D01*
X15567801Y-12242936D02*
X15558277Y-12223888D01*
X15558277Y-12223888D02*
X15548753Y-12185793D01*
X15548753Y-12185793D02*
X15548753Y-12138174D01*
X15548753Y-12138174D02*
X15558277Y-12100079D01*
X15558277Y-12100079D02*
X15567801Y-12081031D01*
X15567801Y-12081031D02*
X15577324Y-12071508D01*
X15577324Y-12071508D02*
X15596372Y-12061984D01*
X15748753Y-12242936D02*
X15758277Y-12252460D01*
X15758277Y-12252460D02*
X15748753Y-12261984D01*
X15748753Y-12261984D02*
X15739229Y-12252460D01*
X15739229Y-12252460D02*
X15748753Y-12242936D01*
X15748753Y-12242936D02*
X15748753Y-12261984D01*
X15824943Y-12061984D02*
X15958277Y-12061984D01*
X15958277Y-12061984D02*
X15872562Y-12261984D01*
X16129705Y-12061984D02*
X16034467Y-12061984D01*
X16034467Y-12061984D02*
X16024943Y-12157222D01*
X16024943Y-12157222D02*
X16034467Y-12147698D01*
X16034467Y-12147698D02*
X16053515Y-12138174D01*
X16053515Y-12138174D02*
X16101134Y-12138174D01*
X16101134Y-12138174D02*
X16120182Y-12147698D01*
X16120182Y-12147698D02*
X16129705Y-12157222D01*
X16129705Y-12157222D02*
X16139229Y-12176269D01*
X16139229Y-12176269D02*
X16139229Y-12223888D01*
X16139229Y-12223888D02*
X16129705Y-12242936D01*
X16129705Y-12242936D02*
X16120182Y-12252460D01*
X16120182Y-12252460D02*
X16101134Y-12261984D01*
X16101134Y-12261984D02*
X16053515Y-12261984D01*
X16053515Y-12261984D02*
X16034467Y-12252460D01*
X16034467Y-12252460D02*
X16024943Y-12242936D01*
X16263039Y-12061984D02*
X16282086Y-12061984D01*
X16282086Y-12061984D02*
X16301134Y-12071508D01*
X16301134Y-12071508D02*
X16310658Y-12081031D01*
X16310658Y-12081031D02*
X16320182Y-12100079D01*
X16320182Y-12100079D02*
X16329705Y-12138174D01*
X16329705Y-12138174D02*
X16329705Y-12185793D01*
X16329705Y-12185793D02*
X16320182Y-12223888D01*
X16320182Y-12223888D02*
X16310658Y-12242936D01*
X16310658Y-12242936D02*
X16301134Y-12252460D01*
X16301134Y-12252460D02*
X16282086Y-12261984D01*
X16282086Y-12261984D02*
X16263039Y-12261984D01*
X16263039Y-12261984D02*
X16243991Y-12252460D01*
X16243991Y-12252460D02*
X16234467Y-12242936D01*
X16234467Y-12242936D02*
X16224943Y-12223888D01*
X16224943Y-12223888D02*
X16215420Y-12185793D01*
X16215420Y-12185793D02*
X16215420Y-12138174D01*
X16215420Y-12138174D02*
X16224943Y-12100079D01*
X16224943Y-12100079D02*
X16234467Y-12081031D01*
X16234467Y-12081031D02*
X16243991Y-12071508D01*
X16243991Y-12071508D02*
X16263039Y-12061984D01*
X16415420Y-12261984D02*
X16415420Y-12128650D01*
X16415420Y-12147698D02*
X16424943Y-12138174D01*
X16424943Y-12138174D02*
X16443991Y-12128650D01*
X16443991Y-12128650D02*
X16472563Y-12128650D01*
X16472563Y-12128650D02*
X16491610Y-12138174D01*
X16491610Y-12138174D02*
X16501134Y-12157222D01*
X16501134Y-12157222D02*
X16501134Y-12261984D01*
X16501134Y-12157222D02*
X16510658Y-12138174D01*
X16510658Y-12138174D02*
X16529705Y-12128650D01*
X16529705Y-12128650D02*
X16558277Y-12128650D01*
X16558277Y-12128650D02*
X16577324Y-12138174D01*
X16577324Y-12138174D02*
X16586848Y-12157222D01*
X16586848Y-12157222D02*
X16586848Y-12261984D01*
X16682086Y-12261984D02*
X16682086Y-12128650D01*
X16682086Y-12147698D02*
X16691610Y-12138174D01*
X16691610Y-12138174D02*
X16710658Y-12128650D01*
X16710658Y-12128650D02*
X16739229Y-12128650D01*
X16739229Y-12128650D02*
X16758277Y-12138174D01*
X16758277Y-12138174D02*
X16767801Y-12157222D01*
X16767801Y-12157222D02*
X16767801Y-12261984D01*
X16767801Y-12157222D02*
X16777325Y-12138174D01*
X16777325Y-12138174D02*
X16796372Y-12128650D01*
X16796372Y-12128650D02*
X16824944Y-12128650D01*
X16824944Y-12128650D02*
X16843991Y-12138174D01*
X16843991Y-12138174D02*
X16853515Y-12157222D01*
X16853515Y-12157222D02*
X16853515Y-12261984D01*
X17243991Y-12052460D02*
X17072563Y-12309603D01*
X17501134Y-12061984D02*
X17520182Y-12061984D01*
X17520182Y-12061984D02*
X17539229Y-12071508D01*
X17539229Y-12071508D02*
X17548753Y-12081031D01*
X17548753Y-12081031D02*
X17558277Y-12100079D01*
X17558277Y-12100079D02*
X17567801Y-12138174D01*
X17567801Y-12138174D02*
X17567801Y-12185793D01*
X17567801Y-12185793D02*
X17558277Y-12223888D01*
X17558277Y-12223888D02*
X17548753Y-12242936D01*
X17548753Y-12242936D02*
X17539229Y-12252460D01*
X17539229Y-12252460D02*
X17520182Y-12261984D01*
X17520182Y-12261984D02*
X17501134Y-12261984D01*
X17501134Y-12261984D02*
X17482087Y-12252460D01*
X17482087Y-12252460D02*
X17472563Y-12242936D01*
X17472563Y-12242936D02*
X17463039Y-12223888D01*
X17463039Y-12223888D02*
X17453515Y-12185793D01*
X17453515Y-12185793D02*
X17453515Y-12138174D01*
X17453515Y-12138174D02*
X17463039Y-12100079D01*
X17463039Y-12100079D02*
X17472563Y-12081031D01*
X17472563Y-12081031D02*
X17482087Y-12071508D01*
X17482087Y-12071508D02*
X17501134Y-12061984D01*
X17653515Y-12242936D02*
X17663039Y-12252460D01*
X17663039Y-12252460D02*
X17653515Y-12261984D01*
X17653515Y-12261984D02*
X17643991Y-12252460D01*
X17643991Y-12252460D02*
X17653515Y-12242936D01*
X17653515Y-12242936D02*
X17653515Y-12261984D01*
X17786848Y-12061984D02*
X17805896Y-12061984D01*
X17805896Y-12061984D02*
X17824944Y-12071508D01*
X17824944Y-12071508D02*
X17834468Y-12081031D01*
X17834468Y-12081031D02*
X17843991Y-12100079D01*
X17843991Y-12100079D02*
X17853515Y-12138174D01*
X17853515Y-12138174D02*
X17853515Y-12185793D01*
X17853515Y-12185793D02*
X17843991Y-12223888D01*
X17843991Y-12223888D02*
X17834468Y-12242936D01*
X17834468Y-12242936D02*
X17824944Y-12252460D01*
X17824944Y-12252460D02*
X17805896Y-12261984D01*
X17805896Y-12261984D02*
X17786848Y-12261984D01*
X17786848Y-12261984D02*
X17767801Y-12252460D01*
X17767801Y-12252460D02*
X17758277Y-12242936D01*
X17758277Y-12242936D02*
X17748753Y-12223888D01*
X17748753Y-12223888D02*
X17739229Y-12185793D01*
X17739229Y-12185793D02*
X17739229Y-12138174D01*
X17739229Y-12138174D02*
X17748753Y-12100079D01*
X17748753Y-12100079D02*
X17758277Y-12081031D01*
X17758277Y-12081031D02*
X17767801Y-12071508D01*
X17767801Y-12071508D02*
X17786848Y-12061984D01*
X17929706Y-12081031D02*
X17939229Y-12071508D01*
X17939229Y-12071508D02*
X17958277Y-12061984D01*
X17958277Y-12061984D02*
X18005896Y-12061984D01*
X18005896Y-12061984D02*
X18024944Y-12071508D01*
X18024944Y-12071508D02*
X18034468Y-12081031D01*
X18034468Y-12081031D02*
X18043991Y-12100079D01*
X18043991Y-12100079D02*
X18043991Y-12119127D01*
X18043991Y-12119127D02*
X18034468Y-12147698D01*
X18034468Y-12147698D02*
X17920182Y-12261984D01*
X17920182Y-12261984D02*
X18043991Y-12261984D01*
X18139229Y-12261984D02*
X18177325Y-12261984D01*
X18177325Y-12261984D02*
X18196372Y-12252460D01*
X18196372Y-12252460D02*
X18205896Y-12242936D01*
X18205896Y-12242936D02*
X18224944Y-12214365D01*
X18224944Y-12214365D02*
X18234468Y-12176269D01*
X18234468Y-12176269D02*
X18234468Y-12100079D01*
X18234468Y-12100079D02*
X18224944Y-12081031D01*
X18224944Y-12081031D02*
X18215420Y-12071508D01*
X18215420Y-12071508D02*
X18196372Y-12061984D01*
X18196372Y-12061984D02*
X18158277Y-12061984D01*
X18158277Y-12061984D02*
X18139229Y-12071508D01*
X18139229Y-12071508D02*
X18129706Y-12081031D01*
X18129706Y-12081031D02*
X18120182Y-12100079D01*
X18120182Y-12100079D02*
X18120182Y-12147698D01*
X18120182Y-12147698D02*
X18129706Y-12166746D01*
X18129706Y-12166746D02*
X18139229Y-12176269D01*
X18139229Y-12176269D02*
X18158277Y-12185793D01*
X18158277Y-12185793D02*
X18196372Y-12185793D01*
X18196372Y-12185793D02*
X18215420Y-12176269D01*
X18215420Y-12176269D02*
X18224944Y-12166746D01*
X18224944Y-12166746D02*
X18234468Y-12147698D01*
X18415420Y-12061984D02*
X18320182Y-12061984D01*
X18320182Y-12061984D02*
X18310658Y-12157222D01*
X18310658Y-12157222D02*
X18320182Y-12147698D01*
X18320182Y-12147698D02*
X18339229Y-12138174D01*
X18339229Y-12138174D02*
X18386849Y-12138174D01*
X18386849Y-12138174D02*
X18405896Y-12147698D01*
X18405896Y-12147698D02*
X18415420Y-12157222D01*
X18415420Y-12157222D02*
X18424944Y-12176269D01*
X18424944Y-12176269D02*
X18424944Y-12223888D01*
X18424944Y-12223888D02*
X18415420Y-12242936D01*
X18415420Y-12242936D02*
X18405896Y-12252460D01*
X18405896Y-12252460D02*
X18386849Y-12261984D01*
X18386849Y-12261984D02*
X18339229Y-12261984D01*
X18339229Y-12261984D02*
X18320182Y-12252460D01*
X18320182Y-12252460D02*
X18310658Y-12242936D01*
X18501134Y-12061984D02*
X18501134Y-12100079D01*
X18577325Y-12061984D02*
X18577325Y-12100079D01*
X18872563Y-12338174D02*
X18863039Y-12328650D01*
X18863039Y-12328650D02*
X18843991Y-12300079D01*
X18843991Y-12300079D02*
X18834468Y-12281031D01*
X18834468Y-12281031D02*
X18824944Y-12252460D01*
X18824944Y-12252460D02*
X18815420Y-12204841D01*
X18815420Y-12204841D02*
X18815420Y-12166746D01*
X18815420Y-12166746D02*
X18824944Y-12119127D01*
X18824944Y-12119127D02*
X18834468Y-12090555D01*
X18834468Y-12090555D02*
X18843991Y-12071508D01*
X18843991Y-12071508D02*
X18863039Y-12042936D01*
X18863039Y-12042936D02*
X18872563Y-12033412D01*
X18929706Y-12061984D02*
X19053515Y-12061984D01*
X19053515Y-12061984D02*
X18986849Y-12138174D01*
X18986849Y-12138174D02*
X19015420Y-12138174D01*
X19015420Y-12138174D02*
X19034468Y-12147698D01*
X19034468Y-12147698D02*
X19043991Y-12157222D01*
X19043991Y-12157222D02*
X19053515Y-12176269D01*
X19053515Y-12176269D02*
X19053515Y-12223888D01*
X19053515Y-12223888D02*
X19043991Y-12242936D01*
X19043991Y-12242936D02*
X19034468Y-12252460D01*
X19034468Y-12252460D02*
X19015420Y-12261984D01*
X19015420Y-12261984D02*
X18958277Y-12261984D01*
X18958277Y-12261984D02*
X18939230Y-12252460D01*
X18939230Y-12252460D02*
X18929706Y-12242936D01*
X19148753Y-12261984D02*
X19186849Y-12261984D01*
X19186849Y-12261984D02*
X19205896Y-12252460D01*
X19205896Y-12252460D02*
X19215420Y-12242936D01*
X19215420Y-12242936D02*
X19234468Y-12214365D01*
X19234468Y-12214365D02*
X19243991Y-12176269D01*
X19243991Y-12176269D02*
X19243991Y-12100079D01*
X19243991Y-12100079D02*
X19234468Y-12081031D01*
X19234468Y-12081031D02*
X19224944Y-12071508D01*
X19224944Y-12071508D02*
X19205896Y-12061984D01*
X19205896Y-12061984D02*
X19167801Y-12061984D01*
X19167801Y-12061984D02*
X19148753Y-12071508D01*
X19148753Y-12071508D02*
X19139230Y-12081031D01*
X19139230Y-12081031D02*
X19129706Y-12100079D01*
X19129706Y-12100079D02*
X19129706Y-12147698D01*
X19129706Y-12147698D02*
X19139230Y-12166746D01*
X19139230Y-12166746D02*
X19148753Y-12176269D01*
X19148753Y-12176269D02*
X19167801Y-12185793D01*
X19167801Y-12185793D02*
X19205896Y-12185793D01*
X19205896Y-12185793D02*
X19224944Y-12176269D01*
X19224944Y-12176269D02*
X19234468Y-12166746D01*
X19234468Y-12166746D02*
X19243991Y-12147698D01*
X19482087Y-12261984D02*
X19482087Y-12061984D01*
X19567801Y-12261984D02*
X19567801Y-12157222D01*
X19567801Y-12157222D02*
X19558277Y-12138174D01*
X19558277Y-12138174D02*
X19539230Y-12128650D01*
X19539230Y-12128650D02*
X19510658Y-12128650D01*
X19510658Y-12128650D02*
X19491611Y-12138174D01*
X19491611Y-12138174D02*
X19482087Y-12147698D01*
X19691611Y-12261984D02*
X19672563Y-12252460D01*
X19672563Y-12252460D02*
X19663039Y-12242936D01*
X19663039Y-12242936D02*
X19653515Y-12223888D01*
X19653515Y-12223888D02*
X19653515Y-12166746D01*
X19653515Y-12166746D02*
X19663039Y-12147698D01*
X19663039Y-12147698D02*
X19672563Y-12138174D01*
X19672563Y-12138174D02*
X19691611Y-12128650D01*
X19691611Y-12128650D02*
X19720182Y-12128650D01*
X19720182Y-12128650D02*
X19739230Y-12138174D01*
X19739230Y-12138174D02*
X19748753Y-12147698D01*
X19748753Y-12147698D02*
X19758277Y-12166746D01*
X19758277Y-12166746D02*
X19758277Y-12223888D01*
X19758277Y-12223888D02*
X19748753Y-12242936D01*
X19748753Y-12242936D02*
X19739230Y-12252460D01*
X19739230Y-12252460D02*
X19720182Y-12261984D01*
X19720182Y-12261984D02*
X19691611Y-12261984D01*
X19872563Y-12261984D02*
X19853515Y-12252460D01*
X19853515Y-12252460D02*
X19843992Y-12233412D01*
X19843992Y-12233412D02*
X19843992Y-12061984D01*
X20024944Y-12252460D02*
X20005896Y-12261984D01*
X20005896Y-12261984D02*
X19967801Y-12261984D01*
X19967801Y-12261984D02*
X19948753Y-12252460D01*
X19948753Y-12252460D02*
X19939230Y-12233412D01*
X19939230Y-12233412D02*
X19939230Y-12157222D01*
X19939230Y-12157222D02*
X19948753Y-12138174D01*
X19948753Y-12138174D02*
X19967801Y-12128650D01*
X19967801Y-12128650D02*
X20005896Y-12128650D01*
X20005896Y-12128650D02*
X20024944Y-12138174D01*
X20024944Y-12138174D02*
X20034468Y-12157222D01*
X20034468Y-12157222D02*
X20034468Y-12176269D01*
X20034468Y-12176269D02*
X19939230Y-12195317D01*
X20110658Y-12252460D02*
X20129706Y-12261984D01*
X20129706Y-12261984D02*
X20167801Y-12261984D01*
X20167801Y-12261984D02*
X20186849Y-12252460D01*
X20186849Y-12252460D02*
X20196373Y-12233412D01*
X20196373Y-12233412D02*
X20196373Y-12223888D01*
X20196373Y-12223888D02*
X20186849Y-12204841D01*
X20186849Y-12204841D02*
X20167801Y-12195317D01*
X20167801Y-12195317D02*
X20139230Y-12195317D01*
X20139230Y-12195317D02*
X20120182Y-12185793D01*
X20120182Y-12185793D02*
X20110658Y-12166746D01*
X20110658Y-12166746D02*
X20110658Y-12157222D01*
X20110658Y-12157222D02*
X20120182Y-12138174D01*
X20120182Y-12138174D02*
X20139230Y-12128650D01*
X20139230Y-12128650D02*
X20167801Y-12128650D01*
X20167801Y-12128650D02*
X20186849Y-12138174D01*
X20263039Y-12338174D02*
X20272563Y-12328650D01*
X20272563Y-12328650D02*
X20291611Y-12300079D01*
X20291611Y-12300079D02*
X20301134Y-12281031D01*
X20301134Y-12281031D02*
X20310658Y-12252460D01*
X20310658Y-12252460D02*
X20320182Y-12204841D01*
X20320182Y-12204841D02*
X20320182Y-12166746D01*
X20320182Y-12166746D02*
X20310658Y-12119127D01*
X20310658Y-12119127D02*
X20301134Y-12090555D01*
X20301134Y-12090555D02*
X20291611Y-12071508D01*
X20291611Y-12071508D02*
X20272563Y-12042936D01*
X20272563Y-12042936D02*
X20263039Y-12033412D01*
D12*
X15285784Y-12462784D02*
X15285784Y-12406215D01*
X15229215Y-12406215D01*
X15229215Y-12462784D01*
X15285784Y-12462784D01*
D11*
X15596372Y-12325984D02*
X15615420Y-12325984D01*
X15615420Y-12325984D02*
X15634467Y-12335508D01*
X15634467Y-12335508D02*
X15643991Y-12345031D01*
X15643991Y-12345031D02*
X15653515Y-12364079D01*
X15653515Y-12364079D02*
X15663039Y-12402174D01*
X15663039Y-12402174D02*
X15663039Y-12449793D01*
X15663039Y-12449793D02*
X15653515Y-12487888D01*
X15653515Y-12487888D02*
X15643991Y-12506936D01*
X15643991Y-12506936D02*
X15634467Y-12516460D01*
X15634467Y-12516460D02*
X15615420Y-12525984D01*
X15615420Y-12525984D02*
X15596372Y-12525984D01*
X15596372Y-12525984D02*
X15577324Y-12516460D01*
X15577324Y-12516460D02*
X15567801Y-12506936D01*
X15567801Y-12506936D02*
X15558277Y-12487888D01*
X15558277Y-12487888D02*
X15548753Y-12449793D01*
X15548753Y-12449793D02*
X15548753Y-12402174D01*
X15548753Y-12402174D02*
X15558277Y-12364079D01*
X15558277Y-12364079D02*
X15567801Y-12345031D01*
X15567801Y-12345031D02*
X15577324Y-12335508D01*
X15577324Y-12335508D02*
X15596372Y-12325984D01*
X15748753Y-12506936D02*
X15758277Y-12516460D01*
X15758277Y-12516460D02*
X15748753Y-12525984D01*
X15748753Y-12525984D02*
X15739229Y-12516460D01*
X15739229Y-12516460D02*
X15748753Y-12506936D01*
X15748753Y-12506936D02*
X15748753Y-12525984D01*
X15872562Y-12411698D02*
X15853515Y-12402174D01*
X15853515Y-12402174D02*
X15843991Y-12392650D01*
X15843991Y-12392650D02*
X15834467Y-12373603D01*
X15834467Y-12373603D02*
X15834467Y-12364079D01*
X15834467Y-12364079D02*
X15843991Y-12345031D01*
X15843991Y-12345031D02*
X15853515Y-12335508D01*
X15853515Y-12335508D02*
X15872562Y-12325984D01*
X15872562Y-12325984D02*
X15910658Y-12325984D01*
X15910658Y-12325984D02*
X15929705Y-12335508D01*
X15929705Y-12335508D02*
X15939229Y-12345031D01*
X15939229Y-12345031D02*
X15948753Y-12364079D01*
X15948753Y-12364079D02*
X15948753Y-12373603D01*
X15948753Y-12373603D02*
X15939229Y-12392650D01*
X15939229Y-12392650D02*
X15929705Y-12402174D01*
X15929705Y-12402174D02*
X15910658Y-12411698D01*
X15910658Y-12411698D02*
X15872562Y-12411698D01*
X15872562Y-12411698D02*
X15853515Y-12421222D01*
X15853515Y-12421222D02*
X15843991Y-12430746D01*
X15843991Y-12430746D02*
X15834467Y-12449793D01*
X15834467Y-12449793D02*
X15834467Y-12487888D01*
X15834467Y-12487888D02*
X15843991Y-12506936D01*
X15843991Y-12506936D02*
X15853515Y-12516460D01*
X15853515Y-12516460D02*
X15872562Y-12525984D01*
X15872562Y-12525984D02*
X15910658Y-12525984D01*
X15910658Y-12525984D02*
X15929705Y-12516460D01*
X15929705Y-12516460D02*
X15939229Y-12506936D01*
X15939229Y-12506936D02*
X15948753Y-12487888D01*
X15948753Y-12487888D02*
X15948753Y-12449793D01*
X15948753Y-12449793D02*
X15939229Y-12430746D01*
X15939229Y-12430746D02*
X15929705Y-12421222D01*
X15929705Y-12421222D02*
X15910658Y-12411698D01*
X16072562Y-12325984D02*
X16091610Y-12325984D01*
X16091610Y-12325984D02*
X16110658Y-12335508D01*
X16110658Y-12335508D02*
X16120182Y-12345031D01*
X16120182Y-12345031D02*
X16129705Y-12364079D01*
X16129705Y-12364079D02*
X16139229Y-12402174D01*
X16139229Y-12402174D02*
X16139229Y-12449793D01*
X16139229Y-12449793D02*
X16129705Y-12487888D01*
X16129705Y-12487888D02*
X16120182Y-12506936D01*
X16120182Y-12506936D02*
X16110658Y-12516460D01*
X16110658Y-12516460D02*
X16091610Y-12525984D01*
X16091610Y-12525984D02*
X16072562Y-12525984D01*
X16072562Y-12525984D02*
X16053515Y-12516460D01*
X16053515Y-12516460D02*
X16043991Y-12506936D01*
X16043991Y-12506936D02*
X16034467Y-12487888D01*
X16034467Y-12487888D02*
X16024943Y-12449793D01*
X16024943Y-12449793D02*
X16024943Y-12402174D01*
X16024943Y-12402174D02*
X16034467Y-12364079D01*
X16034467Y-12364079D02*
X16043991Y-12345031D01*
X16043991Y-12345031D02*
X16053515Y-12335508D01*
X16053515Y-12335508D02*
X16072562Y-12325984D01*
X16263039Y-12325984D02*
X16282086Y-12325984D01*
X16282086Y-12325984D02*
X16301134Y-12335508D01*
X16301134Y-12335508D02*
X16310658Y-12345031D01*
X16310658Y-12345031D02*
X16320182Y-12364079D01*
X16320182Y-12364079D02*
X16329705Y-12402174D01*
X16329705Y-12402174D02*
X16329705Y-12449793D01*
X16329705Y-12449793D02*
X16320182Y-12487888D01*
X16320182Y-12487888D02*
X16310658Y-12506936D01*
X16310658Y-12506936D02*
X16301134Y-12516460D01*
X16301134Y-12516460D02*
X16282086Y-12525984D01*
X16282086Y-12525984D02*
X16263039Y-12525984D01*
X16263039Y-12525984D02*
X16243991Y-12516460D01*
X16243991Y-12516460D02*
X16234467Y-12506936D01*
X16234467Y-12506936D02*
X16224943Y-12487888D01*
X16224943Y-12487888D02*
X16215420Y-12449793D01*
X16215420Y-12449793D02*
X16215420Y-12402174D01*
X16215420Y-12402174D02*
X16224943Y-12364079D01*
X16224943Y-12364079D02*
X16234467Y-12345031D01*
X16234467Y-12345031D02*
X16243991Y-12335508D01*
X16243991Y-12335508D02*
X16263039Y-12325984D01*
X16415420Y-12525984D02*
X16415420Y-12392650D01*
X16415420Y-12411698D02*
X16424943Y-12402174D01*
X16424943Y-12402174D02*
X16443991Y-12392650D01*
X16443991Y-12392650D02*
X16472563Y-12392650D01*
X16472563Y-12392650D02*
X16491610Y-12402174D01*
X16491610Y-12402174D02*
X16501134Y-12421222D01*
X16501134Y-12421222D02*
X16501134Y-12525984D01*
X16501134Y-12421222D02*
X16510658Y-12402174D01*
X16510658Y-12402174D02*
X16529705Y-12392650D01*
X16529705Y-12392650D02*
X16558277Y-12392650D01*
X16558277Y-12392650D02*
X16577324Y-12402174D01*
X16577324Y-12402174D02*
X16586848Y-12421222D01*
X16586848Y-12421222D02*
X16586848Y-12525984D01*
X16682086Y-12525984D02*
X16682086Y-12392650D01*
X16682086Y-12411698D02*
X16691610Y-12402174D01*
X16691610Y-12402174D02*
X16710658Y-12392650D01*
X16710658Y-12392650D02*
X16739229Y-12392650D01*
X16739229Y-12392650D02*
X16758277Y-12402174D01*
X16758277Y-12402174D02*
X16767801Y-12421222D01*
X16767801Y-12421222D02*
X16767801Y-12525984D01*
X16767801Y-12421222D02*
X16777325Y-12402174D01*
X16777325Y-12402174D02*
X16796372Y-12392650D01*
X16796372Y-12392650D02*
X16824944Y-12392650D01*
X16824944Y-12392650D02*
X16843991Y-12402174D01*
X16843991Y-12402174D02*
X16853515Y-12421222D01*
X16853515Y-12421222D02*
X16853515Y-12525984D01*
X17243991Y-12316460D02*
X17072563Y-12573603D01*
X17501134Y-12325984D02*
X17520182Y-12325984D01*
X17520182Y-12325984D02*
X17539229Y-12335508D01*
X17539229Y-12335508D02*
X17548753Y-12345031D01*
X17548753Y-12345031D02*
X17558277Y-12364079D01*
X17558277Y-12364079D02*
X17567801Y-12402174D01*
X17567801Y-12402174D02*
X17567801Y-12449793D01*
X17567801Y-12449793D02*
X17558277Y-12487888D01*
X17558277Y-12487888D02*
X17548753Y-12506936D01*
X17548753Y-12506936D02*
X17539229Y-12516460D01*
X17539229Y-12516460D02*
X17520182Y-12525984D01*
X17520182Y-12525984D02*
X17501134Y-12525984D01*
X17501134Y-12525984D02*
X17482087Y-12516460D01*
X17482087Y-12516460D02*
X17472563Y-12506936D01*
X17472563Y-12506936D02*
X17463039Y-12487888D01*
X17463039Y-12487888D02*
X17453515Y-12449793D01*
X17453515Y-12449793D02*
X17453515Y-12402174D01*
X17453515Y-12402174D02*
X17463039Y-12364079D01*
X17463039Y-12364079D02*
X17472563Y-12345031D01*
X17472563Y-12345031D02*
X17482087Y-12335508D01*
X17482087Y-12335508D02*
X17501134Y-12325984D01*
X17653515Y-12506936D02*
X17663039Y-12516460D01*
X17663039Y-12516460D02*
X17653515Y-12525984D01*
X17653515Y-12525984D02*
X17643991Y-12516460D01*
X17643991Y-12516460D02*
X17653515Y-12506936D01*
X17653515Y-12506936D02*
X17653515Y-12525984D01*
X17786848Y-12325984D02*
X17805896Y-12325984D01*
X17805896Y-12325984D02*
X17824944Y-12335508D01*
X17824944Y-12335508D02*
X17834468Y-12345031D01*
X17834468Y-12345031D02*
X17843991Y-12364079D01*
X17843991Y-12364079D02*
X17853515Y-12402174D01*
X17853515Y-12402174D02*
X17853515Y-12449793D01*
X17853515Y-12449793D02*
X17843991Y-12487888D01*
X17843991Y-12487888D02*
X17834468Y-12506936D01*
X17834468Y-12506936D02*
X17824944Y-12516460D01*
X17824944Y-12516460D02*
X17805896Y-12525984D01*
X17805896Y-12525984D02*
X17786848Y-12525984D01*
X17786848Y-12525984D02*
X17767801Y-12516460D01*
X17767801Y-12516460D02*
X17758277Y-12506936D01*
X17758277Y-12506936D02*
X17748753Y-12487888D01*
X17748753Y-12487888D02*
X17739229Y-12449793D01*
X17739229Y-12449793D02*
X17739229Y-12402174D01*
X17739229Y-12402174D02*
X17748753Y-12364079D01*
X17748753Y-12364079D02*
X17758277Y-12345031D01*
X17758277Y-12345031D02*
X17767801Y-12335508D01*
X17767801Y-12335508D02*
X17786848Y-12325984D01*
X17920182Y-12325984D02*
X18043991Y-12325984D01*
X18043991Y-12325984D02*
X17977325Y-12402174D01*
X17977325Y-12402174D02*
X18005896Y-12402174D01*
X18005896Y-12402174D02*
X18024944Y-12411698D01*
X18024944Y-12411698D02*
X18034468Y-12421222D01*
X18034468Y-12421222D02*
X18043991Y-12440269D01*
X18043991Y-12440269D02*
X18043991Y-12487888D01*
X18043991Y-12487888D02*
X18034468Y-12506936D01*
X18034468Y-12506936D02*
X18024944Y-12516460D01*
X18024944Y-12516460D02*
X18005896Y-12525984D01*
X18005896Y-12525984D02*
X17948753Y-12525984D01*
X17948753Y-12525984D02*
X17929706Y-12516460D01*
X17929706Y-12516460D02*
X17920182Y-12506936D01*
X18234468Y-12525984D02*
X18120182Y-12525984D01*
X18177325Y-12525984D02*
X18177325Y-12325984D01*
X18177325Y-12325984D02*
X18158277Y-12354555D01*
X18158277Y-12354555D02*
X18139229Y-12373603D01*
X18139229Y-12373603D02*
X18120182Y-12383127D01*
X18415420Y-12325984D02*
X18320182Y-12325984D01*
X18320182Y-12325984D02*
X18310658Y-12421222D01*
X18310658Y-12421222D02*
X18320182Y-12411698D01*
X18320182Y-12411698D02*
X18339229Y-12402174D01*
X18339229Y-12402174D02*
X18386849Y-12402174D01*
X18386849Y-12402174D02*
X18405896Y-12411698D01*
X18405896Y-12411698D02*
X18415420Y-12421222D01*
X18415420Y-12421222D02*
X18424944Y-12440269D01*
X18424944Y-12440269D02*
X18424944Y-12487888D01*
X18424944Y-12487888D02*
X18415420Y-12506936D01*
X18415420Y-12506936D02*
X18405896Y-12516460D01*
X18405896Y-12516460D02*
X18386849Y-12525984D01*
X18386849Y-12525984D02*
X18339229Y-12525984D01*
X18339229Y-12525984D02*
X18320182Y-12516460D01*
X18320182Y-12516460D02*
X18310658Y-12506936D01*
X18501134Y-12325984D02*
X18501134Y-12364079D01*
X18577325Y-12325984D02*
X18577325Y-12364079D01*
X18872563Y-12602174D02*
X18863039Y-12592650D01*
X18863039Y-12592650D02*
X18843991Y-12564079D01*
X18843991Y-12564079D02*
X18834468Y-12545031D01*
X18834468Y-12545031D02*
X18824944Y-12516460D01*
X18824944Y-12516460D02*
X18815420Y-12468841D01*
X18815420Y-12468841D02*
X18815420Y-12430746D01*
X18815420Y-12430746D02*
X18824944Y-12383127D01*
X18824944Y-12383127D02*
X18834468Y-12354555D01*
X18834468Y-12354555D02*
X18843991Y-12335508D01*
X18843991Y-12335508D02*
X18863039Y-12306936D01*
X18863039Y-12306936D02*
X18872563Y-12297412D01*
X19034468Y-12392650D02*
X19034468Y-12525984D01*
X18986849Y-12316460D02*
X18939230Y-12459317D01*
X18939230Y-12459317D02*
X19063039Y-12459317D01*
X19224944Y-12392650D02*
X19224944Y-12525984D01*
X19177325Y-12316460D02*
X19129706Y-12459317D01*
X19129706Y-12459317D02*
X19253515Y-12459317D01*
X19482087Y-12525984D02*
X19482087Y-12325984D01*
X19567801Y-12525984D02*
X19567801Y-12421222D01*
X19567801Y-12421222D02*
X19558277Y-12402174D01*
X19558277Y-12402174D02*
X19539230Y-12392650D01*
X19539230Y-12392650D02*
X19510658Y-12392650D01*
X19510658Y-12392650D02*
X19491611Y-12402174D01*
X19491611Y-12402174D02*
X19482087Y-12411698D01*
X19691611Y-12525984D02*
X19672563Y-12516460D01*
X19672563Y-12516460D02*
X19663039Y-12506936D01*
X19663039Y-12506936D02*
X19653515Y-12487888D01*
X19653515Y-12487888D02*
X19653515Y-12430746D01*
X19653515Y-12430746D02*
X19663039Y-12411698D01*
X19663039Y-12411698D02*
X19672563Y-12402174D01*
X19672563Y-12402174D02*
X19691611Y-12392650D01*
X19691611Y-12392650D02*
X19720182Y-12392650D01*
X19720182Y-12392650D02*
X19739230Y-12402174D01*
X19739230Y-12402174D02*
X19748753Y-12411698D01*
X19748753Y-12411698D02*
X19758277Y-12430746D01*
X19758277Y-12430746D02*
X19758277Y-12487888D01*
X19758277Y-12487888D02*
X19748753Y-12506936D01*
X19748753Y-12506936D02*
X19739230Y-12516460D01*
X19739230Y-12516460D02*
X19720182Y-12525984D01*
X19720182Y-12525984D02*
X19691611Y-12525984D01*
X19872563Y-12525984D02*
X19853515Y-12516460D01*
X19853515Y-12516460D02*
X19843992Y-12497412D01*
X19843992Y-12497412D02*
X19843992Y-12325984D01*
X20024944Y-12516460D02*
X20005896Y-12525984D01*
X20005896Y-12525984D02*
X19967801Y-12525984D01*
X19967801Y-12525984D02*
X19948753Y-12516460D01*
X19948753Y-12516460D02*
X19939230Y-12497412D01*
X19939230Y-12497412D02*
X19939230Y-12421222D01*
X19939230Y-12421222D02*
X19948753Y-12402174D01*
X19948753Y-12402174D02*
X19967801Y-12392650D01*
X19967801Y-12392650D02*
X20005896Y-12392650D01*
X20005896Y-12392650D02*
X20024944Y-12402174D01*
X20024944Y-12402174D02*
X20034468Y-12421222D01*
X20034468Y-12421222D02*
X20034468Y-12440269D01*
X20034468Y-12440269D02*
X19939230Y-12459317D01*
X20110658Y-12516460D02*
X20129706Y-12525984D01*
X20129706Y-12525984D02*
X20167801Y-12525984D01*
X20167801Y-12525984D02*
X20186849Y-12516460D01*
X20186849Y-12516460D02*
X20196373Y-12497412D01*
X20196373Y-12497412D02*
X20196373Y-12487888D01*
X20196373Y-12487888D02*
X20186849Y-12468841D01*
X20186849Y-12468841D02*
X20167801Y-12459317D01*
X20167801Y-12459317D02*
X20139230Y-12459317D01*
X20139230Y-12459317D02*
X20120182Y-12449793D01*
X20120182Y-12449793D02*
X20110658Y-12430746D01*
X20110658Y-12430746D02*
X20110658Y-12421222D01*
X20110658Y-12421222D02*
X20120182Y-12402174D01*
X20120182Y-12402174D02*
X20139230Y-12392650D01*
X20139230Y-12392650D02*
X20167801Y-12392650D01*
X20167801Y-12392650D02*
X20186849Y-12402174D01*
X20263039Y-12602174D02*
X20272563Y-12592650D01*
X20272563Y-12592650D02*
X20291611Y-12564079D01*
X20291611Y-12564079D02*
X20301134Y-12545031D01*
X20301134Y-12545031D02*
X20310658Y-12516460D01*
X20310658Y-12516460D02*
X20320182Y-12468841D01*
X20320182Y-12468841D02*
X20320182Y-12430746D01*
X20320182Y-12430746D02*
X20310658Y-12383127D01*
X20310658Y-12383127D02*
X20301134Y-12354555D01*
X20301134Y-12354555D02*
X20291611Y-12335508D01*
X20291611Y-12335508D02*
X20272563Y-12306936D01*
X20272563Y-12306936D02*
X20263039Y-12297412D01*
D12*
X15252500Y-12743500D02*
X15297500Y-12698500D01*
X15252500Y-12653500D01*
X15207500Y-12698500D01*
X15252500Y-12743500D01*
D11*
X15596372Y-12589984D02*
X15615420Y-12589984D01*
X15615420Y-12589984D02*
X15634467Y-12599508D01*
X15634467Y-12599508D02*
X15643991Y-12609031D01*
X15643991Y-12609031D02*
X15653515Y-12628079D01*
X15653515Y-12628079D02*
X15663039Y-12666174D01*
X15663039Y-12666174D02*
X15663039Y-12713793D01*
X15663039Y-12713793D02*
X15653515Y-12751888D01*
X15653515Y-12751888D02*
X15643991Y-12770936D01*
X15643991Y-12770936D02*
X15634467Y-12780460D01*
X15634467Y-12780460D02*
X15615420Y-12789984D01*
X15615420Y-12789984D02*
X15596372Y-12789984D01*
X15596372Y-12789984D02*
X15577324Y-12780460D01*
X15577324Y-12780460D02*
X15567801Y-12770936D01*
X15567801Y-12770936D02*
X15558277Y-12751888D01*
X15558277Y-12751888D02*
X15548753Y-12713793D01*
X15548753Y-12713793D02*
X15548753Y-12666174D01*
X15548753Y-12666174D02*
X15558277Y-12628079D01*
X15558277Y-12628079D02*
X15567801Y-12609031D01*
X15567801Y-12609031D02*
X15577324Y-12599508D01*
X15577324Y-12599508D02*
X15596372Y-12589984D01*
X15748753Y-12770936D02*
X15758277Y-12780460D01*
X15758277Y-12780460D02*
X15748753Y-12789984D01*
X15748753Y-12789984D02*
X15739229Y-12780460D01*
X15739229Y-12780460D02*
X15748753Y-12770936D01*
X15748753Y-12770936D02*
X15748753Y-12789984D01*
X15853515Y-12789984D02*
X15891610Y-12789984D01*
X15891610Y-12789984D02*
X15910658Y-12780460D01*
X15910658Y-12780460D02*
X15920182Y-12770936D01*
X15920182Y-12770936D02*
X15939229Y-12742365D01*
X15939229Y-12742365D02*
X15948753Y-12704269D01*
X15948753Y-12704269D02*
X15948753Y-12628079D01*
X15948753Y-12628079D02*
X15939229Y-12609031D01*
X15939229Y-12609031D02*
X15929705Y-12599508D01*
X15929705Y-12599508D02*
X15910658Y-12589984D01*
X15910658Y-12589984D02*
X15872562Y-12589984D01*
X15872562Y-12589984D02*
X15853515Y-12599508D01*
X15853515Y-12599508D02*
X15843991Y-12609031D01*
X15843991Y-12609031D02*
X15834467Y-12628079D01*
X15834467Y-12628079D02*
X15834467Y-12675698D01*
X15834467Y-12675698D02*
X15843991Y-12694746D01*
X15843991Y-12694746D02*
X15853515Y-12704269D01*
X15853515Y-12704269D02*
X15872562Y-12713793D01*
X15872562Y-12713793D02*
X15910658Y-12713793D01*
X15910658Y-12713793D02*
X15929705Y-12704269D01*
X15929705Y-12704269D02*
X15939229Y-12694746D01*
X15939229Y-12694746D02*
X15948753Y-12675698D01*
X16072562Y-12589984D02*
X16091610Y-12589984D01*
X16091610Y-12589984D02*
X16110658Y-12599508D01*
X16110658Y-12599508D02*
X16120182Y-12609031D01*
X16120182Y-12609031D02*
X16129705Y-12628079D01*
X16129705Y-12628079D02*
X16139229Y-12666174D01*
X16139229Y-12666174D02*
X16139229Y-12713793D01*
X16139229Y-12713793D02*
X16129705Y-12751888D01*
X16129705Y-12751888D02*
X16120182Y-12770936D01*
X16120182Y-12770936D02*
X16110658Y-12780460D01*
X16110658Y-12780460D02*
X16091610Y-12789984D01*
X16091610Y-12789984D02*
X16072562Y-12789984D01*
X16072562Y-12789984D02*
X16053515Y-12780460D01*
X16053515Y-12780460D02*
X16043991Y-12770936D01*
X16043991Y-12770936D02*
X16034467Y-12751888D01*
X16034467Y-12751888D02*
X16024943Y-12713793D01*
X16024943Y-12713793D02*
X16024943Y-12666174D01*
X16024943Y-12666174D02*
X16034467Y-12628079D01*
X16034467Y-12628079D02*
X16043991Y-12609031D01*
X16043991Y-12609031D02*
X16053515Y-12599508D01*
X16053515Y-12599508D02*
X16072562Y-12589984D01*
X16263039Y-12589984D02*
X16282086Y-12589984D01*
X16282086Y-12589984D02*
X16301134Y-12599508D01*
X16301134Y-12599508D02*
X16310658Y-12609031D01*
X16310658Y-12609031D02*
X16320182Y-12628079D01*
X16320182Y-12628079D02*
X16329705Y-12666174D01*
X16329705Y-12666174D02*
X16329705Y-12713793D01*
X16329705Y-12713793D02*
X16320182Y-12751888D01*
X16320182Y-12751888D02*
X16310658Y-12770936D01*
X16310658Y-12770936D02*
X16301134Y-12780460D01*
X16301134Y-12780460D02*
X16282086Y-12789984D01*
X16282086Y-12789984D02*
X16263039Y-12789984D01*
X16263039Y-12789984D02*
X16243991Y-12780460D01*
X16243991Y-12780460D02*
X16234467Y-12770936D01*
X16234467Y-12770936D02*
X16224943Y-12751888D01*
X16224943Y-12751888D02*
X16215420Y-12713793D01*
X16215420Y-12713793D02*
X16215420Y-12666174D01*
X16215420Y-12666174D02*
X16224943Y-12628079D01*
X16224943Y-12628079D02*
X16234467Y-12609031D01*
X16234467Y-12609031D02*
X16243991Y-12599508D01*
X16243991Y-12599508D02*
X16263039Y-12589984D01*
X16415420Y-12789984D02*
X16415420Y-12656650D01*
X16415420Y-12675698D02*
X16424943Y-12666174D01*
X16424943Y-12666174D02*
X16443991Y-12656650D01*
X16443991Y-12656650D02*
X16472563Y-12656650D01*
X16472563Y-12656650D02*
X16491610Y-12666174D01*
X16491610Y-12666174D02*
X16501134Y-12685222D01*
X16501134Y-12685222D02*
X16501134Y-12789984D01*
X16501134Y-12685222D02*
X16510658Y-12666174D01*
X16510658Y-12666174D02*
X16529705Y-12656650D01*
X16529705Y-12656650D02*
X16558277Y-12656650D01*
X16558277Y-12656650D02*
X16577324Y-12666174D01*
X16577324Y-12666174D02*
X16586848Y-12685222D01*
X16586848Y-12685222D02*
X16586848Y-12789984D01*
X16682086Y-12789984D02*
X16682086Y-12656650D01*
X16682086Y-12675698D02*
X16691610Y-12666174D01*
X16691610Y-12666174D02*
X16710658Y-12656650D01*
X16710658Y-12656650D02*
X16739229Y-12656650D01*
X16739229Y-12656650D02*
X16758277Y-12666174D01*
X16758277Y-12666174D02*
X16767801Y-12685222D01*
X16767801Y-12685222D02*
X16767801Y-12789984D01*
X16767801Y-12685222D02*
X16777325Y-12666174D01*
X16777325Y-12666174D02*
X16796372Y-12656650D01*
X16796372Y-12656650D02*
X16824944Y-12656650D01*
X16824944Y-12656650D02*
X16843991Y-12666174D01*
X16843991Y-12666174D02*
X16853515Y-12685222D01*
X16853515Y-12685222D02*
X16853515Y-12789984D01*
X17243991Y-12580460D02*
X17072563Y-12837603D01*
X17501134Y-12589984D02*
X17520182Y-12589984D01*
X17520182Y-12589984D02*
X17539229Y-12599508D01*
X17539229Y-12599508D02*
X17548753Y-12609031D01*
X17548753Y-12609031D02*
X17558277Y-12628079D01*
X17558277Y-12628079D02*
X17567801Y-12666174D01*
X17567801Y-12666174D02*
X17567801Y-12713793D01*
X17567801Y-12713793D02*
X17558277Y-12751888D01*
X17558277Y-12751888D02*
X17548753Y-12770936D01*
X17548753Y-12770936D02*
X17539229Y-12780460D01*
X17539229Y-12780460D02*
X17520182Y-12789984D01*
X17520182Y-12789984D02*
X17501134Y-12789984D01*
X17501134Y-12789984D02*
X17482087Y-12780460D01*
X17482087Y-12780460D02*
X17472563Y-12770936D01*
X17472563Y-12770936D02*
X17463039Y-12751888D01*
X17463039Y-12751888D02*
X17453515Y-12713793D01*
X17453515Y-12713793D02*
X17453515Y-12666174D01*
X17453515Y-12666174D02*
X17463039Y-12628079D01*
X17463039Y-12628079D02*
X17472563Y-12609031D01*
X17472563Y-12609031D02*
X17482087Y-12599508D01*
X17482087Y-12599508D02*
X17501134Y-12589984D01*
X17653515Y-12770936D02*
X17663039Y-12780460D01*
X17663039Y-12780460D02*
X17653515Y-12789984D01*
X17653515Y-12789984D02*
X17643991Y-12780460D01*
X17643991Y-12780460D02*
X17653515Y-12770936D01*
X17653515Y-12770936D02*
X17653515Y-12789984D01*
X17786848Y-12589984D02*
X17805896Y-12589984D01*
X17805896Y-12589984D02*
X17824944Y-12599508D01*
X17824944Y-12599508D02*
X17834468Y-12609031D01*
X17834468Y-12609031D02*
X17843991Y-12628079D01*
X17843991Y-12628079D02*
X17853515Y-12666174D01*
X17853515Y-12666174D02*
X17853515Y-12713793D01*
X17853515Y-12713793D02*
X17843991Y-12751888D01*
X17843991Y-12751888D02*
X17834468Y-12770936D01*
X17834468Y-12770936D02*
X17824944Y-12780460D01*
X17824944Y-12780460D02*
X17805896Y-12789984D01*
X17805896Y-12789984D02*
X17786848Y-12789984D01*
X17786848Y-12789984D02*
X17767801Y-12780460D01*
X17767801Y-12780460D02*
X17758277Y-12770936D01*
X17758277Y-12770936D02*
X17748753Y-12751888D01*
X17748753Y-12751888D02*
X17739229Y-12713793D01*
X17739229Y-12713793D02*
X17739229Y-12666174D01*
X17739229Y-12666174D02*
X17748753Y-12628079D01*
X17748753Y-12628079D02*
X17758277Y-12609031D01*
X17758277Y-12609031D02*
X17767801Y-12599508D01*
X17767801Y-12599508D02*
X17786848Y-12589984D01*
X17920182Y-12589984D02*
X18043991Y-12589984D01*
X18043991Y-12589984D02*
X17977325Y-12666174D01*
X17977325Y-12666174D02*
X18005896Y-12666174D01*
X18005896Y-12666174D02*
X18024944Y-12675698D01*
X18024944Y-12675698D02*
X18034468Y-12685222D01*
X18034468Y-12685222D02*
X18043991Y-12704269D01*
X18043991Y-12704269D02*
X18043991Y-12751888D01*
X18043991Y-12751888D02*
X18034468Y-12770936D01*
X18034468Y-12770936D02*
X18024944Y-12780460D01*
X18024944Y-12780460D02*
X18005896Y-12789984D01*
X18005896Y-12789984D02*
X17948753Y-12789984D01*
X17948753Y-12789984D02*
X17929706Y-12780460D01*
X17929706Y-12780460D02*
X17920182Y-12770936D01*
X18224944Y-12589984D02*
X18129706Y-12589984D01*
X18129706Y-12589984D02*
X18120182Y-12685222D01*
X18120182Y-12685222D02*
X18129706Y-12675698D01*
X18129706Y-12675698D02*
X18148753Y-12666174D01*
X18148753Y-12666174D02*
X18196372Y-12666174D01*
X18196372Y-12666174D02*
X18215420Y-12675698D01*
X18215420Y-12675698D02*
X18224944Y-12685222D01*
X18224944Y-12685222D02*
X18234468Y-12704269D01*
X18234468Y-12704269D02*
X18234468Y-12751888D01*
X18234468Y-12751888D02*
X18224944Y-12770936D01*
X18224944Y-12770936D02*
X18215420Y-12780460D01*
X18215420Y-12780460D02*
X18196372Y-12789984D01*
X18196372Y-12789984D02*
X18148753Y-12789984D01*
X18148753Y-12789984D02*
X18129706Y-12780460D01*
X18129706Y-12780460D02*
X18120182Y-12770936D01*
X18405896Y-12656650D02*
X18405896Y-12789984D01*
X18358277Y-12580460D02*
X18310658Y-12723317D01*
X18310658Y-12723317D02*
X18434468Y-12723317D01*
X18501134Y-12589984D02*
X18501134Y-12628079D01*
X18577325Y-12589984D02*
X18577325Y-12628079D01*
X18872563Y-12866174D02*
X18863039Y-12856650D01*
X18863039Y-12856650D02*
X18843991Y-12828079D01*
X18843991Y-12828079D02*
X18834468Y-12809031D01*
X18834468Y-12809031D02*
X18824944Y-12780460D01*
X18824944Y-12780460D02*
X18815420Y-12732841D01*
X18815420Y-12732841D02*
X18815420Y-12694746D01*
X18815420Y-12694746D02*
X18824944Y-12647127D01*
X18824944Y-12647127D02*
X18834468Y-12618555D01*
X18834468Y-12618555D02*
X18843991Y-12599508D01*
X18843991Y-12599508D02*
X18863039Y-12570936D01*
X18863039Y-12570936D02*
X18872563Y-12561412D01*
X19053515Y-12789984D02*
X18939230Y-12789984D01*
X18996372Y-12789984D02*
X18996372Y-12589984D01*
X18996372Y-12589984D02*
X18977325Y-12618555D01*
X18977325Y-12618555D02*
X18958277Y-12637603D01*
X18958277Y-12637603D02*
X18939230Y-12647127D01*
X19177325Y-12589984D02*
X19196372Y-12589984D01*
X19196372Y-12589984D02*
X19215420Y-12599508D01*
X19215420Y-12599508D02*
X19224944Y-12609031D01*
X19224944Y-12609031D02*
X19234468Y-12628079D01*
X19234468Y-12628079D02*
X19243991Y-12666174D01*
X19243991Y-12666174D02*
X19243991Y-12713793D01*
X19243991Y-12713793D02*
X19234468Y-12751888D01*
X19234468Y-12751888D02*
X19224944Y-12770936D01*
X19224944Y-12770936D02*
X19215420Y-12780460D01*
X19215420Y-12780460D02*
X19196372Y-12789984D01*
X19196372Y-12789984D02*
X19177325Y-12789984D01*
X19177325Y-12789984D02*
X19158277Y-12780460D01*
X19158277Y-12780460D02*
X19148753Y-12770936D01*
X19148753Y-12770936D02*
X19139230Y-12751888D01*
X19139230Y-12751888D02*
X19129706Y-12713793D01*
X19129706Y-12713793D02*
X19129706Y-12666174D01*
X19129706Y-12666174D02*
X19139230Y-12628079D01*
X19139230Y-12628079D02*
X19148753Y-12609031D01*
X19148753Y-12609031D02*
X19158277Y-12599508D01*
X19158277Y-12599508D02*
X19177325Y-12589984D01*
X19482087Y-12789984D02*
X19482087Y-12589984D01*
X19567801Y-12789984D02*
X19567801Y-12685222D01*
X19567801Y-12685222D02*
X19558277Y-12666174D01*
X19558277Y-12666174D02*
X19539230Y-12656650D01*
X19539230Y-12656650D02*
X19510658Y-12656650D01*
X19510658Y-12656650D02*
X19491611Y-12666174D01*
X19491611Y-12666174D02*
X19482087Y-12675698D01*
X19691611Y-12789984D02*
X19672563Y-12780460D01*
X19672563Y-12780460D02*
X19663039Y-12770936D01*
X19663039Y-12770936D02*
X19653515Y-12751888D01*
X19653515Y-12751888D02*
X19653515Y-12694746D01*
X19653515Y-12694746D02*
X19663039Y-12675698D01*
X19663039Y-12675698D02*
X19672563Y-12666174D01*
X19672563Y-12666174D02*
X19691611Y-12656650D01*
X19691611Y-12656650D02*
X19720182Y-12656650D01*
X19720182Y-12656650D02*
X19739230Y-12666174D01*
X19739230Y-12666174D02*
X19748753Y-12675698D01*
X19748753Y-12675698D02*
X19758277Y-12694746D01*
X19758277Y-12694746D02*
X19758277Y-12751888D01*
X19758277Y-12751888D02*
X19748753Y-12770936D01*
X19748753Y-12770936D02*
X19739230Y-12780460D01*
X19739230Y-12780460D02*
X19720182Y-12789984D01*
X19720182Y-12789984D02*
X19691611Y-12789984D01*
X19872563Y-12789984D02*
X19853515Y-12780460D01*
X19853515Y-12780460D02*
X19843992Y-12761412D01*
X19843992Y-12761412D02*
X19843992Y-12589984D01*
X20024944Y-12780460D02*
X20005896Y-12789984D01*
X20005896Y-12789984D02*
X19967801Y-12789984D01*
X19967801Y-12789984D02*
X19948753Y-12780460D01*
X19948753Y-12780460D02*
X19939230Y-12761412D01*
X19939230Y-12761412D02*
X19939230Y-12685222D01*
X19939230Y-12685222D02*
X19948753Y-12666174D01*
X19948753Y-12666174D02*
X19967801Y-12656650D01*
X19967801Y-12656650D02*
X20005896Y-12656650D01*
X20005896Y-12656650D02*
X20024944Y-12666174D01*
X20024944Y-12666174D02*
X20034468Y-12685222D01*
X20034468Y-12685222D02*
X20034468Y-12704269D01*
X20034468Y-12704269D02*
X19939230Y-12723317D01*
X20110658Y-12780460D02*
X20129706Y-12789984D01*
X20129706Y-12789984D02*
X20167801Y-12789984D01*
X20167801Y-12789984D02*
X20186849Y-12780460D01*
X20186849Y-12780460D02*
X20196373Y-12761412D01*
X20196373Y-12761412D02*
X20196373Y-12751888D01*
X20196373Y-12751888D02*
X20186849Y-12732841D01*
X20186849Y-12732841D02*
X20167801Y-12723317D01*
X20167801Y-12723317D02*
X20139230Y-12723317D01*
X20139230Y-12723317D02*
X20120182Y-12713793D01*
X20120182Y-12713793D02*
X20110658Y-12694746D01*
X20110658Y-12694746D02*
X20110658Y-12685222D01*
X20110658Y-12685222D02*
X20120182Y-12666174D01*
X20120182Y-12666174D02*
X20139230Y-12656650D01*
X20139230Y-12656650D02*
X20167801Y-12656650D01*
X20167801Y-12656650D02*
X20186849Y-12666174D01*
X20263039Y-12866174D02*
X20272563Y-12856650D01*
X20272563Y-12856650D02*
X20291611Y-12828079D01*
X20291611Y-12828079D02*
X20301134Y-12809031D01*
X20301134Y-12809031D02*
X20310658Y-12780460D01*
X20310658Y-12780460D02*
X20320182Y-12732841D01*
X20320182Y-12732841D02*
X20320182Y-12694746D01*
X20320182Y-12694746D02*
X20310658Y-12647127D01*
X20310658Y-12647127D02*
X20301134Y-12618555D01*
X20301134Y-12618555D02*
X20291611Y-12599508D01*
X20291611Y-12599508D02*
X20272563Y-12570936D01*
X20272563Y-12570936D02*
X20263039Y-12561412D01*
D13*
X15187500Y-12907500D02*
X15297500Y-13017500D01*
X15297500Y-12907500D02*
X15187500Y-13017500D01*
X15297500Y-12962500D02*
G75*
G02*
X15187500Y-12962500I-55000J0D01*
G01*
X15187500Y-12962500D02*
G75*
G02*
X15297500Y-12962500I55000J0D01*
G01*
D11*
X15663039Y-13053984D02*
X15548753Y-13053984D01*
X15605896Y-13053984D02*
X15605896Y-12853984D01*
X15605896Y-12853984D02*
X15586848Y-12882555D01*
X15586848Y-12882555D02*
X15567801Y-12901603D01*
X15567801Y-12901603D02*
X15548753Y-12911127D01*
X15748753Y-13034936D02*
X15758277Y-13044460D01*
X15758277Y-13044460D02*
X15748753Y-13053984D01*
X15748753Y-13053984D02*
X15739229Y-13044460D01*
X15739229Y-13044460D02*
X15748753Y-13034936D01*
X15748753Y-13034936D02*
X15748753Y-13053984D01*
X15948753Y-13053984D02*
X15834467Y-13053984D01*
X15891610Y-13053984D02*
X15891610Y-12853984D01*
X15891610Y-12853984D02*
X15872562Y-12882555D01*
X15872562Y-12882555D02*
X15853515Y-12901603D01*
X15853515Y-12901603D02*
X15834467Y-12911127D01*
X16072562Y-12853984D02*
X16091610Y-12853984D01*
X16091610Y-12853984D02*
X16110658Y-12863508D01*
X16110658Y-12863508D02*
X16120182Y-12873031D01*
X16120182Y-12873031D02*
X16129705Y-12892079D01*
X16129705Y-12892079D02*
X16139229Y-12930174D01*
X16139229Y-12930174D02*
X16139229Y-12977793D01*
X16139229Y-12977793D02*
X16129705Y-13015888D01*
X16129705Y-13015888D02*
X16120182Y-13034936D01*
X16120182Y-13034936D02*
X16110658Y-13044460D01*
X16110658Y-13044460D02*
X16091610Y-13053984D01*
X16091610Y-13053984D02*
X16072562Y-13053984D01*
X16072562Y-13053984D02*
X16053515Y-13044460D01*
X16053515Y-13044460D02*
X16043991Y-13034936D01*
X16043991Y-13034936D02*
X16034467Y-13015888D01*
X16034467Y-13015888D02*
X16024943Y-12977793D01*
X16024943Y-12977793D02*
X16024943Y-12930174D01*
X16024943Y-12930174D02*
X16034467Y-12892079D01*
X16034467Y-12892079D02*
X16043991Y-12873031D01*
X16043991Y-12873031D02*
X16053515Y-12863508D01*
X16053515Y-12863508D02*
X16072562Y-12853984D01*
X16263039Y-12853984D02*
X16282086Y-12853984D01*
X16282086Y-12853984D02*
X16301134Y-12863508D01*
X16301134Y-12863508D02*
X16310658Y-12873031D01*
X16310658Y-12873031D02*
X16320182Y-12892079D01*
X16320182Y-12892079D02*
X16329705Y-12930174D01*
X16329705Y-12930174D02*
X16329705Y-12977793D01*
X16329705Y-12977793D02*
X16320182Y-13015888D01*
X16320182Y-13015888D02*
X16310658Y-13034936D01*
X16310658Y-13034936D02*
X16301134Y-13044460D01*
X16301134Y-13044460D02*
X16282086Y-13053984D01*
X16282086Y-13053984D02*
X16263039Y-13053984D01*
X16263039Y-13053984D02*
X16243991Y-13044460D01*
X16243991Y-13044460D02*
X16234467Y-13034936D01*
X16234467Y-13034936D02*
X16224943Y-13015888D01*
X16224943Y-13015888D02*
X16215420Y-12977793D01*
X16215420Y-12977793D02*
X16215420Y-12930174D01*
X16215420Y-12930174D02*
X16224943Y-12892079D01*
X16224943Y-12892079D02*
X16234467Y-12873031D01*
X16234467Y-12873031D02*
X16243991Y-12863508D01*
X16243991Y-12863508D02*
X16263039Y-12853984D01*
X16415420Y-13053984D02*
X16415420Y-12920650D01*
X16415420Y-12939698D02*
X16424943Y-12930174D01*
X16424943Y-12930174D02*
X16443991Y-12920650D01*
X16443991Y-12920650D02*
X16472563Y-12920650D01*
X16472563Y-12920650D02*
X16491610Y-12930174D01*
X16491610Y-12930174D02*
X16501134Y-12949222D01*
X16501134Y-12949222D02*
X16501134Y-13053984D01*
X16501134Y-12949222D02*
X16510658Y-12930174D01*
X16510658Y-12930174D02*
X16529705Y-12920650D01*
X16529705Y-12920650D02*
X16558277Y-12920650D01*
X16558277Y-12920650D02*
X16577324Y-12930174D01*
X16577324Y-12930174D02*
X16586848Y-12949222D01*
X16586848Y-12949222D02*
X16586848Y-13053984D01*
X16682086Y-13053984D02*
X16682086Y-12920650D01*
X16682086Y-12939698D02*
X16691610Y-12930174D01*
X16691610Y-12930174D02*
X16710658Y-12920650D01*
X16710658Y-12920650D02*
X16739229Y-12920650D01*
X16739229Y-12920650D02*
X16758277Y-12930174D01*
X16758277Y-12930174D02*
X16767801Y-12949222D01*
X16767801Y-12949222D02*
X16767801Y-13053984D01*
X16767801Y-12949222D02*
X16777325Y-12930174D01*
X16777325Y-12930174D02*
X16796372Y-12920650D01*
X16796372Y-12920650D02*
X16824944Y-12920650D01*
X16824944Y-12920650D02*
X16843991Y-12930174D01*
X16843991Y-12930174D02*
X16853515Y-12949222D01*
X16853515Y-12949222D02*
X16853515Y-13053984D01*
X17243991Y-12844460D02*
X17072563Y-13101603D01*
X17501134Y-12853984D02*
X17520182Y-12853984D01*
X17520182Y-12853984D02*
X17539229Y-12863508D01*
X17539229Y-12863508D02*
X17548753Y-12873031D01*
X17548753Y-12873031D02*
X17558277Y-12892079D01*
X17558277Y-12892079D02*
X17567801Y-12930174D01*
X17567801Y-12930174D02*
X17567801Y-12977793D01*
X17567801Y-12977793D02*
X17558277Y-13015888D01*
X17558277Y-13015888D02*
X17548753Y-13034936D01*
X17548753Y-13034936D02*
X17539229Y-13044460D01*
X17539229Y-13044460D02*
X17520182Y-13053984D01*
X17520182Y-13053984D02*
X17501134Y-13053984D01*
X17501134Y-13053984D02*
X17482087Y-13044460D01*
X17482087Y-13044460D02*
X17472563Y-13034936D01*
X17472563Y-13034936D02*
X17463039Y-13015888D01*
X17463039Y-13015888D02*
X17453515Y-12977793D01*
X17453515Y-12977793D02*
X17453515Y-12930174D01*
X17453515Y-12930174D02*
X17463039Y-12892079D01*
X17463039Y-12892079D02*
X17472563Y-12873031D01*
X17472563Y-12873031D02*
X17482087Y-12863508D01*
X17482087Y-12863508D02*
X17501134Y-12853984D01*
X17653515Y-13034936D02*
X17663039Y-13044460D01*
X17663039Y-13044460D02*
X17653515Y-13053984D01*
X17653515Y-13053984D02*
X17643991Y-13044460D01*
X17643991Y-13044460D02*
X17653515Y-13034936D01*
X17653515Y-13034936D02*
X17653515Y-13053984D01*
X17786848Y-12853984D02*
X17805896Y-12853984D01*
X17805896Y-12853984D02*
X17824944Y-12863508D01*
X17824944Y-12863508D02*
X17834468Y-12873031D01*
X17834468Y-12873031D02*
X17843991Y-12892079D01*
X17843991Y-12892079D02*
X17853515Y-12930174D01*
X17853515Y-12930174D02*
X17853515Y-12977793D01*
X17853515Y-12977793D02*
X17843991Y-13015888D01*
X17843991Y-13015888D02*
X17834468Y-13034936D01*
X17834468Y-13034936D02*
X17824944Y-13044460D01*
X17824944Y-13044460D02*
X17805896Y-13053984D01*
X17805896Y-13053984D02*
X17786848Y-13053984D01*
X17786848Y-13053984D02*
X17767801Y-13044460D01*
X17767801Y-13044460D02*
X17758277Y-13034936D01*
X17758277Y-13034936D02*
X17748753Y-13015888D01*
X17748753Y-13015888D02*
X17739229Y-12977793D01*
X17739229Y-12977793D02*
X17739229Y-12930174D01*
X17739229Y-12930174D02*
X17748753Y-12892079D01*
X17748753Y-12892079D02*
X17758277Y-12873031D01*
X17758277Y-12873031D02*
X17767801Y-12863508D01*
X17767801Y-12863508D02*
X17786848Y-12853984D01*
X18024944Y-12920650D02*
X18024944Y-13053984D01*
X17977325Y-12844460D02*
X17929706Y-12987317D01*
X17929706Y-12987317D02*
X18053515Y-12987317D01*
X18110658Y-12853984D02*
X18234468Y-12853984D01*
X18234468Y-12853984D02*
X18167801Y-12930174D01*
X18167801Y-12930174D02*
X18196372Y-12930174D01*
X18196372Y-12930174D02*
X18215420Y-12939698D01*
X18215420Y-12939698D02*
X18224944Y-12949222D01*
X18224944Y-12949222D02*
X18234468Y-12968269D01*
X18234468Y-12968269D02*
X18234468Y-13015888D01*
X18234468Y-13015888D02*
X18224944Y-13034936D01*
X18224944Y-13034936D02*
X18215420Y-13044460D01*
X18215420Y-13044460D02*
X18196372Y-13053984D01*
X18196372Y-13053984D02*
X18139229Y-13053984D01*
X18139229Y-13053984D02*
X18120182Y-13044460D01*
X18120182Y-13044460D02*
X18110658Y-13034936D01*
X18301134Y-12853984D02*
X18424944Y-12853984D01*
X18424944Y-12853984D02*
X18358277Y-12930174D01*
X18358277Y-12930174D02*
X18386849Y-12930174D01*
X18386849Y-12930174D02*
X18405896Y-12939698D01*
X18405896Y-12939698D02*
X18415420Y-12949222D01*
X18415420Y-12949222D02*
X18424944Y-12968269D01*
X18424944Y-12968269D02*
X18424944Y-13015888D01*
X18424944Y-13015888D02*
X18415420Y-13034936D01*
X18415420Y-13034936D02*
X18405896Y-13044460D01*
X18405896Y-13044460D02*
X18386849Y-13053984D01*
X18386849Y-13053984D02*
X18329706Y-13053984D01*
X18329706Y-13053984D02*
X18310658Y-13044460D01*
X18310658Y-13044460D02*
X18301134Y-13034936D01*
X18501134Y-12853984D02*
X18501134Y-12892079D01*
X18577325Y-12853984D02*
X18577325Y-12892079D01*
X18872563Y-13130174D02*
X18863039Y-13120650D01*
X18863039Y-13120650D02*
X18843991Y-13092079D01*
X18843991Y-13092079D02*
X18834468Y-13073031D01*
X18834468Y-13073031D02*
X18824944Y-13044460D01*
X18824944Y-13044460D02*
X18815420Y-12996841D01*
X18815420Y-12996841D02*
X18815420Y-12958746D01*
X18815420Y-12958746D02*
X18824944Y-12911127D01*
X18824944Y-12911127D02*
X18834468Y-12882555D01*
X18834468Y-12882555D02*
X18843991Y-12863508D01*
X18843991Y-12863508D02*
X18863039Y-12834936D01*
X18863039Y-12834936D02*
X18872563Y-12825412D01*
X18929706Y-12853984D02*
X19053515Y-12853984D01*
X19053515Y-12853984D02*
X18986849Y-12930174D01*
X18986849Y-12930174D02*
X19015420Y-12930174D01*
X19015420Y-12930174D02*
X19034468Y-12939698D01*
X19034468Y-12939698D02*
X19043991Y-12949222D01*
X19043991Y-12949222D02*
X19053515Y-12968269D01*
X19053515Y-12968269D02*
X19053515Y-13015888D01*
X19053515Y-13015888D02*
X19043991Y-13034936D01*
X19043991Y-13034936D02*
X19034468Y-13044460D01*
X19034468Y-13044460D02*
X19015420Y-13053984D01*
X19015420Y-13053984D02*
X18958277Y-13053984D01*
X18958277Y-13053984D02*
X18939230Y-13044460D01*
X18939230Y-13044460D02*
X18929706Y-13034936D01*
X19224944Y-12853984D02*
X19186849Y-12853984D01*
X19186849Y-12853984D02*
X19167801Y-12863508D01*
X19167801Y-12863508D02*
X19158277Y-12873031D01*
X19158277Y-12873031D02*
X19139230Y-12901603D01*
X19139230Y-12901603D02*
X19129706Y-12939698D01*
X19129706Y-12939698D02*
X19129706Y-13015888D01*
X19129706Y-13015888D02*
X19139230Y-13034936D01*
X19139230Y-13034936D02*
X19148753Y-13044460D01*
X19148753Y-13044460D02*
X19167801Y-13053984D01*
X19167801Y-13053984D02*
X19205896Y-13053984D01*
X19205896Y-13053984D02*
X19224944Y-13044460D01*
X19224944Y-13044460D02*
X19234468Y-13034936D01*
X19234468Y-13034936D02*
X19243991Y-13015888D01*
X19243991Y-13015888D02*
X19243991Y-12968269D01*
X19243991Y-12968269D02*
X19234468Y-12949222D01*
X19234468Y-12949222D02*
X19224944Y-12939698D01*
X19224944Y-12939698D02*
X19205896Y-12930174D01*
X19205896Y-12930174D02*
X19167801Y-12930174D01*
X19167801Y-12930174D02*
X19148753Y-12939698D01*
X19148753Y-12939698D02*
X19139230Y-12949222D01*
X19139230Y-12949222D02*
X19129706Y-12968269D01*
X19482087Y-13053984D02*
X19482087Y-12853984D01*
X19567801Y-13053984D02*
X19567801Y-12949222D01*
X19567801Y-12949222D02*
X19558277Y-12930174D01*
X19558277Y-12930174D02*
X19539230Y-12920650D01*
X19539230Y-12920650D02*
X19510658Y-12920650D01*
X19510658Y-12920650D02*
X19491611Y-12930174D01*
X19491611Y-12930174D02*
X19482087Y-12939698D01*
X19691611Y-13053984D02*
X19672563Y-13044460D01*
X19672563Y-13044460D02*
X19663039Y-13034936D01*
X19663039Y-13034936D02*
X19653515Y-13015888D01*
X19653515Y-13015888D02*
X19653515Y-12958746D01*
X19653515Y-12958746D02*
X19663039Y-12939698D01*
X19663039Y-12939698D02*
X19672563Y-12930174D01*
X19672563Y-12930174D02*
X19691611Y-12920650D01*
X19691611Y-12920650D02*
X19720182Y-12920650D01*
X19720182Y-12920650D02*
X19739230Y-12930174D01*
X19739230Y-12930174D02*
X19748753Y-12939698D01*
X19748753Y-12939698D02*
X19758277Y-12958746D01*
X19758277Y-12958746D02*
X19758277Y-13015888D01*
X19758277Y-13015888D02*
X19748753Y-13034936D01*
X19748753Y-13034936D02*
X19739230Y-13044460D01*
X19739230Y-13044460D02*
X19720182Y-13053984D01*
X19720182Y-13053984D02*
X19691611Y-13053984D01*
X19872563Y-13053984D02*
X19853515Y-13044460D01*
X19853515Y-13044460D02*
X19843992Y-13025412D01*
X19843992Y-13025412D02*
X19843992Y-12853984D01*
X20024944Y-13044460D02*
X20005896Y-13053984D01*
X20005896Y-13053984D02*
X19967801Y-13053984D01*
X19967801Y-13053984D02*
X19948753Y-13044460D01*
X19948753Y-13044460D02*
X19939230Y-13025412D01*
X19939230Y-13025412D02*
X19939230Y-12949222D01*
X19939230Y-12949222D02*
X19948753Y-12930174D01*
X19948753Y-12930174D02*
X19967801Y-12920650D01*
X19967801Y-12920650D02*
X20005896Y-12920650D01*
X20005896Y-12920650D02*
X20024944Y-12930174D01*
X20024944Y-12930174D02*
X20034468Y-12949222D01*
X20034468Y-12949222D02*
X20034468Y-12968269D01*
X20034468Y-12968269D02*
X19939230Y-12987317D01*
X20110658Y-13044460D02*
X20129706Y-13053984D01*
X20129706Y-13053984D02*
X20167801Y-13053984D01*
X20167801Y-13053984D02*
X20186849Y-13044460D01*
X20186849Y-13044460D02*
X20196373Y-13025412D01*
X20196373Y-13025412D02*
X20196373Y-13015888D01*
X20196373Y-13015888D02*
X20186849Y-12996841D01*
X20186849Y-12996841D02*
X20167801Y-12987317D01*
X20167801Y-12987317D02*
X20139230Y-12987317D01*
X20139230Y-12987317D02*
X20120182Y-12977793D01*
X20120182Y-12977793D02*
X20110658Y-12958746D01*
X20110658Y-12958746D02*
X20110658Y-12949222D01*
X20110658Y-12949222D02*
X20120182Y-12930174D01*
X20120182Y-12930174D02*
X20139230Y-12920650D01*
X20139230Y-12920650D02*
X20167801Y-12920650D01*
X20167801Y-12920650D02*
X20186849Y-12930174D01*
X20263039Y-13130174D02*
X20272563Y-13120650D01*
X20272563Y-13120650D02*
X20291611Y-13092079D01*
X20291611Y-13092079D02*
X20301134Y-13073031D01*
X20301134Y-13073031D02*
X20310658Y-13044460D01*
X20310658Y-13044460D02*
X20320182Y-12996841D01*
X20320182Y-12996841D02*
X20320182Y-12958746D01*
X20320182Y-12958746D02*
X20310658Y-12911127D01*
X20310658Y-12911127D02*
X20301134Y-12882555D01*
X20301134Y-12882555D02*
X20291611Y-12863508D01*
X20291611Y-12863508D02*
X20272563Y-12834936D01*
X20272563Y-12834936D02*
X20263039Y-12825412D01*
M02*
