M48
; DRILL file {KiCad 8.99.0-3415-g545c771fd6} date 2025-05-14T09:58:37+0200
; FORMAT={-:-/ absolute / metric / decimal}
; #@! TF.CreationDate,2025-05-14T09:58:37+02:00
; #@! TF.GenerationSoftware,Kicad,Pcbnew,8.99.0-3415-g545c771fd6
; #@! TF.FileFunction,Plated,1,2,PTH
FMAT,2
METRIC
; #@! TA.AperFunction,Plated,PTH,ViaDrill
T1C0.300
; #@! TA.AperFunction,Plated,PTH,ViaDrill
T2C0.500
; #@! TA.AperFunction,Plated,PTH,ComponentDrill
T3C0.750
; #@! TA.AperFunction,Plated,PTH,ComponentDrill
T4C0.800
; #@! TA.AperFunction,Plated,PTH,ComponentDrill
T5C0.900
; #@! TA.AperFunction,Plated,PTH,ComponentDrill
T6C1.100
%
G90
G05
T1
X215.25Y-54.75
X235.0Y-67.0
T2
X168.765Y-39.0
X190.735Y-39.0
X194.015Y-39.0
X215.985Y-39.0
T3
X180.73Y-57.0
X180.73Y-65.0
X180.73Y-79.0
X180.73Y-87.0
X180.73Y-102.0
X182.0Y-55.73
X182.0Y-58.27
X182.0Y-63.73
X182.0Y-66.27
X182.0Y-77.73
X182.0Y-80.27
X182.0Y-85.73
X182.0Y-88.27
X182.0Y-100.73
X182.0Y-103.27
X227.73Y-75.0
X227.73Y-81.0
X227.73Y-94.0
X227.73Y-102.0
X229.0Y-73.73
X229.0Y-76.27
X229.0Y-79.73
X229.0Y-82.27
X229.0Y-92.73
X229.0Y-95.27
X229.0Y-100.73
X229.0Y-103.27
X230.73Y-56.0
X230.73Y-62.0
X232.0Y-54.73
X232.0Y-57.27
X232.0Y-60.73
X232.0Y-63.27
X241.73Y-68.73
X241.73Y-79.0
X243.0Y-67.46
X243.0Y-70.0
X243.0Y-77.73
X243.0Y-80.27
T4
X170.19Y-57.0
X170.19Y-65.0
X170.19Y-79.0
X170.19Y-87.0
X170.19Y-102.0
X177.81Y-57.0
X177.81Y-65.0
X177.81Y-79.0
X177.81Y-87.0
X177.81Y-102.0
X178.19Y-97.0
X185.81Y-97.0
X190.19Y-56.0
X190.19Y-78.0
X197.81Y-56.0
X197.81Y-78.0
X199.0Y-98.0
X199.0Y-105.62
X216.19Y-75.0
X216.19Y-81.0
X217.19Y-71.0
X217.19Y-94.0
X217.19Y-102.0
X220.19Y-56.0
X220.19Y-62.0
X222.0Y-66.5
X223.81Y-75.0
X223.81Y-81.0
X224.81Y-71.0
X224.81Y-94.0
X224.81Y-102.0
X227.81Y-56.0
X227.81Y-62.0
X229.62Y-66.5
X236.0Y-71.19
X236.0Y-78.81
X236.19Y-54.0
X237.38Y-91.0
X243.81Y-54.0
X245.0Y-91.0
X247.0Y-56.19
X247.0Y-63.81
X247.0Y-95.0
X247.0Y-102.62
T5
X192.46Y-61.0
X192.46Y-83.0
X192.46Y-102.0
X195.0Y-61.0
X195.0Y-83.0
X195.0Y-102.0
X240.0Y-60.0
X240.46Y-97.0
X242.54Y-60.0
X243.0Y-97.0
T6
X157.75Y-54.75
X157.75Y-59.25
X157.75Y-62.75
X157.75Y-67.25
X157.75Y-76.75
X157.75Y-81.25
X157.75Y-84.75
X157.75Y-89.25
X157.75Y-99.75
X157.75Y-104.25
X164.25Y-54.75
X164.25Y-59.25
X164.25Y-62.75
X164.25Y-67.25
X164.25Y-76.75
X164.25Y-81.25
X164.25Y-84.75
X164.25Y-89.25
X164.25Y-99.75
X164.25Y-104.25
X205.75Y-54.75
X205.75Y-59.25
X205.75Y-62.75
X205.75Y-67.25
X205.75Y-91.75
X205.75Y-96.25
X205.75Y-99.75
X205.75Y-104.25
X212.25Y-54.75
X212.25Y-59.25
X212.25Y-62.75
X212.25Y-67.25
X212.25Y-91.75
X212.25Y-96.25
X212.25Y-99.75
X212.25Y-104.25
M30
