%TF.GenerationSoftware,KiCad,Pcbnew,8.99.0-3415-g545c771fd6*%
%TF.CreationDate,2025-05-12T13:52:15+02:00*%
%TF.ProjectId,logic-solder,6c6f6769-632d-4736-9f6c-6465722e6b69,3*%
%TF.SameCoordinates,Original*%
%TF.FileFunction,Soldermask,Bot*%
%TF.FilePolarity,Negative*%
%FSLAX46Y46*%
G04 Gerber Fmt 4.6, Leading zero omitted, Abs format (unit mm)*
G04 Created by KiCad (PCBNEW 8.99.0-3415-g545c771fd6) date 2025-05-12 13:52:15*
%MOMM*%
%LPD*%
G01*
G04 APERTURE LIST*
G04 Aperture macros list*
%AMRoundRect*
0 Rectangle with rounded corners*
0 $1 Rounding radius*
0 $2 $3 $4 $5 $6 $7 $8 $9 X,Y pos of 4 corners*
0 Add a 4 corners polygon primitive as box body*
4,1,4,$2,$3,$4,$5,$6,$7,$8,$9,$2,$3,0*
0 Add four circle primitives for the rounded corners*
1,1,$1+$1,$2,$3*
1,1,$1+$1,$4,$5*
1,1,$1+$1,$6,$7*
1,1,$1+$1,$8,$9*
0 Add four rect primitives between the rounded corners*
20,1,$1+$1,$2,$3,$4,$5,0*
20,1,$1+$1,$4,$5,$6,$7,0*
20,1,$1+$1,$6,$7,$8,$9,0*
20,1,$1+$1,$8,$9,$2,$3,0*%
G04 Aperture macros list end*
%ADD10C,1.600000*%
%ADD11O,1.600000X1.600000*%
%ADD12C,1.800000*%
%ADD13R,1.800000X1.800000*%
%ADD14RoundRect,0.275000X0.625000X-0.275000X0.625000X0.275000X-0.625000X0.275000X-0.625000X-0.275000X0*%
%ADD15R,1.800000X1.100000*%
%ADD16C,2.000000*%
%ADD17R,1.270000X5.080000*%
%ADD18C,17.800000*%
G04 APERTURE END LIST*
D10*
%TO.C,R22*%
X229620000Y-66500000D03*
D11*
X222000000Y-66500000D03*
%TD*%
D10*
%TO.C,R20*%
X199000000Y-105620000D03*
D11*
X199000000Y-98000000D03*
%TD*%
D12*
%TO.C,D5*%
X192460000Y-102000000D03*
D13*
X195000000Y-102000000D03*
%TD*%
D14*
%TO.C,Q4*%
X232400000Y-60730000D03*
X230330000Y-62000000D03*
D15*
X232400000Y-63270000D03*
%TD*%
D14*
%TO.C,Q5*%
X243400000Y-67460000D03*
X241330000Y-68730000D03*
D15*
X243400000Y-70000000D03*
%TD*%
D14*
%TO.C,Q9*%
X229400000Y-73730000D03*
X227330000Y-75000000D03*
D15*
X229400000Y-76270000D03*
%TD*%
D14*
%TO.C,Q8*%
X243400000Y-77730000D03*
X241330000Y-79000000D03*
D15*
X243400000Y-80270000D03*
%TD*%
D11*
%TO.C,R4*%
X243810000Y-54000000D03*
D10*
X236190000Y-54000000D03*
%TD*%
D11*
%TO.C,R5*%
X227810000Y-56000000D03*
D10*
X220190000Y-56000000D03*
%TD*%
D11*
%TO.C,R7*%
X227810000Y-62000000D03*
D10*
X220190000Y-62000000D03*
%TD*%
D11*
%TO.C,R8*%
X177810000Y-79000000D03*
D10*
X170190000Y-79000000D03*
%TD*%
D11*
%TO.C,R9*%
X197810000Y-78000000D03*
D10*
X190190000Y-78000000D03*
%TD*%
D11*
%TO.C,R11*%
X177810000Y-87000000D03*
D10*
X170190000Y-87000000D03*
%TD*%
D11*
%TO.C,R13*%
X223810000Y-75000000D03*
D10*
X216190000Y-75000000D03*
%TD*%
D11*
%TO.C,R12*%
X236000000Y-78810000D03*
D10*
X236000000Y-71190000D03*
%TD*%
D11*
%TO.C,R14*%
X223810000Y-81000000D03*
D10*
X216190000Y-81000000D03*
%TD*%
D11*
%TO.C,R10*%
X217190000Y-71000000D03*
D10*
X224810000Y-71000000D03*
%TD*%
D11*
%TO.C,R15*%
X237380000Y-91000000D03*
D10*
X245000000Y-91000000D03*
%TD*%
D11*
%TO.C,R16*%
X178190000Y-97000000D03*
D10*
X185810000Y-97000000D03*
%TD*%
D11*
%TO.C,R17*%
X224810000Y-94000000D03*
D10*
X217190000Y-94000000D03*
%TD*%
D11*
%TO.C,R18*%
X177810000Y-102000000D03*
D10*
X170190000Y-102000000D03*
%TD*%
D16*
%TO.C,SW4*%
X205750000Y-62750000D03*
X212250000Y-62750000D03*
X205750000Y-67250000D03*
X212250000Y-67250000D03*
%TD*%
%TO.C,SW5*%
X157750000Y-76750000D03*
X164250000Y-76750000D03*
X157750000Y-81250000D03*
X164250000Y-81250000D03*
%TD*%
%TO.C,SW6*%
X157750000Y-84750000D03*
X164250000Y-84750000D03*
X157750000Y-89250000D03*
X164250000Y-89250000D03*
%TD*%
%TO.C,SW7*%
X205750000Y-91750000D03*
X212250000Y-91750000D03*
X205750000Y-96250000D03*
X212250000Y-96250000D03*
%TD*%
%TO.C,SW8*%
X157750000Y-99750000D03*
X164250000Y-99750000D03*
X157750000Y-104250000D03*
X164250000Y-104250000D03*
%TD*%
%TO.C,SW9*%
X205750000Y-99750000D03*
X212250000Y-99750000D03*
X205750000Y-104250000D03*
X212250000Y-104250000D03*
%TD*%
D13*
%TO.C,D3*%
X195000000Y-83000000D03*
D12*
X192460000Y-83000000D03*
%TD*%
D15*
%TO.C,Q3*%
X232400000Y-57270000D03*
D14*
X230330000Y-56000000D03*
X232400000Y-54730000D03*
%TD*%
D13*
%TO.C,D2*%
X240000000Y-60000000D03*
D12*
X242540000Y-60000000D03*
%TD*%
D15*
%TO.C,Q1*%
X182400000Y-58270000D03*
D14*
X180330000Y-57000000D03*
X182400000Y-55730000D03*
%TD*%
D13*
%TO.C,D1*%
X195000000Y-61000000D03*
D12*
X192460000Y-61000000D03*
%TD*%
D15*
%TO.C,Q6*%
X182400000Y-80270000D03*
D14*
X180330000Y-79000000D03*
X182400000Y-77730000D03*
%TD*%
D10*
%TO.C,R2*%
X190190000Y-56000000D03*
D11*
X197810000Y-56000000D03*
%TD*%
D13*
%TO.C,D4*%
X243000000Y-97000000D03*
D12*
X240460000Y-97000000D03*
%TD*%
D15*
%TO.C,Q13*%
X229400000Y-103270000D03*
D14*
X227330000Y-102000000D03*
X229400000Y-100730000D03*
%TD*%
D16*
%TO.C,SW2*%
X164250000Y-67250000D03*
X157750000Y-67250000D03*
X164250000Y-62750000D03*
X157750000Y-62750000D03*
%TD*%
D10*
%TO.C,R6*%
X247000000Y-56190000D03*
D11*
X247000000Y-63810000D03*
%TD*%
D15*
%TO.C,Q10*%
X229400000Y-82270000D03*
D14*
X227330000Y-81000000D03*
X229400000Y-79730000D03*
%TD*%
D15*
%TO.C,Q7*%
X182400000Y-88270000D03*
D14*
X180330000Y-87000000D03*
X182400000Y-85730000D03*
%TD*%
D10*
%TO.C,R3*%
X170190000Y-65000000D03*
D11*
X177810000Y-65000000D03*
%TD*%
D15*
%TO.C,Q11*%
X229400000Y-95270000D03*
D14*
X227330000Y-94000000D03*
X229400000Y-92730000D03*
%TD*%
D15*
%TO.C,Q12*%
X182400000Y-103270000D03*
D14*
X180330000Y-102000000D03*
X182400000Y-100730000D03*
%TD*%
D16*
%TO.C,SW3*%
X212250000Y-59250000D03*
X205750000Y-59250000D03*
X212250000Y-54750000D03*
X205750000Y-54750000D03*
%TD*%
%TO.C,SW1*%
X164250000Y-59250000D03*
X157750000Y-59250000D03*
X164250000Y-54750000D03*
X157750000Y-54750000D03*
%TD*%
D15*
%TO.C,Q2*%
X182400000Y-66270000D03*
D14*
X180330000Y-65000000D03*
X182400000Y-63730000D03*
%TD*%
D10*
%TO.C,R1*%
X170190000Y-57000000D03*
D11*
X177810000Y-57000000D03*
%TD*%
D17*
%TO.C,BT1*%
X194015000Y-39000000D03*
X215985000Y-39000000D03*
D18*
X205000000Y-39000000D03*
%TD*%
D17*
%TO.C,BT2*%
X168765000Y-39000001D03*
X190735000Y-39000001D03*
D18*
X179750000Y-39000001D03*
%TD*%
D10*
%TO.C,R21*%
X217190000Y-102000000D03*
D11*
X224810000Y-102000000D03*
%TD*%
D10*
%TO.C,R19*%
X247000000Y-102620000D03*
D11*
X247000000Y-95000000D03*
%TD*%
M02*
