%TF.GenerationSoftware,KiCad,Pcbnew,8.99.0-3415-g545c771fd6*%
%TF.CreationDate,2025-05-12T12:54:29+02:00*%
%TF.ProjectId,logic-solder,6c6f6769-632d-4736-9f6c-6465722e6b69,3*%
%TF.SameCoordinates,Original*%
%TF.FileFunction,Legend,Top*%
%TF.FilePolarity,Positive*%
%FSLAX46Y46*%
G04 Gerber Fmt 4.6, Leading zero omitted, Abs format (unit mm)*
G04 Created by KiCad (PCBNEW 8.99.0-3415-g545c771fd6) date 2025-05-12 12:54:29*
%MOMM*%
%LPD*%
G01*
G04 APERTURE LIST*
%ADD10C,0.100000*%
%ADD11C,0.150000*%
%ADD12C,0.120000*%
%ADD13C,0.350000*%
G04 APERTURE END LIST*
D10*
X218500000Y-66500000D02*
X219500000Y-67500000D01*
X222250000Y-66500000D02*
X219500000Y-66500000D01*
X219500000Y-67500000D02*
X219500000Y-66500000D01*
X219500000Y-66500000D02*
X219500000Y-65500000D01*
X219500000Y-65500000D02*
X218500000Y-66500000D01*
X229500000Y-66500000D02*
X232000000Y-66500000D01*
X237000000Y-57500000D02*
X237000000Y-67000000D01*
X236500000Y-57500000D02*
X237000000Y-57500000D01*
X235500000Y-57500000D02*
G75*
G02*
X236500000Y-57500000I500000J0D01*
G01*
X235000000Y-57500000D02*
X235500000Y-57500000D01*
X232500000Y-57500000D02*
X235000000Y-57500000D01*
X197000000Y-98000000D02*
X199000000Y-98000000D01*
X197000000Y-102000000D02*
X197000000Y-98000000D01*
X196290000Y-102000000D02*
X197000000Y-102000000D01*
X199000000Y-107000000D02*
X199000000Y-106000000D01*
X232000000Y-67000000D02*
X237000000Y-67000000D01*
X178500000Y-36000000D02*
X180500000Y-36000000D01*
X202700000Y-36000000D02*
X204700000Y-36000000D01*
X195000000Y-83000000D02*
X197750000Y-83000000D01*
X171500000Y-32000000D02*
X173500000Y-32000000D01*
X182000000Y-105500000D02*
X181000000Y-105500000D01*
X182000000Y-85750000D02*
X182000000Y-82750000D01*
X214000000Y-64000000D02*
X213000000Y-64000000D01*
X191250000Y-75500000D02*
X190250000Y-74500000D01*
X182000000Y-99000000D02*
X188250000Y-99000000D01*
X229000000Y-92750000D02*
X229000000Y-91000000D01*
X247000000Y-54000000D02*
X246500000Y-54750000D01*
X214000000Y-56000000D02*
X220000000Y-56000000D01*
X202700000Y-33000000D02*
X203500000Y-33000000D01*
X182500000Y-34000000D02*
X183500000Y-34000000D01*
X165250000Y-65000000D02*
X170250000Y-65000000D01*
X229000000Y-103250000D02*
X229000000Y-105750000D01*
X189000000Y-97000000D02*
X188250000Y-96500000D01*
X186500000Y-36000000D02*
X186500000Y-34000000D01*
X224750000Y-102000000D02*
X227750000Y-102000000D01*
X190250000Y-77750000D02*
X190250000Y-75500000D01*
X173500000Y-32000000D02*
G75*
G02*
X173500000Y-36000000I0J-2000000D01*
G01*
X182000000Y-80250000D02*
X187500000Y-80250000D01*
X177750000Y-102000000D02*
X180750000Y-102000000D01*
X224750000Y-94000000D02*
X227750000Y-94000000D01*
X195000000Y-61000000D02*
X197750000Y-61000000D01*
X190250000Y-55750000D02*
X190250000Y-53500000D01*
X199500000Y-34000000D02*
G75*
G02*
X198500000Y-34000000I-500000J0D01*
G01*
X198500000Y-34000000D02*
G75*
G02*
X199500000Y-34000000I500000J0D01*
G01*
X229000000Y-106750000D02*
X230000000Y-105750000D01*
X247000000Y-106500000D02*
X248000000Y-105500000D01*
X236000000Y-61000000D02*
X232000000Y-61000000D01*
X180500000Y-32000000D02*
G75*
G02*
X180500000Y-36000000I0J-2000000D01*
G01*
X182000000Y-69000000D02*
X182000000Y-68000000D01*
X218000000Y-62000000D02*
X220000000Y-62000000D01*
X165500000Y-79000000D02*
X170250000Y-79000000D01*
X190500000Y-34000000D02*
X191500000Y-34000000D01*
X248000000Y-91000000D02*
X247250000Y-91500000D01*
X202200000Y-32000000D02*
G75*
G02*
X202200000Y-36000000I-500000J-2000000D01*
G01*
X213250000Y-94000000D02*
X213000000Y-94000000D01*
X180750000Y-87000000D02*
X177750000Y-87000000D01*
X175500000Y-34000000D02*
X176500000Y-34000000D01*
X236000000Y-78750000D02*
X238250000Y-78750000D01*
X171500000Y-33000000D02*
X170500000Y-33000000D01*
X202700000Y-32000000D02*
G75*
G02*
X202700000Y-36000000I-1000000J-2000000D01*
G01*
X246000000Y-105500000D02*
X247000000Y-106500000D01*
X214000000Y-64000000D02*
X218000000Y-64000000D01*
X194500000Y-32000000D02*
X196500000Y-32000000D01*
X186500000Y-34000000D02*
X186500000Y-32000000D01*
X165250000Y-57000000D02*
X170250000Y-57000000D01*
X190250000Y-53500000D02*
X191250000Y-53500000D01*
X187500000Y-80250000D02*
X187500000Y-90000000D01*
X194500000Y-32000000D02*
X194500000Y-36000000D01*
X229000000Y-73750000D02*
X229000000Y-71000000D01*
X230000000Y-84500000D02*
X229000000Y-84500000D01*
X189250000Y-75500000D02*
X190250000Y-75500000D01*
X196000000Y-107000000D02*
X197000000Y-108000000D01*
X243000000Y-97000000D02*
X245250000Y-97000000D01*
X228000000Y-62000000D02*
X231000000Y-62000000D01*
X182000000Y-82750000D02*
X181500000Y-83500000D01*
X242500000Y-60000000D02*
X245000000Y-60000000D01*
X229000000Y-71000000D02*
X224750000Y-71000000D01*
X199000000Y-107000000D02*
X197000000Y-107000000D01*
X191250000Y-53500000D02*
X190250000Y-52500000D01*
X238250000Y-78750000D02*
X238250000Y-79000000D01*
X247000000Y-102750000D02*
X247000000Y-105500000D01*
X182000000Y-90000000D02*
X187500000Y-90000000D01*
X244250000Y-83000000D02*
X243250000Y-83000000D01*
X243250000Y-83000000D02*
X242250000Y-83000000D01*
X182000000Y-52500000D02*
X181500000Y-53250000D01*
X217250000Y-68500000D02*
X216750000Y-69250000D01*
X190250000Y-52500000D02*
X189250000Y-53500000D01*
X224000000Y-81000000D02*
X228000000Y-81000000D01*
X178000000Y-57000000D02*
X180750000Y-57000000D01*
X182000000Y-74750000D02*
X182500000Y-75500000D01*
X243000000Y-64500000D02*
X241500000Y-64500000D01*
X228000000Y-56000000D02*
X231000000Y-56000000D01*
X214000000Y-64000000D02*
X214000000Y-81000000D01*
X214000000Y-56000000D02*
X213000000Y-56000000D01*
X213000000Y-102000000D02*
X217250000Y-102000000D01*
X244750000Y-91000000D02*
X248000000Y-91000000D01*
X230000000Y-105750000D02*
X229000000Y-105750000D01*
X182000000Y-99000000D02*
X178000000Y-99000000D01*
X178000000Y-65000000D02*
X180750000Y-65000000D01*
X199500000Y-34000000D02*
X200500000Y-34000000D01*
X229000000Y-82250000D02*
X229000000Y-84500000D01*
X182000000Y-52500000D02*
X182500000Y-53250000D01*
X245250000Y-97000000D02*
X245250000Y-95000000D01*
X190500000Y-34000000D02*
G75*
G02*
X189500000Y-34000000I-500000J0D01*
G01*
X189500000Y-34000000D02*
G75*
G02*
X190500000Y-34000000I500000J0D01*
G01*
X171500000Y-35000000D02*
X170500000Y-35000000D01*
X237000000Y-67000000D02*
X237000000Y-68750000D01*
X186500000Y-32000000D02*
X189500000Y-34000000D01*
X197000000Y-106000000D02*
X196000000Y-107000000D01*
X187500000Y-83000000D02*
X192500000Y-83000000D01*
X196500000Y-32000000D02*
G75*
G02*
X196500000Y-36000000I0J-2000000D01*
G01*
X178500000Y-32000000D02*
X180500000Y-32000000D01*
X185500000Y-34000000D02*
X186500000Y-34000000D01*
X178000000Y-99000000D02*
X178000000Y-97000000D01*
X237000000Y-68750000D02*
X241750000Y-68750000D01*
X241500000Y-64500000D02*
X241500000Y-62000000D01*
X245000000Y-60000000D02*
X245000000Y-63750000D01*
X178500000Y-32000000D02*
G75*
G02*
X178500000Y-36000000I-1000000J-2000000D01*
G01*
X171500000Y-32000000D02*
X171500000Y-36000000D01*
X217250000Y-68500000D02*
X217750000Y-69250000D01*
X229000000Y-84500000D02*
X228000000Y-84500000D01*
X235000000Y-54000000D02*
X236000000Y-54000000D01*
X181000000Y-105500000D02*
X182000000Y-106500000D01*
X188250000Y-102000000D02*
X192500000Y-102000000D01*
X171500000Y-36000000D02*
X173500000Y-36000000D01*
X215000000Y-56000000D02*
X215000000Y-75000000D01*
X228000000Y-84500000D02*
X229000000Y-85500000D01*
X178500000Y-35000000D02*
X179500000Y-35000000D01*
X182000000Y-74750000D02*
X181500000Y-75500000D01*
X203000000Y-51000000D02*
X249000000Y-51000000D01*
X249000000Y-86000000D01*
X203000000Y-86000000D01*
X203000000Y-51000000D01*
X182000000Y-66250000D02*
X182000000Y-68000000D01*
X236000000Y-54000000D02*
X236000000Y-61000000D01*
X243250000Y-84000000D02*
X244250000Y-83000000D01*
X228000000Y-105750000D02*
X229000000Y-106750000D01*
X155000000Y-95000000D02*
X201000000Y-95000000D01*
X201000000Y-108000000D01*
X155000000Y-108000000D01*
X155000000Y-95000000D01*
X187250000Y-61000000D02*
X187250000Y-69000000D01*
X182000000Y-82750000D02*
X182500000Y-83500000D01*
X243250000Y-80250000D02*
X243250000Y-83000000D01*
X238250000Y-79000000D02*
X241500000Y-79000000D01*
X187250000Y-61000000D02*
X192250000Y-61000000D01*
X243250000Y-70000000D02*
X243250000Y-77750000D01*
X188250000Y-99000000D02*
X188250000Y-102000000D01*
X182000000Y-88250000D02*
X182000000Y-90000000D01*
X186000000Y-97000000D02*
X189000000Y-97000000D01*
X224000000Y-75000000D02*
X228000000Y-75000000D01*
X233000000Y-55000000D02*
X235000000Y-55000000D01*
X197000000Y-107000000D02*
X197000000Y-106000000D01*
X244000000Y-51250000D02*
X244500000Y-52000000D01*
X182000000Y-100750000D02*
X182000000Y-99000000D01*
X155000000Y-73000000D02*
X201000000Y-73000000D01*
X201000000Y-93000000D01*
X155000000Y-93000000D01*
X155000000Y-73000000D01*
X189500000Y-34000000D02*
X186500000Y-36000000D01*
X197750000Y-61000000D02*
X197750000Y-56000000D01*
X155000000Y-51000000D02*
X201000000Y-51000000D01*
X201000000Y-71000000D01*
X155000000Y-71000000D01*
X155000000Y-51000000D01*
X206700000Y-34000000D02*
X207700000Y-34000000D01*
X229000000Y-71000000D02*
X236000000Y-71000000D01*
X229000000Y-91000000D02*
X237500000Y-91000000D01*
X194500000Y-36000000D02*
X196500000Y-36000000D01*
X165250000Y-102000000D02*
X170000000Y-102000000D01*
X245000000Y-63750000D02*
X247000000Y-63750000D01*
X247000000Y-105500000D02*
X246000000Y-105500000D01*
X202700000Y-32000000D02*
X204700000Y-32000000D01*
X232000000Y-63000000D02*
X232000000Y-67000000D01*
X178500000Y-33000000D02*
X179500000Y-33000000D01*
X244000000Y-51250000D02*
X243500000Y-52000000D01*
X202700000Y-35000000D02*
X203500000Y-35000000D01*
X190250000Y-74500000D02*
X189250000Y-75500000D01*
X182000000Y-106500000D02*
X183000000Y-105500000D01*
X214000000Y-81000000D02*
X216000000Y-81000000D01*
X242250000Y-83000000D02*
X243250000Y-84000000D01*
X213250000Y-94000000D02*
X217250000Y-94000000D01*
X204700000Y-32000000D02*
G75*
G02*
X204700000Y-36000000I0J-2000000D01*
G01*
X194500000Y-35000000D02*
X193500000Y-35000000D01*
X247000000Y-54000000D02*
X247500000Y-54750000D01*
X217250000Y-71000000D02*
X217250000Y-68500000D01*
X235000000Y-55000000D02*
X235000000Y-54000000D01*
X194500000Y-33000000D02*
X193500000Y-33000000D01*
X183000000Y-105500000D02*
X182000000Y-105500000D01*
X235000000Y-91000000D02*
X235000000Y-97000000D01*
X177750000Y-79000000D02*
X180750000Y-79000000D01*
X187250000Y-69000000D02*
X182000000Y-69000000D01*
X235000000Y-97000000D02*
X240250000Y-97000000D01*
X182000000Y-55750000D02*
X182000000Y-52500000D01*
X245250000Y-95000000D02*
X247000000Y-95000000D01*
X229000000Y-85500000D02*
X230000000Y-84500000D01*
X189250000Y-53500000D02*
X190250000Y-53500000D01*
X182000000Y-103250000D02*
X182000000Y-105500000D01*
X203000000Y-88000000D02*
X249000000Y-88000000D01*
X249000000Y-108000000D01*
X203000000Y-108000000D01*
X203000000Y-88000000D01*
X197000000Y-108000000D02*
X197000000Y-107000000D01*
X243000000Y-67500000D02*
X243000000Y-64500000D01*
X218000000Y-64000000D02*
X218000000Y-62000000D01*
X197750000Y-83000000D02*
X197750000Y-78000000D01*
X229000000Y-95250000D02*
X229000000Y-100750000D01*
X244000000Y-54000000D02*
X244000000Y-51250000D01*
X229000000Y-76250000D02*
X229000000Y-79750000D01*
X229000000Y-105750000D02*
X228000000Y-105750000D01*
X215000000Y-75000000D02*
X216000000Y-75000000D01*
X248000000Y-105500000D02*
X247000000Y-105500000D01*
X189000000Y-97000000D02*
X188250000Y-97500000D01*
X165500000Y-79000000D02*
X165250000Y-79000000D01*
X182000000Y-77750000D02*
X182000000Y-74750000D01*
X247000000Y-56250000D02*
X247000000Y-54000000D01*
X190250000Y-75500000D02*
X191250000Y-75500000D01*
X165250000Y-87000000D02*
X170250000Y-87000000D01*
X248000000Y-91000000D02*
X247250000Y-90500000D01*
X182000000Y-58250000D02*
X182000000Y-63750000D01*
X155494360Y-71872419D02*
X155684836Y-71872419D01*
X155684836Y-71872419D02*
X155780074Y-71920038D01*
X155780074Y-71920038D02*
X155875312Y-72015276D01*
X155875312Y-72015276D02*
X155922931Y-72205752D01*
X155922931Y-72205752D02*
X155922931Y-72539085D01*
X155922931Y-72539085D02*
X155875312Y-72729561D01*
X155875312Y-72729561D02*
X155780074Y-72824800D01*
X155780074Y-72824800D02*
X155684836Y-72872419D01*
X155684836Y-72872419D02*
X155494360Y-72872419D01*
X155494360Y-72872419D02*
X155399122Y-72824800D01*
X155399122Y-72824800D02*
X155303884Y-72729561D01*
X155303884Y-72729561D02*
X155256265Y-72539085D01*
X155256265Y-72539085D02*
X155256265Y-72205752D01*
X155256265Y-72205752D02*
X155303884Y-72015276D01*
X155303884Y-72015276D02*
X155399122Y-71920038D01*
X155399122Y-71920038D02*
X155494360Y-71872419D01*
X156922931Y-72872419D02*
X156589598Y-72396228D01*
X156351503Y-72872419D02*
X156351503Y-71872419D01*
X156351503Y-71872419D02*
X156732455Y-71872419D01*
X156732455Y-71872419D02*
X156827693Y-71920038D01*
X156827693Y-71920038D02*
X156875312Y-71967657D01*
X156875312Y-71967657D02*
X156922931Y-72062895D01*
X156922931Y-72062895D02*
X156922931Y-72205752D01*
X156922931Y-72205752D02*
X156875312Y-72300990D01*
X156875312Y-72300990D02*
X156827693Y-72348609D01*
X156827693Y-72348609D02*
X156732455Y-72396228D01*
X156732455Y-72396228D02*
X156351503Y-72396228D01*
X157351503Y-72491466D02*
X158113408Y-72491466D01*
X159113407Y-71920038D02*
X159018169Y-71872419D01*
X159018169Y-71872419D02*
X158875312Y-71872419D01*
X158875312Y-71872419D02*
X158732455Y-71920038D01*
X158732455Y-71920038D02*
X158637217Y-72015276D01*
X158637217Y-72015276D02*
X158589598Y-72110514D01*
X158589598Y-72110514D02*
X158541979Y-72300990D01*
X158541979Y-72300990D02*
X158541979Y-72443847D01*
X158541979Y-72443847D02*
X158589598Y-72634323D01*
X158589598Y-72634323D02*
X158637217Y-72729561D01*
X158637217Y-72729561D02*
X158732455Y-72824800D01*
X158732455Y-72824800D02*
X158875312Y-72872419D01*
X158875312Y-72872419D02*
X158970550Y-72872419D01*
X158970550Y-72872419D02*
X159113407Y-72824800D01*
X159113407Y-72824800D02*
X159161026Y-72777180D01*
X159161026Y-72777180D02*
X159161026Y-72443847D01*
X159161026Y-72443847D02*
X158970550Y-72443847D01*
X160018169Y-72872419D02*
X160018169Y-72348609D01*
X160018169Y-72348609D02*
X159970550Y-72253371D01*
X159970550Y-72253371D02*
X159875312Y-72205752D01*
X159875312Y-72205752D02*
X159684836Y-72205752D01*
X159684836Y-72205752D02*
X159589598Y-72253371D01*
X160018169Y-72824800D02*
X159922931Y-72872419D01*
X159922931Y-72872419D02*
X159684836Y-72872419D01*
X159684836Y-72872419D02*
X159589598Y-72824800D01*
X159589598Y-72824800D02*
X159541979Y-72729561D01*
X159541979Y-72729561D02*
X159541979Y-72634323D01*
X159541979Y-72634323D02*
X159589598Y-72539085D01*
X159589598Y-72539085D02*
X159684836Y-72491466D01*
X159684836Y-72491466D02*
X159922931Y-72491466D01*
X159922931Y-72491466D02*
X160018169Y-72443847D01*
X160351503Y-72205752D02*
X160732455Y-72205752D01*
X160494360Y-71872419D02*
X160494360Y-72729561D01*
X160494360Y-72729561D02*
X160541979Y-72824800D01*
X160541979Y-72824800D02*
X160637217Y-72872419D01*
X160637217Y-72872419D02*
X160732455Y-72872419D01*
X161446741Y-72824800D02*
X161351503Y-72872419D01*
X161351503Y-72872419D02*
X161161027Y-72872419D01*
X161161027Y-72872419D02*
X161065789Y-72824800D01*
X161065789Y-72824800D02*
X161018170Y-72729561D01*
X161018170Y-72729561D02*
X161018170Y-72348609D01*
X161018170Y-72348609D02*
X161065789Y-72253371D01*
X161065789Y-72253371D02*
X161161027Y-72205752D01*
X161161027Y-72205752D02*
X161351503Y-72205752D01*
X161351503Y-72205752D02*
X161446741Y-72253371D01*
X161446741Y-72253371D02*
X161494360Y-72348609D01*
X161494360Y-72348609D02*
X161494360Y-72443847D01*
X161494360Y-72443847D02*
X161018170Y-72539085D01*
X155303884Y-94872419D02*
X155303884Y-93872419D01*
X155303884Y-93872419D02*
X155875312Y-94872419D01*
X155875312Y-94872419D02*
X155875312Y-93872419D01*
X156541979Y-93872419D02*
X156732455Y-93872419D01*
X156732455Y-93872419D02*
X156827693Y-93920038D01*
X156827693Y-93920038D02*
X156922931Y-94015276D01*
X156922931Y-94015276D02*
X156970550Y-94205752D01*
X156970550Y-94205752D02*
X156970550Y-94539085D01*
X156970550Y-94539085D02*
X156922931Y-94729561D01*
X156922931Y-94729561D02*
X156827693Y-94824800D01*
X156827693Y-94824800D02*
X156732455Y-94872419D01*
X156732455Y-94872419D02*
X156541979Y-94872419D01*
X156541979Y-94872419D02*
X156446741Y-94824800D01*
X156446741Y-94824800D02*
X156351503Y-94729561D01*
X156351503Y-94729561D02*
X156303884Y-94539085D01*
X156303884Y-94539085D02*
X156303884Y-94205752D01*
X156303884Y-94205752D02*
X156351503Y-94015276D01*
X156351503Y-94015276D02*
X156446741Y-93920038D01*
X156446741Y-93920038D02*
X156541979Y-93872419D01*
X157256265Y-93872419D02*
X157827693Y-93872419D01*
X157541979Y-94872419D02*
X157541979Y-93872419D01*
X158161027Y-94491466D02*
X158922932Y-94491466D01*
X159922931Y-93920038D02*
X159827693Y-93872419D01*
X159827693Y-93872419D02*
X159684836Y-93872419D01*
X159684836Y-93872419D02*
X159541979Y-93920038D01*
X159541979Y-93920038D02*
X159446741Y-94015276D01*
X159446741Y-94015276D02*
X159399122Y-94110514D01*
X159399122Y-94110514D02*
X159351503Y-94300990D01*
X159351503Y-94300990D02*
X159351503Y-94443847D01*
X159351503Y-94443847D02*
X159399122Y-94634323D01*
X159399122Y-94634323D02*
X159446741Y-94729561D01*
X159446741Y-94729561D02*
X159541979Y-94824800D01*
X159541979Y-94824800D02*
X159684836Y-94872419D01*
X159684836Y-94872419D02*
X159780074Y-94872419D01*
X159780074Y-94872419D02*
X159922931Y-94824800D01*
X159922931Y-94824800D02*
X159970550Y-94777180D01*
X159970550Y-94777180D02*
X159970550Y-94443847D01*
X159970550Y-94443847D02*
X159780074Y-94443847D01*
X160827693Y-94872419D02*
X160827693Y-94348609D01*
X160827693Y-94348609D02*
X160780074Y-94253371D01*
X160780074Y-94253371D02*
X160684836Y-94205752D01*
X160684836Y-94205752D02*
X160494360Y-94205752D01*
X160494360Y-94205752D02*
X160399122Y-94253371D01*
X160827693Y-94824800D02*
X160732455Y-94872419D01*
X160732455Y-94872419D02*
X160494360Y-94872419D01*
X160494360Y-94872419D02*
X160399122Y-94824800D01*
X160399122Y-94824800D02*
X160351503Y-94729561D01*
X160351503Y-94729561D02*
X160351503Y-94634323D01*
X160351503Y-94634323D02*
X160399122Y-94539085D01*
X160399122Y-94539085D02*
X160494360Y-94491466D01*
X160494360Y-94491466D02*
X160732455Y-94491466D01*
X160732455Y-94491466D02*
X160827693Y-94443847D01*
X161161027Y-94205752D02*
X161541979Y-94205752D01*
X161303884Y-93872419D02*
X161303884Y-94729561D01*
X161303884Y-94729561D02*
X161351503Y-94824800D01*
X161351503Y-94824800D02*
X161446741Y-94872419D01*
X161446741Y-94872419D02*
X161541979Y-94872419D01*
X162256265Y-94824800D02*
X162161027Y-94872419D01*
X162161027Y-94872419D02*
X161970551Y-94872419D01*
X161970551Y-94872419D02*
X161875313Y-94824800D01*
X161875313Y-94824800D02*
X161827694Y-94729561D01*
X161827694Y-94729561D02*
X161827694Y-94348609D01*
X161827694Y-94348609D02*
X161875313Y-94253371D01*
X161875313Y-94253371D02*
X161970551Y-94205752D01*
X161970551Y-94205752D02*
X162161027Y-94205752D01*
X162161027Y-94205752D02*
X162256265Y-94253371D01*
X162256265Y-94253371D02*
X162303884Y-94348609D01*
X162303884Y-94348609D02*
X162303884Y-94443847D01*
X162303884Y-94443847D02*
X161827694Y-94539085D01*
X203303884Y-87872419D02*
X203303884Y-86872419D01*
X203303884Y-86872419D02*
X203875312Y-87872419D01*
X203875312Y-87872419D02*
X203875312Y-86872419D01*
X204303884Y-87586704D02*
X204780074Y-87586704D01*
X204208646Y-87872419D02*
X204541979Y-86872419D01*
X204541979Y-86872419D02*
X204875312Y-87872419D01*
X205208646Y-87872419D02*
X205208646Y-86872419D01*
X205208646Y-86872419D02*
X205780074Y-87872419D01*
X205780074Y-87872419D02*
X205780074Y-86872419D01*
X206256265Y-87872419D02*
X206256265Y-86872419D01*
X206256265Y-86872419D02*
X206494360Y-86872419D01*
X206494360Y-86872419D02*
X206637217Y-86920038D01*
X206637217Y-86920038D02*
X206732455Y-87015276D01*
X206732455Y-87015276D02*
X206780074Y-87110514D01*
X206780074Y-87110514D02*
X206827693Y-87300990D01*
X206827693Y-87300990D02*
X206827693Y-87443847D01*
X206827693Y-87443847D02*
X206780074Y-87634323D01*
X206780074Y-87634323D02*
X206732455Y-87729561D01*
X206732455Y-87729561D02*
X206637217Y-87824800D01*
X206637217Y-87824800D02*
X206494360Y-87872419D01*
X206494360Y-87872419D02*
X206256265Y-87872419D01*
X207256265Y-87491466D02*
X208018170Y-87491466D01*
X209018169Y-86920038D02*
X208922931Y-86872419D01*
X208922931Y-86872419D02*
X208780074Y-86872419D01*
X208780074Y-86872419D02*
X208637217Y-86920038D01*
X208637217Y-86920038D02*
X208541979Y-87015276D01*
X208541979Y-87015276D02*
X208494360Y-87110514D01*
X208494360Y-87110514D02*
X208446741Y-87300990D01*
X208446741Y-87300990D02*
X208446741Y-87443847D01*
X208446741Y-87443847D02*
X208494360Y-87634323D01*
X208494360Y-87634323D02*
X208541979Y-87729561D01*
X208541979Y-87729561D02*
X208637217Y-87824800D01*
X208637217Y-87824800D02*
X208780074Y-87872419D01*
X208780074Y-87872419D02*
X208875312Y-87872419D01*
X208875312Y-87872419D02*
X209018169Y-87824800D01*
X209018169Y-87824800D02*
X209065788Y-87777180D01*
X209065788Y-87777180D02*
X209065788Y-87443847D01*
X209065788Y-87443847D02*
X208875312Y-87443847D01*
X209922931Y-87872419D02*
X209922931Y-87348609D01*
X209922931Y-87348609D02*
X209875312Y-87253371D01*
X209875312Y-87253371D02*
X209780074Y-87205752D01*
X209780074Y-87205752D02*
X209589598Y-87205752D01*
X209589598Y-87205752D02*
X209494360Y-87253371D01*
X209922931Y-87824800D02*
X209827693Y-87872419D01*
X209827693Y-87872419D02*
X209589598Y-87872419D01*
X209589598Y-87872419D02*
X209494360Y-87824800D01*
X209494360Y-87824800D02*
X209446741Y-87729561D01*
X209446741Y-87729561D02*
X209446741Y-87634323D01*
X209446741Y-87634323D02*
X209494360Y-87539085D01*
X209494360Y-87539085D02*
X209589598Y-87491466D01*
X209589598Y-87491466D02*
X209827693Y-87491466D01*
X209827693Y-87491466D02*
X209922931Y-87443847D01*
X210256265Y-87205752D02*
X210637217Y-87205752D01*
X210399122Y-86872419D02*
X210399122Y-87729561D01*
X210399122Y-87729561D02*
X210446741Y-87824800D01*
X210446741Y-87824800D02*
X210541979Y-87872419D01*
X210541979Y-87872419D02*
X210637217Y-87872419D01*
X211351503Y-87824800D02*
X211256265Y-87872419D01*
X211256265Y-87872419D02*
X211065789Y-87872419D01*
X211065789Y-87872419D02*
X210970551Y-87824800D01*
X210970551Y-87824800D02*
X210922932Y-87729561D01*
X210922932Y-87729561D02*
X210922932Y-87348609D01*
X210922932Y-87348609D02*
X210970551Y-87253371D01*
X210970551Y-87253371D02*
X211065789Y-87205752D01*
X211065789Y-87205752D02*
X211256265Y-87205752D01*
X211256265Y-87205752D02*
X211351503Y-87253371D01*
X211351503Y-87253371D02*
X211399122Y-87348609D01*
X211399122Y-87348609D02*
X211399122Y-87443847D01*
X211399122Y-87443847D02*
X210922932Y-87539085D01*
D11*
G36*
X184988677Y-46649054D02*
G01*
X185006781Y-46652763D01*
X185029282Y-46665724D01*
X185050287Y-46680989D01*
X185065023Y-46699825D01*
X185069888Y-46722693D01*
X185069888Y-46774106D01*
X184980251Y-46774106D01*
X184980251Y-46760734D01*
X184977382Y-46746138D01*
X184969077Y-46735272D01*
X184957309Y-46729545D01*
X184936837Y-46727212D01*
X184743640Y-46727212D01*
X184724234Y-46729534D01*
X184711461Y-46735577D01*
X184705335Y-46745519D01*
X184703035Y-46760734D01*
X184703035Y-47115741D01*
X184705335Y-47130956D01*
X184711461Y-47140898D01*
X184724234Y-47146941D01*
X184743640Y-47149263D01*
X184936837Y-47149263D01*
X184957309Y-47146930D01*
X184969077Y-47141203D01*
X184977382Y-47130337D01*
X184980251Y-47115741D01*
X184980251Y-47102369D01*
X185069888Y-47102369D01*
X185069888Y-47153782D01*
X185065023Y-47176650D01*
X185050287Y-47195486D01*
X185029282Y-47210751D01*
X185006781Y-47223712D01*
X184988677Y-47227421D01*
X184691861Y-47227421D01*
X184674185Y-47223587D01*
X184654064Y-47210568D01*
X184634464Y-47195120D01*
X184618739Y-47176936D01*
X184613459Y-47153049D01*
X184613459Y-46723426D01*
X184618739Y-46699538D01*
X184634464Y-46681355D01*
X184654064Y-46665907D01*
X184674185Y-46652887D01*
X184691861Y-46649054D01*
X184988677Y-46649054D01*
G37*
G36*
X185140118Y-46526629D02*
G01*
X185174851Y-46548121D01*
X185208435Y-46576086D01*
X185227342Y-46596641D01*
X185238341Y-46619670D01*
X185242079Y-46646123D01*
X185242079Y-47234260D01*
X185238341Y-47260713D01*
X185227342Y-47283742D01*
X185208435Y-47304296D01*
X185174851Y-47332262D01*
X185140118Y-47353754D01*
X185107684Y-47360289D01*
X184561680Y-47360289D01*
X184529193Y-47353751D01*
X184494452Y-47332262D01*
X184460868Y-47304296D01*
X184441998Y-47283746D01*
X184431018Y-47260717D01*
X184427285Y-47234260D01*
X184427285Y-46694178D01*
X184514052Y-46694178D01*
X184514052Y-47186205D01*
X184517533Y-47226994D01*
X184539270Y-47250868D01*
X184556062Y-47264973D01*
X184582623Y-47283230D01*
X184616268Y-47286039D01*
X185053035Y-47286039D01*
X185086618Y-47283230D01*
X185113241Y-47264973D01*
X185130033Y-47250868D01*
X185151770Y-47226994D01*
X185155251Y-47186205D01*
X185155251Y-46694178D01*
X185151770Y-46653389D01*
X185130033Y-46629515D01*
X185113241Y-46615409D01*
X185086618Y-46597152D01*
X185053035Y-46594344D01*
X184616268Y-46594344D01*
X184582623Y-46597152D01*
X184556062Y-46615409D01*
X184539270Y-46629515D01*
X184517533Y-46653389D01*
X184514052Y-46694178D01*
X184427285Y-46694178D01*
X184427285Y-46646123D01*
X184431018Y-46619666D01*
X184441998Y-46596637D01*
X184460868Y-46576086D01*
X184494452Y-46548121D01*
X184529193Y-46526632D01*
X184561680Y-46520094D01*
X185107684Y-46520094D01*
X185140118Y-46526629D01*
G37*
G36*
X185934141Y-46965593D02*
G01*
X185599528Y-46965593D01*
X185567081Y-46959072D01*
X185532301Y-46937627D01*
X185494504Y-46905448D01*
X185472167Y-46878993D01*
X185465134Y-46849516D01*
X185465134Y-46559966D01*
X185468866Y-46533552D01*
X185479845Y-46510563D01*
X185498717Y-46490052D01*
X185532301Y-46462086D01*
X185567081Y-46440641D01*
X185599528Y-46434120D01*
X185971938Y-46434120D01*
X186004354Y-46440705D01*
X186039105Y-46462391D01*
X186072749Y-46490662D01*
X186091603Y-46511333D01*
X186102592Y-46534542D01*
X186106332Y-46561249D01*
X186106332Y-46617791D01*
X185988729Y-46617791D01*
X185988729Y-46590558D01*
X185986592Y-46562653D01*
X185971877Y-46546167D01*
X185952276Y-46533954D01*
X185920097Y-46531817D01*
X185651308Y-46531817D01*
X185619129Y-46533954D01*
X185599528Y-46545861D01*
X185584813Y-46561920D01*
X185582737Y-46589214D01*
X185582737Y-46810498D01*
X185584813Y-46837793D01*
X185599528Y-46853913D01*
X185619129Y-46865819D01*
X185651308Y-46867896D01*
X185985921Y-46867896D01*
X186018364Y-46874429D01*
X186053148Y-46895922D01*
X186086732Y-46924010D01*
X186105595Y-46944563D01*
X186116579Y-46967631D01*
X186120315Y-46994169D01*
X186120315Y-47288726D01*
X186116579Y-47315264D01*
X186105595Y-47338332D01*
X186086732Y-47358885D01*
X186053148Y-47386973D01*
X186018364Y-47408466D01*
X185985921Y-47415000D01*
X185585546Y-47415000D01*
X185553076Y-47408411D01*
X185518318Y-47386728D01*
X185484734Y-47358457D01*
X185465881Y-47337787D01*
X185454891Y-47314577D01*
X185451151Y-47287871D01*
X185451151Y-47231329D01*
X185568754Y-47231329D01*
X185568754Y-47258562D01*
X185570830Y-47286528D01*
X185585485Y-47303014D01*
X185605085Y-47315165D01*
X185637325Y-47317302D01*
X185934141Y-47317302D01*
X185966320Y-47315226D01*
X185985921Y-47303258D01*
X186000575Y-47287077D01*
X186002712Y-47259600D01*
X186002712Y-47023295D01*
X186000575Y-46995879D01*
X185985921Y-46979698D01*
X185966320Y-46967730D01*
X185934141Y-46965593D01*
G37*
G36*
X186391730Y-46719030D02*
G01*
X186417620Y-46736493D01*
X186435226Y-46755631D01*
X186440029Y-46771481D01*
X186445647Y-46771481D01*
X186451790Y-46756196D01*
X186476421Y-46736493D01*
X186510737Y-46718297D01*
X186545054Y-46715488D01*
X186812438Y-46715488D01*
X186844876Y-46722010D01*
X186879605Y-46743454D01*
X186913250Y-46771420D01*
X186932124Y-46791968D01*
X186943102Y-46814978D01*
X186946833Y-46841395D01*
X186946833Y-47289092D01*
X186943102Y-47315509D01*
X186932124Y-47338519D01*
X186913250Y-47359068D01*
X186879605Y-47387034D01*
X186844876Y-47408477D01*
X186812438Y-47415000D01*
X186565997Y-47415000D01*
X186531590Y-47408233D01*
X186498831Y-47386973D01*
X186470371Y-47355407D01*
X186465247Y-47345024D01*
X186459630Y-47345024D01*
X186459630Y-47778433D01*
X186342027Y-47778433D01*
X186342027Y-46884626D01*
X186459630Y-46884626D01*
X186459630Y-47233283D01*
X186467043Y-47259620D01*
X186493213Y-47289337D01*
X186527950Y-47310777D01*
X186560441Y-47317302D01*
X186760598Y-47317302D01*
X186792777Y-47315226D01*
X186812377Y-47303319D01*
X186827093Y-47287199D01*
X186829230Y-47259905D01*
X186829230Y-46870582D01*
X186827093Y-46843288D01*
X186812377Y-46827229D01*
X186792777Y-46815322D01*
X186760598Y-46813185D01*
X186561845Y-46813185D01*
X186527529Y-46815994D01*
X186493213Y-46834190D01*
X186463782Y-46856599D01*
X186459630Y-46884626D01*
X186342027Y-46884626D01*
X186342027Y-46870582D01*
X186339890Y-46843288D01*
X186325174Y-46827229D01*
X186310519Y-46811109D01*
X186308443Y-46783876D01*
X186308443Y-46715488D01*
X186357414Y-46715488D01*
X186391730Y-46719030D01*
G37*
G36*
X187603425Y-46721529D02*
G01*
X187642254Y-46743576D01*
X187677241Y-46771664D01*
X187695844Y-46790624D01*
X187706942Y-46813597D01*
X187710825Y-46841884D01*
X187710825Y-47129724D01*
X187232048Y-47129724D01*
X187232048Y-47260333D01*
X187234124Y-47287444D01*
X187248778Y-47303442D01*
X187268379Y-47315226D01*
X187300619Y-47317302D01*
X187572217Y-47317302D01*
X187606533Y-47313822D01*
X187640849Y-47289275D01*
X187724808Y-47359190D01*
X187691224Y-47387095D01*
X187656908Y-47411519D01*
X187622653Y-47415000D01*
X187248839Y-47415000D01*
X187216349Y-47408474D01*
X187181612Y-47387034D01*
X187148028Y-47359068D01*
X187129154Y-47338519D01*
X187118176Y-47315509D01*
X187114445Y-47289092D01*
X187114445Y-46871254D01*
X187232048Y-46871254D01*
X187232048Y-47039842D01*
X187593222Y-47039842D01*
X187593222Y-46871254D01*
X187591085Y-46843654D01*
X187576430Y-46827351D01*
X187556830Y-46815322D01*
X187524651Y-46813185D01*
X187300619Y-46813185D01*
X187268379Y-46815322D01*
X187248778Y-46827351D01*
X187234124Y-46843654D01*
X187232048Y-46871254D01*
X187114445Y-46871254D01*
X187114445Y-46841395D01*
X187118176Y-46814978D01*
X187129154Y-46791968D01*
X187148028Y-46771420D01*
X187181612Y-46743454D01*
X187216349Y-46722014D01*
X187248839Y-46715488D01*
X187575026Y-46715488D01*
X187603425Y-46721529D01*
G37*
G36*
X188367416Y-46721529D02*
G01*
X188406245Y-46743576D01*
X188441233Y-46771664D01*
X188459836Y-46790624D01*
X188470934Y-46813597D01*
X188474816Y-46841884D01*
X188474816Y-47129724D01*
X187996039Y-47129724D01*
X187996039Y-47260333D01*
X187998115Y-47287444D01*
X188012770Y-47303442D01*
X188032370Y-47315226D01*
X188064610Y-47317302D01*
X188336209Y-47317302D01*
X188370525Y-47313822D01*
X188404841Y-47289275D01*
X188488799Y-47359190D01*
X188455216Y-47387095D01*
X188420900Y-47411519D01*
X188386645Y-47415000D01*
X188012831Y-47415000D01*
X187980340Y-47408474D01*
X187945603Y-47387034D01*
X187912020Y-47359068D01*
X187893146Y-47338519D01*
X187882167Y-47315509D01*
X187878436Y-47289092D01*
X187878436Y-46871254D01*
X187996039Y-46871254D01*
X187996039Y-47039842D01*
X188357213Y-47039842D01*
X188357213Y-46871254D01*
X188355076Y-46843654D01*
X188340422Y-46827351D01*
X188320821Y-46815322D01*
X188288642Y-46813185D01*
X188064610Y-46813185D01*
X188032370Y-46815322D01*
X188012770Y-46827351D01*
X187998115Y-46843654D01*
X187996039Y-46871254D01*
X187878436Y-46871254D01*
X187878436Y-46841395D01*
X187882167Y-46814978D01*
X187893146Y-46791968D01*
X187912020Y-46771420D01*
X187945603Y-46743454D01*
X187980340Y-46722014D01*
X188012831Y-46715488D01*
X188339017Y-46715488D01*
X188367416Y-46721529D01*
G37*
G36*
X189247234Y-47259905D02*
G01*
X189249310Y-47287199D01*
X189263965Y-47303319D01*
X189278681Y-47319378D01*
X189280818Y-47346612D01*
X189280818Y-47415000D01*
X189231786Y-47415000D01*
X189197531Y-47411519D01*
X189171580Y-47393995D01*
X189154025Y-47374860D01*
X189149232Y-47359007D01*
X189143614Y-47359007D01*
X189137462Y-47374288D01*
X189112779Y-47393995D01*
X189078524Y-47412191D01*
X189044207Y-47415000D01*
X188776823Y-47415000D01*
X188744332Y-47408474D01*
X188709595Y-47387034D01*
X188676011Y-47359068D01*
X188657137Y-47338519D01*
X188646159Y-47315509D01*
X188642428Y-47289092D01*
X188642428Y-46870582D01*
X188760031Y-46870582D01*
X188760031Y-47259905D01*
X188762107Y-47287199D01*
X188776762Y-47303319D01*
X188796362Y-47315226D01*
X188828602Y-47317302D01*
X189027416Y-47317302D01*
X189061732Y-47314494D01*
X189095987Y-47296297D01*
X189125418Y-47273888D01*
X189129631Y-47245861D01*
X189129631Y-46897205D01*
X189122205Y-46870883D01*
X189095987Y-46841212D01*
X189061254Y-46819720D01*
X189028820Y-46813185D01*
X188828602Y-46813185D01*
X188796362Y-46815322D01*
X188776762Y-46827229D01*
X188762107Y-46843288D01*
X188760031Y-46870582D01*
X188642428Y-46870582D01*
X188642428Y-46841395D01*
X188646159Y-46814978D01*
X188657137Y-46791968D01*
X188676011Y-46771420D01*
X188709595Y-46743454D01*
X188744332Y-46722014D01*
X188776823Y-46715488D01*
X189023203Y-46715488D01*
X189055645Y-46722021D01*
X189090430Y-46743515D01*
X189118890Y-46775081D01*
X189124014Y-46785464D01*
X189129631Y-46785464D01*
X189129631Y-46379410D01*
X189247234Y-46379410D01*
X189247234Y-47259905D01*
G37*
G36*
X189899180Y-47778433D02*
G01*
X189495996Y-47778433D01*
X189495996Y-47742163D01*
X189499476Y-47702351D01*
X189521214Y-47680736D01*
X189864192Y-47680736D01*
X189896371Y-47678599D01*
X189915971Y-47666753D01*
X189930687Y-47650633D01*
X189932824Y-47623400D01*
X189932824Y-47347772D01*
X189927206Y-47347772D01*
X189919764Y-47361034D01*
X189893623Y-47386973D01*
X189858881Y-47408461D01*
X189826395Y-47415000D01*
X189582824Y-47415000D01*
X189550334Y-47408474D01*
X189515596Y-47387034D01*
X189482013Y-47359068D01*
X189463139Y-47338519D01*
X189452160Y-47315509D01*
X189448429Y-47289092D01*
X189448429Y-46715488D01*
X189566032Y-46715488D01*
X189566032Y-47259905D01*
X189568108Y-47287199D01*
X189582763Y-47303319D01*
X189602363Y-47315226D01*
X189634603Y-47317302D01*
X189813817Y-47317302D01*
X189848133Y-47314494D01*
X189882388Y-47296297D01*
X189911819Y-47273949D01*
X189916032Y-47245922D01*
X189916032Y-46715488D01*
X190033635Y-46715488D01*
X190033635Y-47652587D01*
X190029898Y-47678997D01*
X190018900Y-47701985D01*
X189999991Y-47722501D01*
X189966407Y-47750467D01*
X189931670Y-47771907D01*
X189899180Y-47778433D01*
G37*
G36*
X190973482Y-46617791D02*
G01*
X190855879Y-46617791D01*
X190855879Y-46590558D01*
X190853742Y-46562653D01*
X190839026Y-46546167D01*
X190819426Y-46533954D01*
X190787308Y-46531817D01*
X190442864Y-46531817D01*
X190410685Y-46533954D01*
X190391085Y-46545861D01*
X190376369Y-46561981D01*
X190374293Y-46589337D01*
X190374293Y-47259783D01*
X190376369Y-47287138D01*
X190391085Y-47303258D01*
X190410685Y-47315226D01*
X190442864Y-47317302D01*
X190787308Y-47317302D01*
X190819426Y-47315226D01*
X190839026Y-47303258D01*
X190853742Y-47287138D01*
X190855879Y-47259783D01*
X190855879Y-47008579D01*
X190643082Y-47008579D01*
X190643082Y-46910882D01*
X190973482Y-46910882D01*
X190973482Y-47288970D01*
X190969749Y-47315427D01*
X190958768Y-47338457D01*
X190939898Y-47359007D01*
X190906254Y-47386973D01*
X190871520Y-47408464D01*
X190839087Y-47415000D01*
X190391085Y-47415000D01*
X190358642Y-47408466D01*
X190323857Y-47386973D01*
X190290273Y-47358946D01*
X190271403Y-47338396D01*
X190260423Y-47315366D01*
X190256690Y-47288909D01*
X190256690Y-46560211D01*
X190260423Y-46533753D01*
X190271403Y-46510724D01*
X190290273Y-46490174D01*
X190323857Y-46462147D01*
X190358642Y-46440653D01*
X190391085Y-46434120D01*
X190839087Y-46434120D01*
X190871504Y-46440705D01*
X190906254Y-46462391D01*
X190939898Y-46490662D01*
X190958752Y-46511333D01*
X190969741Y-46534542D01*
X190973482Y-46561249D01*
X190973482Y-46617791D01*
G37*
G36*
X191666283Y-46722014D02*
G01*
X191701020Y-46743454D01*
X191734603Y-46771420D01*
X191753515Y-46791973D01*
X191764512Y-46814983D01*
X191768248Y-46841395D01*
X191768248Y-47289092D01*
X191764512Y-47315505D01*
X191753515Y-47338515D01*
X191734603Y-47359068D01*
X191701020Y-47387034D01*
X191666283Y-47408474D01*
X191633792Y-47415000D01*
X191297836Y-47415000D01*
X191265346Y-47408474D01*
X191230608Y-47387034D01*
X191197025Y-47359068D01*
X191178151Y-47338519D01*
X191167172Y-47315509D01*
X191163442Y-47289092D01*
X191163442Y-46870582D01*
X191281045Y-46870582D01*
X191281045Y-47259905D01*
X191283121Y-47287199D01*
X191297775Y-47303319D01*
X191317376Y-47315226D01*
X191349616Y-47317302D01*
X191582013Y-47317302D01*
X191614192Y-47315226D01*
X191633792Y-47303319D01*
X191648508Y-47287199D01*
X191650645Y-47259905D01*
X191650645Y-46870582D01*
X191648508Y-46843288D01*
X191633792Y-46827229D01*
X191614192Y-46815322D01*
X191582013Y-46813185D01*
X191349616Y-46813185D01*
X191317376Y-46815322D01*
X191297775Y-46827229D01*
X191283121Y-46843288D01*
X191281045Y-46870582D01*
X191163442Y-46870582D01*
X191163442Y-46841395D01*
X191167172Y-46814978D01*
X191178151Y-46791968D01*
X191197025Y-46771420D01*
X191230608Y-46743454D01*
X191265346Y-46722014D01*
X191297836Y-46715488D01*
X191633792Y-46715488D01*
X191666283Y-46722014D01*
G37*
G36*
X192195734Y-46770198D02*
G01*
X192512151Y-46770198D01*
X192544593Y-46776732D01*
X192579378Y-46798225D01*
X192612962Y-46826252D01*
X192631828Y-46846804D01*
X192642811Y-46869852D01*
X192646545Y-46896350D01*
X192646545Y-47288848D01*
X192642811Y-47315346D01*
X192631828Y-47338394D01*
X192612962Y-47358946D01*
X192579378Y-47386973D01*
X192544593Y-47408466D01*
X192512151Y-47415000D01*
X192092175Y-47415000D01*
X192059705Y-47408411D01*
X192024947Y-47386728D01*
X191991364Y-47358457D01*
X191972510Y-47337787D01*
X191961521Y-47314577D01*
X191957780Y-47287871D01*
X191957780Y-47231329D01*
X192075383Y-47231329D01*
X192075383Y-47258562D01*
X192077459Y-47286528D01*
X192092114Y-47303014D01*
X192111714Y-47315165D01*
X192143954Y-47317302D01*
X192460371Y-47317302D01*
X192492550Y-47315226D01*
X192512151Y-47303258D01*
X192526805Y-47287138D01*
X192528942Y-47259722D01*
X192528942Y-46925476D01*
X192526805Y-46898121D01*
X192512151Y-46881939D01*
X192492550Y-46870033D01*
X192460371Y-46867896D01*
X192190177Y-46867896D01*
X192157737Y-46874572D01*
X192122950Y-46896594D01*
X192096809Y-46926905D01*
X192089366Y-46953869D01*
X191971763Y-46953869D01*
X191971763Y-46434120D01*
X192629754Y-46434120D01*
X192629754Y-46531817D01*
X192089366Y-46531817D01*
X192089366Y-46838831D01*
X192094984Y-46838831D01*
X192101623Y-46823875D01*
X192125758Y-46801034D01*
X192167154Y-46776674D01*
X192195734Y-46770198D01*
G37*
G36*
X193108225Y-46770198D02*
G01*
X193424642Y-46770198D01*
X193457085Y-46776732D01*
X193491870Y-46798225D01*
X193525453Y-46826252D01*
X193544320Y-46846804D01*
X193555302Y-46869852D01*
X193559036Y-46896350D01*
X193559036Y-47288848D01*
X193555302Y-47315346D01*
X193544320Y-47338394D01*
X193525453Y-47358946D01*
X193491870Y-47386973D01*
X193457085Y-47408466D01*
X193424642Y-47415000D01*
X193004666Y-47415000D01*
X192972197Y-47408411D01*
X192937438Y-47386728D01*
X192903855Y-47358457D01*
X192885001Y-47337787D01*
X192874012Y-47314577D01*
X192870272Y-47287871D01*
X192870272Y-47231329D01*
X192987875Y-47231329D01*
X192987875Y-47258562D01*
X192989951Y-47286528D01*
X193004605Y-47303014D01*
X193024206Y-47315165D01*
X193056446Y-47317302D01*
X193372862Y-47317302D01*
X193405041Y-47315226D01*
X193424642Y-47303258D01*
X193439296Y-47287138D01*
X193441434Y-47259722D01*
X193441434Y-46925476D01*
X193439296Y-46898121D01*
X193424642Y-46881939D01*
X193405041Y-46870033D01*
X193372862Y-46867896D01*
X193102669Y-46867896D01*
X193070229Y-46874572D01*
X193035441Y-46896594D01*
X193009301Y-46926905D01*
X193001857Y-46953869D01*
X192884255Y-46953869D01*
X192884255Y-46434120D01*
X193542245Y-46434120D01*
X193542245Y-46531817D01*
X193001857Y-46531817D01*
X193001857Y-46838831D01*
X193007475Y-46838831D01*
X193014114Y-46823875D01*
X193038250Y-46801034D01*
X193079645Y-46776674D01*
X193108225Y-46770198D01*
G37*
D10*
X203208646Y-49872419D02*
X203875312Y-50872419D01*
X203875312Y-49872419D02*
X203208646Y-50872419D01*
X204446741Y-49872419D02*
X204637217Y-49872419D01*
X204637217Y-49872419D02*
X204732455Y-49920038D01*
X204732455Y-49920038D02*
X204827693Y-50015276D01*
X204827693Y-50015276D02*
X204875312Y-50205752D01*
X204875312Y-50205752D02*
X204875312Y-50539085D01*
X204875312Y-50539085D02*
X204827693Y-50729561D01*
X204827693Y-50729561D02*
X204732455Y-50824800D01*
X204732455Y-50824800D02*
X204637217Y-50872419D01*
X204637217Y-50872419D02*
X204446741Y-50872419D01*
X204446741Y-50872419D02*
X204351503Y-50824800D01*
X204351503Y-50824800D02*
X204256265Y-50729561D01*
X204256265Y-50729561D02*
X204208646Y-50539085D01*
X204208646Y-50539085D02*
X204208646Y-50205752D01*
X204208646Y-50205752D02*
X204256265Y-50015276D01*
X204256265Y-50015276D02*
X204351503Y-49920038D01*
X204351503Y-49920038D02*
X204446741Y-49872419D01*
X205875312Y-50872419D02*
X205541979Y-50396228D01*
X205303884Y-50872419D02*
X205303884Y-49872419D01*
X205303884Y-49872419D02*
X205684836Y-49872419D01*
X205684836Y-49872419D02*
X205780074Y-49920038D01*
X205780074Y-49920038D02*
X205827693Y-49967657D01*
X205827693Y-49967657D02*
X205875312Y-50062895D01*
X205875312Y-50062895D02*
X205875312Y-50205752D01*
X205875312Y-50205752D02*
X205827693Y-50300990D01*
X205827693Y-50300990D02*
X205780074Y-50348609D01*
X205780074Y-50348609D02*
X205684836Y-50396228D01*
X205684836Y-50396228D02*
X205303884Y-50396228D01*
X206303884Y-50491466D02*
X207065789Y-50491466D01*
X208065788Y-49920038D02*
X207970550Y-49872419D01*
X207970550Y-49872419D02*
X207827693Y-49872419D01*
X207827693Y-49872419D02*
X207684836Y-49920038D01*
X207684836Y-49920038D02*
X207589598Y-50015276D01*
X207589598Y-50015276D02*
X207541979Y-50110514D01*
X207541979Y-50110514D02*
X207494360Y-50300990D01*
X207494360Y-50300990D02*
X207494360Y-50443847D01*
X207494360Y-50443847D02*
X207541979Y-50634323D01*
X207541979Y-50634323D02*
X207589598Y-50729561D01*
X207589598Y-50729561D02*
X207684836Y-50824800D01*
X207684836Y-50824800D02*
X207827693Y-50872419D01*
X207827693Y-50872419D02*
X207922931Y-50872419D01*
X207922931Y-50872419D02*
X208065788Y-50824800D01*
X208065788Y-50824800D02*
X208113407Y-50777180D01*
X208113407Y-50777180D02*
X208113407Y-50443847D01*
X208113407Y-50443847D02*
X207922931Y-50443847D01*
X208970550Y-50872419D02*
X208970550Y-50348609D01*
X208970550Y-50348609D02*
X208922931Y-50253371D01*
X208922931Y-50253371D02*
X208827693Y-50205752D01*
X208827693Y-50205752D02*
X208637217Y-50205752D01*
X208637217Y-50205752D02*
X208541979Y-50253371D01*
X208970550Y-50824800D02*
X208875312Y-50872419D01*
X208875312Y-50872419D02*
X208637217Y-50872419D01*
X208637217Y-50872419D02*
X208541979Y-50824800D01*
X208541979Y-50824800D02*
X208494360Y-50729561D01*
X208494360Y-50729561D02*
X208494360Y-50634323D01*
X208494360Y-50634323D02*
X208541979Y-50539085D01*
X208541979Y-50539085D02*
X208637217Y-50491466D01*
X208637217Y-50491466D02*
X208875312Y-50491466D01*
X208875312Y-50491466D02*
X208970550Y-50443847D01*
X209303884Y-50205752D02*
X209684836Y-50205752D01*
X209446741Y-49872419D02*
X209446741Y-50729561D01*
X209446741Y-50729561D02*
X209494360Y-50824800D01*
X209494360Y-50824800D02*
X209589598Y-50872419D01*
X209589598Y-50872419D02*
X209684836Y-50872419D01*
X210399122Y-50824800D02*
X210303884Y-50872419D01*
X210303884Y-50872419D02*
X210113408Y-50872419D01*
X210113408Y-50872419D02*
X210018170Y-50824800D01*
X210018170Y-50824800D02*
X209970551Y-50729561D01*
X209970551Y-50729561D02*
X209970551Y-50348609D01*
X209970551Y-50348609D02*
X210018170Y-50253371D01*
X210018170Y-50253371D02*
X210113408Y-50205752D01*
X210113408Y-50205752D02*
X210303884Y-50205752D01*
X210303884Y-50205752D02*
X210399122Y-50253371D01*
X210399122Y-50253371D02*
X210446741Y-50348609D01*
X210446741Y-50348609D02*
X210446741Y-50443847D01*
X210446741Y-50443847D02*
X209970551Y-50539085D01*
X155256265Y-50586704D02*
X155732455Y-50586704D01*
X155161027Y-50872419D02*
X155494360Y-49872419D01*
X155494360Y-49872419D02*
X155827693Y-50872419D01*
X156161027Y-50872419D02*
X156161027Y-49872419D01*
X156161027Y-49872419D02*
X156732455Y-50872419D01*
X156732455Y-50872419D02*
X156732455Y-49872419D01*
X157208646Y-50872419D02*
X157208646Y-49872419D01*
X157208646Y-49872419D02*
X157446741Y-49872419D01*
X157446741Y-49872419D02*
X157589598Y-49920038D01*
X157589598Y-49920038D02*
X157684836Y-50015276D01*
X157684836Y-50015276D02*
X157732455Y-50110514D01*
X157732455Y-50110514D02*
X157780074Y-50300990D01*
X157780074Y-50300990D02*
X157780074Y-50443847D01*
X157780074Y-50443847D02*
X157732455Y-50634323D01*
X157732455Y-50634323D02*
X157684836Y-50729561D01*
X157684836Y-50729561D02*
X157589598Y-50824800D01*
X157589598Y-50824800D02*
X157446741Y-50872419D01*
X157446741Y-50872419D02*
X157208646Y-50872419D01*
X158208646Y-50491466D02*
X158970551Y-50491466D01*
X159970550Y-49920038D02*
X159875312Y-49872419D01*
X159875312Y-49872419D02*
X159732455Y-49872419D01*
X159732455Y-49872419D02*
X159589598Y-49920038D01*
X159589598Y-49920038D02*
X159494360Y-50015276D01*
X159494360Y-50015276D02*
X159446741Y-50110514D01*
X159446741Y-50110514D02*
X159399122Y-50300990D01*
X159399122Y-50300990D02*
X159399122Y-50443847D01*
X159399122Y-50443847D02*
X159446741Y-50634323D01*
X159446741Y-50634323D02*
X159494360Y-50729561D01*
X159494360Y-50729561D02*
X159589598Y-50824800D01*
X159589598Y-50824800D02*
X159732455Y-50872419D01*
X159732455Y-50872419D02*
X159827693Y-50872419D01*
X159827693Y-50872419D02*
X159970550Y-50824800D01*
X159970550Y-50824800D02*
X160018169Y-50777180D01*
X160018169Y-50777180D02*
X160018169Y-50443847D01*
X160018169Y-50443847D02*
X159827693Y-50443847D01*
X160875312Y-50872419D02*
X160875312Y-50348609D01*
X160875312Y-50348609D02*
X160827693Y-50253371D01*
X160827693Y-50253371D02*
X160732455Y-50205752D01*
X160732455Y-50205752D02*
X160541979Y-50205752D01*
X160541979Y-50205752D02*
X160446741Y-50253371D01*
X160875312Y-50824800D02*
X160780074Y-50872419D01*
X160780074Y-50872419D02*
X160541979Y-50872419D01*
X160541979Y-50872419D02*
X160446741Y-50824800D01*
X160446741Y-50824800D02*
X160399122Y-50729561D01*
X160399122Y-50729561D02*
X160399122Y-50634323D01*
X160399122Y-50634323D02*
X160446741Y-50539085D01*
X160446741Y-50539085D02*
X160541979Y-50491466D01*
X160541979Y-50491466D02*
X160780074Y-50491466D01*
X160780074Y-50491466D02*
X160875312Y-50443847D01*
X161208646Y-50205752D02*
X161589598Y-50205752D01*
X161351503Y-49872419D02*
X161351503Y-50729561D01*
X161351503Y-50729561D02*
X161399122Y-50824800D01*
X161399122Y-50824800D02*
X161494360Y-50872419D01*
X161494360Y-50872419D02*
X161589598Y-50872419D01*
X162303884Y-50824800D02*
X162208646Y-50872419D01*
X162208646Y-50872419D02*
X162018170Y-50872419D01*
X162018170Y-50872419D02*
X161922932Y-50824800D01*
X161922932Y-50824800D02*
X161875313Y-50729561D01*
X161875313Y-50729561D02*
X161875313Y-50348609D01*
X161875313Y-50348609D02*
X161922932Y-50253371D01*
X161922932Y-50253371D02*
X162018170Y-50205752D01*
X162018170Y-50205752D02*
X162208646Y-50205752D01*
X162208646Y-50205752D02*
X162303884Y-50253371D01*
X162303884Y-50253371D02*
X162351503Y-50348609D01*
X162351503Y-50348609D02*
X162351503Y-50443847D01*
X162351503Y-50443847D02*
X161875313Y-50539085D01*
D11*
X225167142Y-66954819D02*
X224833809Y-66478628D01*
X224595714Y-66954819D02*
X224595714Y-65954819D01*
X224595714Y-65954819D02*
X224976666Y-65954819D01*
X224976666Y-65954819D02*
X225071904Y-66002438D01*
X225071904Y-66002438D02*
X225119523Y-66050057D01*
X225119523Y-66050057D02*
X225167142Y-66145295D01*
X225167142Y-66145295D02*
X225167142Y-66288152D01*
X225167142Y-66288152D02*
X225119523Y-66383390D01*
X225119523Y-66383390D02*
X225071904Y-66431009D01*
X225071904Y-66431009D02*
X224976666Y-66478628D01*
X224976666Y-66478628D02*
X224595714Y-66478628D01*
X225548095Y-66050057D02*
X225595714Y-66002438D01*
X225595714Y-66002438D02*
X225690952Y-65954819D01*
X225690952Y-65954819D02*
X225929047Y-65954819D01*
X225929047Y-65954819D02*
X226024285Y-66002438D01*
X226024285Y-66002438D02*
X226071904Y-66050057D01*
X226071904Y-66050057D02*
X226119523Y-66145295D01*
X226119523Y-66145295D02*
X226119523Y-66240533D01*
X226119523Y-66240533D02*
X226071904Y-66383390D01*
X226071904Y-66383390D02*
X225500476Y-66954819D01*
X225500476Y-66954819D02*
X226119523Y-66954819D01*
X226500476Y-66050057D02*
X226548095Y-66002438D01*
X226548095Y-66002438D02*
X226643333Y-65954819D01*
X226643333Y-65954819D02*
X226881428Y-65954819D01*
X226881428Y-65954819D02*
X226976666Y-66002438D01*
X226976666Y-66002438D02*
X227024285Y-66050057D01*
X227024285Y-66050057D02*
X227071904Y-66145295D01*
X227071904Y-66145295D02*
X227071904Y-66240533D01*
X227071904Y-66240533D02*
X227024285Y-66383390D01*
X227024285Y-66383390D02*
X226452857Y-66954819D01*
X226452857Y-66954819D02*
X227071904Y-66954819D01*
X199454819Y-102442857D02*
X198978628Y-102776190D01*
X199454819Y-103014285D02*
X198454819Y-103014285D01*
X198454819Y-103014285D02*
X198454819Y-102633333D01*
X198454819Y-102633333D02*
X198502438Y-102538095D01*
X198502438Y-102538095D02*
X198550057Y-102490476D01*
X198550057Y-102490476D02*
X198645295Y-102442857D01*
X198645295Y-102442857D02*
X198788152Y-102442857D01*
X198788152Y-102442857D02*
X198883390Y-102490476D01*
X198883390Y-102490476D02*
X198931009Y-102538095D01*
X198931009Y-102538095D02*
X198978628Y-102633333D01*
X198978628Y-102633333D02*
X198978628Y-103014285D01*
X198550057Y-102061904D02*
X198502438Y-102014285D01*
X198502438Y-102014285D02*
X198454819Y-101919047D01*
X198454819Y-101919047D02*
X198454819Y-101680952D01*
X198454819Y-101680952D02*
X198502438Y-101585714D01*
X198502438Y-101585714D02*
X198550057Y-101538095D01*
X198550057Y-101538095D02*
X198645295Y-101490476D01*
X198645295Y-101490476D02*
X198740533Y-101490476D01*
X198740533Y-101490476D02*
X198883390Y-101538095D01*
X198883390Y-101538095D02*
X199454819Y-102109523D01*
X199454819Y-102109523D02*
X199454819Y-101490476D01*
X198454819Y-100871428D02*
X198454819Y-100776190D01*
X198454819Y-100776190D02*
X198502438Y-100680952D01*
X198502438Y-100680952D02*
X198550057Y-100633333D01*
X198550057Y-100633333D02*
X198645295Y-100585714D01*
X198645295Y-100585714D02*
X198835771Y-100538095D01*
X198835771Y-100538095D02*
X199073866Y-100538095D01*
X199073866Y-100538095D02*
X199264342Y-100585714D01*
X199264342Y-100585714D02*
X199359580Y-100633333D01*
X199359580Y-100633333D02*
X199407200Y-100680952D01*
X199407200Y-100680952D02*
X199454819Y-100776190D01*
X199454819Y-100776190D02*
X199454819Y-100871428D01*
X199454819Y-100871428D02*
X199407200Y-100966666D01*
X199407200Y-100966666D02*
X199359580Y-101014285D01*
X199359580Y-101014285D02*
X199264342Y-101061904D01*
X199264342Y-101061904D02*
X199073866Y-101109523D01*
X199073866Y-101109523D02*
X198835771Y-101109523D01*
X198835771Y-101109523D02*
X198645295Y-101061904D01*
X198645295Y-101061904D02*
X198550057Y-101014285D01*
X198550057Y-101014285D02*
X198502438Y-100966666D01*
X198502438Y-100966666D02*
X198454819Y-100871428D01*
X192991905Y-104454819D02*
X192991905Y-103454819D01*
X192991905Y-103454819D02*
X193230000Y-103454819D01*
X193230000Y-103454819D02*
X193372857Y-103502438D01*
X193372857Y-103502438D02*
X193468095Y-103597676D01*
X193468095Y-103597676D02*
X193515714Y-103692914D01*
X193515714Y-103692914D02*
X193563333Y-103883390D01*
X193563333Y-103883390D02*
X193563333Y-104026247D01*
X193563333Y-104026247D02*
X193515714Y-104216723D01*
X193515714Y-104216723D02*
X193468095Y-104311961D01*
X193468095Y-104311961D02*
X193372857Y-104407200D01*
X193372857Y-104407200D02*
X193230000Y-104454819D01*
X193230000Y-104454819D02*
X192991905Y-104454819D01*
X194468095Y-103454819D02*
X193991905Y-103454819D01*
X193991905Y-103454819D02*
X193944286Y-103931009D01*
X193944286Y-103931009D02*
X193991905Y-103883390D01*
X193991905Y-103883390D02*
X194087143Y-103835771D01*
X194087143Y-103835771D02*
X194325238Y-103835771D01*
X194325238Y-103835771D02*
X194420476Y-103883390D01*
X194420476Y-103883390D02*
X194468095Y-103931009D01*
X194468095Y-103931009D02*
X194515714Y-104026247D01*
X194515714Y-104026247D02*
X194515714Y-104264342D01*
X194515714Y-104264342D02*
X194468095Y-104359580D01*
X194468095Y-104359580D02*
X194420476Y-104407200D01*
X194420476Y-104407200D02*
X194325238Y-104454819D01*
X194325238Y-104454819D02*
X194087143Y-104454819D01*
X194087143Y-104454819D02*
X193991905Y-104407200D01*
X193991905Y-104407200D02*
X193944286Y-104359580D01*
X235550057Y-62095238D02*
X235502438Y-62190476D01*
X235502438Y-62190476D02*
X235407200Y-62285714D01*
X235407200Y-62285714D02*
X235264342Y-62428571D01*
X235264342Y-62428571D02*
X235216723Y-62523809D01*
X235216723Y-62523809D02*
X235216723Y-62619047D01*
X235454819Y-62571428D02*
X235407200Y-62666666D01*
X235407200Y-62666666D02*
X235311961Y-62761904D01*
X235311961Y-62761904D02*
X235121485Y-62809523D01*
X235121485Y-62809523D02*
X234788152Y-62809523D01*
X234788152Y-62809523D02*
X234597676Y-62761904D01*
X234597676Y-62761904D02*
X234502438Y-62666666D01*
X234502438Y-62666666D02*
X234454819Y-62571428D01*
X234454819Y-62571428D02*
X234454819Y-62380952D01*
X234454819Y-62380952D02*
X234502438Y-62285714D01*
X234502438Y-62285714D02*
X234597676Y-62190476D01*
X234597676Y-62190476D02*
X234788152Y-62142857D01*
X234788152Y-62142857D02*
X235121485Y-62142857D01*
X235121485Y-62142857D02*
X235311961Y-62190476D01*
X235311961Y-62190476D02*
X235407200Y-62285714D01*
X235407200Y-62285714D02*
X235454819Y-62380952D01*
X235454819Y-62380952D02*
X235454819Y-62571428D01*
X234788152Y-61285714D02*
X235454819Y-61285714D01*
X234407200Y-61523809D02*
X235121485Y-61761904D01*
X235121485Y-61761904D02*
X235121485Y-61142857D01*
X239750057Y-68825238D02*
X239702438Y-68920476D01*
X239702438Y-68920476D02*
X239607200Y-69015714D01*
X239607200Y-69015714D02*
X239464342Y-69158571D01*
X239464342Y-69158571D02*
X239416723Y-69253809D01*
X239416723Y-69253809D02*
X239416723Y-69349047D01*
X239654819Y-69301428D02*
X239607200Y-69396666D01*
X239607200Y-69396666D02*
X239511961Y-69491904D01*
X239511961Y-69491904D02*
X239321485Y-69539523D01*
X239321485Y-69539523D02*
X238988152Y-69539523D01*
X238988152Y-69539523D02*
X238797676Y-69491904D01*
X238797676Y-69491904D02*
X238702438Y-69396666D01*
X238702438Y-69396666D02*
X238654819Y-69301428D01*
X238654819Y-69301428D02*
X238654819Y-69110952D01*
X238654819Y-69110952D02*
X238702438Y-69015714D01*
X238702438Y-69015714D02*
X238797676Y-68920476D01*
X238797676Y-68920476D02*
X238988152Y-68872857D01*
X238988152Y-68872857D02*
X239321485Y-68872857D01*
X239321485Y-68872857D02*
X239511961Y-68920476D01*
X239511961Y-68920476D02*
X239607200Y-69015714D01*
X239607200Y-69015714D02*
X239654819Y-69110952D01*
X239654819Y-69110952D02*
X239654819Y-69301428D01*
X238654819Y-67968095D02*
X238654819Y-68444285D01*
X238654819Y-68444285D02*
X239131009Y-68491904D01*
X239131009Y-68491904D02*
X239083390Y-68444285D01*
X239083390Y-68444285D02*
X239035771Y-68349047D01*
X239035771Y-68349047D02*
X239035771Y-68110952D01*
X239035771Y-68110952D02*
X239083390Y-68015714D01*
X239083390Y-68015714D02*
X239131009Y-67968095D01*
X239131009Y-67968095D02*
X239226247Y-67920476D01*
X239226247Y-67920476D02*
X239464342Y-67920476D01*
X239464342Y-67920476D02*
X239559580Y-67968095D01*
X239559580Y-67968095D02*
X239607200Y-68015714D01*
X239607200Y-68015714D02*
X239654819Y-68110952D01*
X239654819Y-68110952D02*
X239654819Y-68349047D01*
X239654819Y-68349047D02*
X239607200Y-68444285D01*
X239607200Y-68444285D02*
X239559580Y-68491904D01*
X225750057Y-75095238D02*
X225702438Y-75190476D01*
X225702438Y-75190476D02*
X225607200Y-75285714D01*
X225607200Y-75285714D02*
X225464342Y-75428571D01*
X225464342Y-75428571D02*
X225416723Y-75523809D01*
X225416723Y-75523809D02*
X225416723Y-75619047D01*
X225654819Y-75571428D02*
X225607200Y-75666666D01*
X225607200Y-75666666D02*
X225511961Y-75761904D01*
X225511961Y-75761904D02*
X225321485Y-75809523D01*
X225321485Y-75809523D02*
X224988152Y-75809523D01*
X224988152Y-75809523D02*
X224797676Y-75761904D01*
X224797676Y-75761904D02*
X224702438Y-75666666D01*
X224702438Y-75666666D02*
X224654819Y-75571428D01*
X224654819Y-75571428D02*
X224654819Y-75380952D01*
X224654819Y-75380952D02*
X224702438Y-75285714D01*
X224702438Y-75285714D02*
X224797676Y-75190476D01*
X224797676Y-75190476D02*
X224988152Y-75142857D01*
X224988152Y-75142857D02*
X225321485Y-75142857D01*
X225321485Y-75142857D02*
X225511961Y-75190476D01*
X225511961Y-75190476D02*
X225607200Y-75285714D01*
X225607200Y-75285714D02*
X225654819Y-75380952D01*
X225654819Y-75380952D02*
X225654819Y-75571428D01*
X225654819Y-74666666D02*
X225654819Y-74476190D01*
X225654819Y-74476190D02*
X225607200Y-74380952D01*
X225607200Y-74380952D02*
X225559580Y-74333333D01*
X225559580Y-74333333D02*
X225416723Y-74238095D01*
X225416723Y-74238095D02*
X225226247Y-74190476D01*
X225226247Y-74190476D02*
X224845295Y-74190476D01*
X224845295Y-74190476D02*
X224750057Y-74238095D01*
X224750057Y-74238095D02*
X224702438Y-74285714D01*
X224702438Y-74285714D02*
X224654819Y-74380952D01*
X224654819Y-74380952D02*
X224654819Y-74571428D01*
X224654819Y-74571428D02*
X224702438Y-74666666D01*
X224702438Y-74666666D02*
X224750057Y-74714285D01*
X224750057Y-74714285D02*
X224845295Y-74761904D01*
X224845295Y-74761904D02*
X225083390Y-74761904D01*
X225083390Y-74761904D02*
X225178628Y-74714285D01*
X225178628Y-74714285D02*
X225226247Y-74666666D01*
X225226247Y-74666666D02*
X225273866Y-74571428D01*
X225273866Y-74571428D02*
X225273866Y-74380952D01*
X225273866Y-74380952D02*
X225226247Y-74285714D01*
X225226247Y-74285714D02*
X225178628Y-74238095D01*
X225178628Y-74238095D02*
X225083390Y-74190476D01*
X239750057Y-79095238D02*
X239702438Y-79190476D01*
X239702438Y-79190476D02*
X239607200Y-79285714D01*
X239607200Y-79285714D02*
X239464342Y-79428571D01*
X239464342Y-79428571D02*
X239416723Y-79523809D01*
X239416723Y-79523809D02*
X239416723Y-79619047D01*
X239654819Y-79571428D02*
X239607200Y-79666666D01*
X239607200Y-79666666D02*
X239511961Y-79761904D01*
X239511961Y-79761904D02*
X239321485Y-79809523D01*
X239321485Y-79809523D02*
X238988152Y-79809523D01*
X238988152Y-79809523D02*
X238797676Y-79761904D01*
X238797676Y-79761904D02*
X238702438Y-79666666D01*
X238702438Y-79666666D02*
X238654819Y-79571428D01*
X238654819Y-79571428D02*
X238654819Y-79380952D01*
X238654819Y-79380952D02*
X238702438Y-79285714D01*
X238702438Y-79285714D02*
X238797676Y-79190476D01*
X238797676Y-79190476D02*
X238988152Y-79142857D01*
X238988152Y-79142857D02*
X239321485Y-79142857D01*
X239321485Y-79142857D02*
X239511961Y-79190476D01*
X239511961Y-79190476D02*
X239607200Y-79285714D01*
X239607200Y-79285714D02*
X239654819Y-79380952D01*
X239654819Y-79380952D02*
X239654819Y-79571428D01*
X239083390Y-78571428D02*
X239035771Y-78666666D01*
X239035771Y-78666666D02*
X238988152Y-78714285D01*
X238988152Y-78714285D02*
X238892914Y-78761904D01*
X238892914Y-78761904D02*
X238845295Y-78761904D01*
X238845295Y-78761904D02*
X238750057Y-78714285D01*
X238750057Y-78714285D02*
X238702438Y-78666666D01*
X238702438Y-78666666D02*
X238654819Y-78571428D01*
X238654819Y-78571428D02*
X238654819Y-78380952D01*
X238654819Y-78380952D02*
X238702438Y-78285714D01*
X238702438Y-78285714D02*
X238750057Y-78238095D01*
X238750057Y-78238095D02*
X238845295Y-78190476D01*
X238845295Y-78190476D02*
X238892914Y-78190476D01*
X238892914Y-78190476D02*
X238988152Y-78238095D01*
X238988152Y-78238095D02*
X239035771Y-78285714D01*
X239035771Y-78285714D02*
X239083390Y-78380952D01*
X239083390Y-78380952D02*
X239083390Y-78571428D01*
X239083390Y-78571428D02*
X239131009Y-78666666D01*
X239131009Y-78666666D02*
X239178628Y-78714285D01*
X239178628Y-78714285D02*
X239273866Y-78761904D01*
X239273866Y-78761904D02*
X239464342Y-78761904D01*
X239464342Y-78761904D02*
X239559580Y-78714285D01*
X239559580Y-78714285D02*
X239607200Y-78666666D01*
X239607200Y-78666666D02*
X239654819Y-78571428D01*
X239654819Y-78571428D02*
X239654819Y-78380952D01*
X239654819Y-78380952D02*
X239607200Y-78285714D01*
X239607200Y-78285714D02*
X239559580Y-78238095D01*
X239559580Y-78238095D02*
X239464342Y-78190476D01*
X239464342Y-78190476D02*
X239273866Y-78190476D01*
X239273866Y-78190476D02*
X239178628Y-78238095D01*
X239178628Y-78238095D02*
X239131009Y-78285714D01*
X239131009Y-78285714D02*
X239083390Y-78380952D01*
X239833333Y-54454819D02*
X239500000Y-53978628D01*
X239261905Y-54454819D02*
X239261905Y-53454819D01*
X239261905Y-53454819D02*
X239642857Y-53454819D01*
X239642857Y-53454819D02*
X239738095Y-53502438D01*
X239738095Y-53502438D02*
X239785714Y-53550057D01*
X239785714Y-53550057D02*
X239833333Y-53645295D01*
X239833333Y-53645295D02*
X239833333Y-53788152D01*
X239833333Y-53788152D02*
X239785714Y-53883390D01*
X239785714Y-53883390D02*
X239738095Y-53931009D01*
X239738095Y-53931009D02*
X239642857Y-53978628D01*
X239642857Y-53978628D02*
X239261905Y-53978628D01*
X240690476Y-53788152D02*
X240690476Y-54454819D01*
X240452381Y-53407200D02*
X240214286Y-54121485D01*
X240214286Y-54121485D02*
X240833333Y-54121485D01*
X223833333Y-56454819D02*
X223500000Y-55978628D01*
X223261905Y-56454819D02*
X223261905Y-55454819D01*
X223261905Y-55454819D02*
X223642857Y-55454819D01*
X223642857Y-55454819D02*
X223738095Y-55502438D01*
X223738095Y-55502438D02*
X223785714Y-55550057D01*
X223785714Y-55550057D02*
X223833333Y-55645295D01*
X223833333Y-55645295D02*
X223833333Y-55788152D01*
X223833333Y-55788152D02*
X223785714Y-55883390D01*
X223785714Y-55883390D02*
X223738095Y-55931009D01*
X223738095Y-55931009D02*
X223642857Y-55978628D01*
X223642857Y-55978628D02*
X223261905Y-55978628D01*
X224738095Y-55454819D02*
X224261905Y-55454819D01*
X224261905Y-55454819D02*
X224214286Y-55931009D01*
X224214286Y-55931009D02*
X224261905Y-55883390D01*
X224261905Y-55883390D02*
X224357143Y-55835771D01*
X224357143Y-55835771D02*
X224595238Y-55835771D01*
X224595238Y-55835771D02*
X224690476Y-55883390D01*
X224690476Y-55883390D02*
X224738095Y-55931009D01*
X224738095Y-55931009D02*
X224785714Y-56026247D01*
X224785714Y-56026247D02*
X224785714Y-56264342D01*
X224785714Y-56264342D02*
X224738095Y-56359580D01*
X224738095Y-56359580D02*
X224690476Y-56407200D01*
X224690476Y-56407200D02*
X224595238Y-56454819D01*
X224595238Y-56454819D02*
X224357143Y-56454819D01*
X224357143Y-56454819D02*
X224261905Y-56407200D01*
X224261905Y-56407200D02*
X224214286Y-56359580D01*
X223833333Y-62454819D02*
X223500000Y-61978628D01*
X223261905Y-62454819D02*
X223261905Y-61454819D01*
X223261905Y-61454819D02*
X223642857Y-61454819D01*
X223642857Y-61454819D02*
X223738095Y-61502438D01*
X223738095Y-61502438D02*
X223785714Y-61550057D01*
X223785714Y-61550057D02*
X223833333Y-61645295D01*
X223833333Y-61645295D02*
X223833333Y-61788152D01*
X223833333Y-61788152D02*
X223785714Y-61883390D01*
X223785714Y-61883390D02*
X223738095Y-61931009D01*
X223738095Y-61931009D02*
X223642857Y-61978628D01*
X223642857Y-61978628D02*
X223261905Y-61978628D01*
X224166667Y-61454819D02*
X224833333Y-61454819D01*
X224833333Y-61454819D02*
X224404762Y-62454819D01*
X173833333Y-79454819D02*
X173500000Y-78978628D01*
X173261905Y-79454819D02*
X173261905Y-78454819D01*
X173261905Y-78454819D02*
X173642857Y-78454819D01*
X173642857Y-78454819D02*
X173738095Y-78502438D01*
X173738095Y-78502438D02*
X173785714Y-78550057D01*
X173785714Y-78550057D02*
X173833333Y-78645295D01*
X173833333Y-78645295D02*
X173833333Y-78788152D01*
X173833333Y-78788152D02*
X173785714Y-78883390D01*
X173785714Y-78883390D02*
X173738095Y-78931009D01*
X173738095Y-78931009D02*
X173642857Y-78978628D01*
X173642857Y-78978628D02*
X173261905Y-78978628D01*
X174404762Y-78883390D02*
X174309524Y-78835771D01*
X174309524Y-78835771D02*
X174261905Y-78788152D01*
X174261905Y-78788152D02*
X174214286Y-78692914D01*
X174214286Y-78692914D02*
X174214286Y-78645295D01*
X174214286Y-78645295D02*
X174261905Y-78550057D01*
X174261905Y-78550057D02*
X174309524Y-78502438D01*
X174309524Y-78502438D02*
X174404762Y-78454819D01*
X174404762Y-78454819D02*
X174595238Y-78454819D01*
X174595238Y-78454819D02*
X174690476Y-78502438D01*
X174690476Y-78502438D02*
X174738095Y-78550057D01*
X174738095Y-78550057D02*
X174785714Y-78645295D01*
X174785714Y-78645295D02*
X174785714Y-78692914D01*
X174785714Y-78692914D02*
X174738095Y-78788152D01*
X174738095Y-78788152D02*
X174690476Y-78835771D01*
X174690476Y-78835771D02*
X174595238Y-78883390D01*
X174595238Y-78883390D02*
X174404762Y-78883390D01*
X174404762Y-78883390D02*
X174309524Y-78931009D01*
X174309524Y-78931009D02*
X174261905Y-78978628D01*
X174261905Y-78978628D02*
X174214286Y-79073866D01*
X174214286Y-79073866D02*
X174214286Y-79264342D01*
X174214286Y-79264342D02*
X174261905Y-79359580D01*
X174261905Y-79359580D02*
X174309524Y-79407200D01*
X174309524Y-79407200D02*
X174404762Y-79454819D01*
X174404762Y-79454819D02*
X174595238Y-79454819D01*
X174595238Y-79454819D02*
X174690476Y-79407200D01*
X174690476Y-79407200D02*
X174738095Y-79359580D01*
X174738095Y-79359580D02*
X174785714Y-79264342D01*
X174785714Y-79264342D02*
X174785714Y-79073866D01*
X174785714Y-79073866D02*
X174738095Y-78978628D01*
X174738095Y-78978628D02*
X174690476Y-78931009D01*
X174690476Y-78931009D02*
X174595238Y-78883390D01*
X193833333Y-78454819D02*
X193500000Y-77978628D01*
X193261905Y-78454819D02*
X193261905Y-77454819D01*
X193261905Y-77454819D02*
X193642857Y-77454819D01*
X193642857Y-77454819D02*
X193738095Y-77502438D01*
X193738095Y-77502438D02*
X193785714Y-77550057D01*
X193785714Y-77550057D02*
X193833333Y-77645295D01*
X193833333Y-77645295D02*
X193833333Y-77788152D01*
X193833333Y-77788152D02*
X193785714Y-77883390D01*
X193785714Y-77883390D02*
X193738095Y-77931009D01*
X193738095Y-77931009D02*
X193642857Y-77978628D01*
X193642857Y-77978628D02*
X193261905Y-77978628D01*
X194309524Y-78454819D02*
X194500000Y-78454819D01*
X194500000Y-78454819D02*
X194595238Y-78407200D01*
X194595238Y-78407200D02*
X194642857Y-78359580D01*
X194642857Y-78359580D02*
X194738095Y-78216723D01*
X194738095Y-78216723D02*
X194785714Y-78026247D01*
X194785714Y-78026247D02*
X194785714Y-77645295D01*
X194785714Y-77645295D02*
X194738095Y-77550057D01*
X194738095Y-77550057D02*
X194690476Y-77502438D01*
X194690476Y-77502438D02*
X194595238Y-77454819D01*
X194595238Y-77454819D02*
X194404762Y-77454819D01*
X194404762Y-77454819D02*
X194309524Y-77502438D01*
X194309524Y-77502438D02*
X194261905Y-77550057D01*
X194261905Y-77550057D02*
X194214286Y-77645295D01*
X194214286Y-77645295D02*
X194214286Y-77883390D01*
X194214286Y-77883390D02*
X194261905Y-77978628D01*
X194261905Y-77978628D02*
X194309524Y-78026247D01*
X194309524Y-78026247D02*
X194404762Y-78073866D01*
X194404762Y-78073866D02*
X194595238Y-78073866D01*
X194595238Y-78073866D02*
X194690476Y-78026247D01*
X194690476Y-78026247D02*
X194738095Y-77978628D01*
X194738095Y-77978628D02*
X194785714Y-77883390D01*
X173357142Y-87454819D02*
X173023809Y-86978628D01*
X172785714Y-87454819D02*
X172785714Y-86454819D01*
X172785714Y-86454819D02*
X173166666Y-86454819D01*
X173166666Y-86454819D02*
X173261904Y-86502438D01*
X173261904Y-86502438D02*
X173309523Y-86550057D01*
X173309523Y-86550057D02*
X173357142Y-86645295D01*
X173357142Y-86645295D02*
X173357142Y-86788152D01*
X173357142Y-86788152D02*
X173309523Y-86883390D01*
X173309523Y-86883390D02*
X173261904Y-86931009D01*
X173261904Y-86931009D02*
X173166666Y-86978628D01*
X173166666Y-86978628D02*
X172785714Y-86978628D01*
X174309523Y-87454819D02*
X173738095Y-87454819D01*
X174023809Y-87454819D02*
X174023809Y-86454819D01*
X174023809Y-86454819D02*
X173928571Y-86597676D01*
X173928571Y-86597676D02*
X173833333Y-86692914D01*
X173833333Y-86692914D02*
X173738095Y-86740533D01*
X175261904Y-87454819D02*
X174690476Y-87454819D01*
X174976190Y-87454819D02*
X174976190Y-86454819D01*
X174976190Y-86454819D02*
X174880952Y-86597676D01*
X174880952Y-86597676D02*
X174785714Y-86692914D01*
X174785714Y-86692914D02*
X174690476Y-86740533D01*
X219357142Y-75454819D02*
X219023809Y-74978628D01*
X218785714Y-75454819D02*
X218785714Y-74454819D01*
X218785714Y-74454819D02*
X219166666Y-74454819D01*
X219166666Y-74454819D02*
X219261904Y-74502438D01*
X219261904Y-74502438D02*
X219309523Y-74550057D01*
X219309523Y-74550057D02*
X219357142Y-74645295D01*
X219357142Y-74645295D02*
X219357142Y-74788152D01*
X219357142Y-74788152D02*
X219309523Y-74883390D01*
X219309523Y-74883390D02*
X219261904Y-74931009D01*
X219261904Y-74931009D02*
X219166666Y-74978628D01*
X219166666Y-74978628D02*
X218785714Y-74978628D01*
X220309523Y-75454819D02*
X219738095Y-75454819D01*
X220023809Y-75454819D02*
X220023809Y-74454819D01*
X220023809Y-74454819D02*
X219928571Y-74597676D01*
X219928571Y-74597676D02*
X219833333Y-74692914D01*
X219833333Y-74692914D02*
X219738095Y-74740533D01*
X220642857Y-74454819D02*
X221261904Y-74454819D01*
X221261904Y-74454819D02*
X220928571Y-74835771D01*
X220928571Y-74835771D02*
X221071428Y-74835771D01*
X221071428Y-74835771D02*
X221166666Y-74883390D01*
X221166666Y-74883390D02*
X221214285Y-74931009D01*
X221214285Y-74931009D02*
X221261904Y-75026247D01*
X221261904Y-75026247D02*
X221261904Y-75264342D01*
X221261904Y-75264342D02*
X221214285Y-75359580D01*
X221214285Y-75359580D02*
X221166666Y-75407200D01*
X221166666Y-75407200D02*
X221071428Y-75454819D01*
X221071428Y-75454819D02*
X220785714Y-75454819D01*
X220785714Y-75454819D02*
X220690476Y-75407200D01*
X220690476Y-75407200D02*
X220642857Y-75359580D01*
X236454819Y-75642857D02*
X235978628Y-75976190D01*
X236454819Y-76214285D02*
X235454819Y-76214285D01*
X235454819Y-76214285D02*
X235454819Y-75833333D01*
X235454819Y-75833333D02*
X235502438Y-75738095D01*
X235502438Y-75738095D02*
X235550057Y-75690476D01*
X235550057Y-75690476D02*
X235645295Y-75642857D01*
X235645295Y-75642857D02*
X235788152Y-75642857D01*
X235788152Y-75642857D02*
X235883390Y-75690476D01*
X235883390Y-75690476D02*
X235931009Y-75738095D01*
X235931009Y-75738095D02*
X235978628Y-75833333D01*
X235978628Y-75833333D02*
X235978628Y-76214285D01*
X236454819Y-74690476D02*
X236454819Y-75261904D01*
X236454819Y-74976190D02*
X235454819Y-74976190D01*
X235454819Y-74976190D02*
X235597676Y-75071428D01*
X235597676Y-75071428D02*
X235692914Y-75166666D01*
X235692914Y-75166666D02*
X235740533Y-75261904D01*
X235550057Y-74309523D02*
X235502438Y-74261904D01*
X235502438Y-74261904D02*
X235454819Y-74166666D01*
X235454819Y-74166666D02*
X235454819Y-73928571D01*
X235454819Y-73928571D02*
X235502438Y-73833333D01*
X235502438Y-73833333D02*
X235550057Y-73785714D01*
X235550057Y-73785714D02*
X235645295Y-73738095D01*
X235645295Y-73738095D02*
X235740533Y-73738095D01*
X235740533Y-73738095D02*
X235883390Y-73785714D01*
X235883390Y-73785714D02*
X236454819Y-74357142D01*
X236454819Y-74357142D02*
X236454819Y-73738095D01*
X219357142Y-81454819D02*
X219023809Y-80978628D01*
X218785714Y-81454819D02*
X218785714Y-80454819D01*
X218785714Y-80454819D02*
X219166666Y-80454819D01*
X219166666Y-80454819D02*
X219261904Y-80502438D01*
X219261904Y-80502438D02*
X219309523Y-80550057D01*
X219309523Y-80550057D02*
X219357142Y-80645295D01*
X219357142Y-80645295D02*
X219357142Y-80788152D01*
X219357142Y-80788152D02*
X219309523Y-80883390D01*
X219309523Y-80883390D02*
X219261904Y-80931009D01*
X219261904Y-80931009D02*
X219166666Y-80978628D01*
X219166666Y-80978628D02*
X218785714Y-80978628D01*
X220309523Y-81454819D02*
X219738095Y-81454819D01*
X220023809Y-81454819D02*
X220023809Y-80454819D01*
X220023809Y-80454819D02*
X219928571Y-80597676D01*
X219928571Y-80597676D02*
X219833333Y-80692914D01*
X219833333Y-80692914D02*
X219738095Y-80740533D01*
X221166666Y-80788152D02*
X221166666Y-81454819D01*
X220928571Y-80407200D02*
X220690476Y-81121485D01*
X220690476Y-81121485D02*
X221309523Y-81121485D01*
X220357142Y-71454819D02*
X220023809Y-70978628D01*
X219785714Y-71454819D02*
X219785714Y-70454819D01*
X219785714Y-70454819D02*
X220166666Y-70454819D01*
X220166666Y-70454819D02*
X220261904Y-70502438D01*
X220261904Y-70502438D02*
X220309523Y-70550057D01*
X220309523Y-70550057D02*
X220357142Y-70645295D01*
X220357142Y-70645295D02*
X220357142Y-70788152D01*
X220357142Y-70788152D02*
X220309523Y-70883390D01*
X220309523Y-70883390D02*
X220261904Y-70931009D01*
X220261904Y-70931009D02*
X220166666Y-70978628D01*
X220166666Y-70978628D02*
X219785714Y-70978628D01*
X221309523Y-71454819D02*
X220738095Y-71454819D01*
X221023809Y-71454819D02*
X221023809Y-70454819D01*
X221023809Y-70454819D02*
X220928571Y-70597676D01*
X220928571Y-70597676D02*
X220833333Y-70692914D01*
X220833333Y-70692914D02*
X220738095Y-70740533D01*
X221928571Y-70454819D02*
X222023809Y-70454819D01*
X222023809Y-70454819D02*
X222119047Y-70502438D01*
X222119047Y-70502438D02*
X222166666Y-70550057D01*
X222166666Y-70550057D02*
X222214285Y-70645295D01*
X222214285Y-70645295D02*
X222261904Y-70835771D01*
X222261904Y-70835771D02*
X222261904Y-71073866D01*
X222261904Y-71073866D02*
X222214285Y-71264342D01*
X222214285Y-71264342D02*
X222166666Y-71359580D01*
X222166666Y-71359580D02*
X222119047Y-71407200D01*
X222119047Y-71407200D02*
X222023809Y-71454819D01*
X222023809Y-71454819D02*
X221928571Y-71454819D01*
X221928571Y-71454819D02*
X221833333Y-71407200D01*
X221833333Y-71407200D02*
X221785714Y-71359580D01*
X221785714Y-71359580D02*
X221738095Y-71264342D01*
X221738095Y-71264342D02*
X221690476Y-71073866D01*
X221690476Y-71073866D02*
X221690476Y-70835771D01*
X221690476Y-70835771D02*
X221738095Y-70645295D01*
X221738095Y-70645295D02*
X221785714Y-70550057D01*
X221785714Y-70550057D02*
X221833333Y-70502438D01*
X221833333Y-70502438D02*
X221928571Y-70454819D01*
X240547142Y-91454819D02*
X240213809Y-90978628D01*
X239975714Y-91454819D02*
X239975714Y-90454819D01*
X239975714Y-90454819D02*
X240356666Y-90454819D01*
X240356666Y-90454819D02*
X240451904Y-90502438D01*
X240451904Y-90502438D02*
X240499523Y-90550057D01*
X240499523Y-90550057D02*
X240547142Y-90645295D01*
X240547142Y-90645295D02*
X240547142Y-90788152D01*
X240547142Y-90788152D02*
X240499523Y-90883390D01*
X240499523Y-90883390D02*
X240451904Y-90931009D01*
X240451904Y-90931009D02*
X240356666Y-90978628D01*
X240356666Y-90978628D02*
X239975714Y-90978628D01*
X241499523Y-91454819D02*
X240928095Y-91454819D01*
X241213809Y-91454819D02*
X241213809Y-90454819D01*
X241213809Y-90454819D02*
X241118571Y-90597676D01*
X241118571Y-90597676D02*
X241023333Y-90692914D01*
X241023333Y-90692914D02*
X240928095Y-90740533D01*
X242404285Y-90454819D02*
X241928095Y-90454819D01*
X241928095Y-90454819D02*
X241880476Y-90931009D01*
X241880476Y-90931009D02*
X241928095Y-90883390D01*
X241928095Y-90883390D02*
X242023333Y-90835771D01*
X242023333Y-90835771D02*
X242261428Y-90835771D01*
X242261428Y-90835771D02*
X242356666Y-90883390D01*
X242356666Y-90883390D02*
X242404285Y-90931009D01*
X242404285Y-90931009D02*
X242451904Y-91026247D01*
X242451904Y-91026247D02*
X242451904Y-91264342D01*
X242451904Y-91264342D02*
X242404285Y-91359580D01*
X242404285Y-91359580D02*
X242356666Y-91407200D01*
X242356666Y-91407200D02*
X242261428Y-91454819D01*
X242261428Y-91454819D02*
X242023333Y-91454819D01*
X242023333Y-91454819D02*
X241928095Y-91407200D01*
X241928095Y-91407200D02*
X241880476Y-91359580D01*
X181357142Y-97454819D02*
X181023809Y-96978628D01*
X180785714Y-97454819D02*
X180785714Y-96454819D01*
X180785714Y-96454819D02*
X181166666Y-96454819D01*
X181166666Y-96454819D02*
X181261904Y-96502438D01*
X181261904Y-96502438D02*
X181309523Y-96550057D01*
X181309523Y-96550057D02*
X181357142Y-96645295D01*
X181357142Y-96645295D02*
X181357142Y-96788152D01*
X181357142Y-96788152D02*
X181309523Y-96883390D01*
X181309523Y-96883390D02*
X181261904Y-96931009D01*
X181261904Y-96931009D02*
X181166666Y-96978628D01*
X181166666Y-96978628D02*
X180785714Y-96978628D01*
X182309523Y-97454819D02*
X181738095Y-97454819D01*
X182023809Y-97454819D02*
X182023809Y-96454819D01*
X182023809Y-96454819D02*
X181928571Y-96597676D01*
X181928571Y-96597676D02*
X181833333Y-96692914D01*
X181833333Y-96692914D02*
X181738095Y-96740533D01*
X183166666Y-96454819D02*
X182976190Y-96454819D01*
X182976190Y-96454819D02*
X182880952Y-96502438D01*
X182880952Y-96502438D02*
X182833333Y-96550057D01*
X182833333Y-96550057D02*
X182738095Y-96692914D01*
X182738095Y-96692914D02*
X182690476Y-96883390D01*
X182690476Y-96883390D02*
X182690476Y-97264342D01*
X182690476Y-97264342D02*
X182738095Y-97359580D01*
X182738095Y-97359580D02*
X182785714Y-97407200D01*
X182785714Y-97407200D02*
X182880952Y-97454819D01*
X182880952Y-97454819D02*
X183071428Y-97454819D01*
X183071428Y-97454819D02*
X183166666Y-97407200D01*
X183166666Y-97407200D02*
X183214285Y-97359580D01*
X183214285Y-97359580D02*
X183261904Y-97264342D01*
X183261904Y-97264342D02*
X183261904Y-97026247D01*
X183261904Y-97026247D02*
X183214285Y-96931009D01*
X183214285Y-96931009D02*
X183166666Y-96883390D01*
X183166666Y-96883390D02*
X183071428Y-96835771D01*
X183071428Y-96835771D02*
X182880952Y-96835771D01*
X182880952Y-96835771D02*
X182785714Y-96883390D01*
X182785714Y-96883390D02*
X182738095Y-96931009D01*
X182738095Y-96931009D02*
X182690476Y-97026247D01*
X220357142Y-94454819D02*
X220023809Y-93978628D01*
X219785714Y-94454819D02*
X219785714Y-93454819D01*
X219785714Y-93454819D02*
X220166666Y-93454819D01*
X220166666Y-93454819D02*
X220261904Y-93502438D01*
X220261904Y-93502438D02*
X220309523Y-93550057D01*
X220309523Y-93550057D02*
X220357142Y-93645295D01*
X220357142Y-93645295D02*
X220357142Y-93788152D01*
X220357142Y-93788152D02*
X220309523Y-93883390D01*
X220309523Y-93883390D02*
X220261904Y-93931009D01*
X220261904Y-93931009D02*
X220166666Y-93978628D01*
X220166666Y-93978628D02*
X219785714Y-93978628D01*
X221309523Y-94454819D02*
X220738095Y-94454819D01*
X221023809Y-94454819D02*
X221023809Y-93454819D01*
X221023809Y-93454819D02*
X220928571Y-93597676D01*
X220928571Y-93597676D02*
X220833333Y-93692914D01*
X220833333Y-93692914D02*
X220738095Y-93740533D01*
X221642857Y-93454819D02*
X222309523Y-93454819D01*
X222309523Y-93454819D02*
X221880952Y-94454819D01*
X173357142Y-102454819D02*
X173023809Y-101978628D01*
X172785714Y-102454819D02*
X172785714Y-101454819D01*
X172785714Y-101454819D02*
X173166666Y-101454819D01*
X173166666Y-101454819D02*
X173261904Y-101502438D01*
X173261904Y-101502438D02*
X173309523Y-101550057D01*
X173309523Y-101550057D02*
X173357142Y-101645295D01*
X173357142Y-101645295D02*
X173357142Y-101788152D01*
X173357142Y-101788152D02*
X173309523Y-101883390D01*
X173309523Y-101883390D02*
X173261904Y-101931009D01*
X173261904Y-101931009D02*
X173166666Y-101978628D01*
X173166666Y-101978628D02*
X172785714Y-101978628D01*
X174309523Y-102454819D02*
X173738095Y-102454819D01*
X174023809Y-102454819D02*
X174023809Y-101454819D01*
X174023809Y-101454819D02*
X173928571Y-101597676D01*
X173928571Y-101597676D02*
X173833333Y-101692914D01*
X173833333Y-101692914D02*
X173738095Y-101740533D01*
X174880952Y-101883390D02*
X174785714Y-101835771D01*
X174785714Y-101835771D02*
X174738095Y-101788152D01*
X174738095Y-101788152D02*
X174690476Y-101692914D01*
X174690476Y-101692914D02*
X174690476Y-101645295D01*
X174690476Y-101645295D02*
X174738095Y-101550057D01*
X174738095Y-101550057D02*
X174785714Y-101502438D01*
X174785714Y-101502438D02*
X174880952Y-101454819D01*
X174880952Y-101454819D02*
X175071428Y-101454819D01*
X175071428Y-101454819D02*
X175166666Y-101502438D01*
X175166666Y-101502438D02*
X175214285Y-101550057D01*
X175214285Y-101550057D02*
X175261904Y-101645295D01*
X175261904Y-101645295D02*
X175261904Y-101692914D01*
X175261904Y-101692914D02*
X175214285Y-101788152D01*
X175214285Y-101788152D02*
X175166666Y-101835771D01*
X175166666Y-101835771D02*
X175071428Y-101883390D01*
X175071428Y-101883390D02*
X174880952Y-101883390D01*
X174880952Y-101883390D02*
X174785714Y-101931009D01*
X174785714Y-101931009D02*
X174738095Y-101978628D01*
X174738095Y-101978628D02*
X174690476Y-102073866D01*
X174690476Y-102073866D02*
X174690476Y-102264342D01*
X174690476Y-102264342D02*
X174738095Y-102359580D01*
X174738095Y-102359580D02*
X174785714Y-102407200D01*
X174785714Y-102407200D02*
X174880952Y-102454819D01*
X174880952Y-102454819D02*
X175071428Y-102454819D01*
X175071428Y-102454819D02*
X175166666Y-102407200D01*
X175166666Y-102407200D02*
X175214285Y-102359580D01*
X175214285Y-102359580D02*
X175261904Y-102264342D01*
X175261904Y-102264342D02*
X175261904Y-102073866D01*
X175261904Y-102073866D02*
X175214285Y-101978628D01*
X175214285Y-101978628D02*
X175166666Y-101931009D01*
X175166666Y-101931009D02*
X175071428Y-101883390D01*
X207666667Y-65407200D02*
X207809524Y-65454819D01*
X207809524Y-65454819D02*
X208047619Y-65454819D01*
X208047619Y-65454819D02*
X208142857Y-65407200D01*
X208142857Y-65407200D02*
X208190476Y-65359580D01*
X208190476Y-65359580D02*
X208238095Y-65264342D01*
X208238095Y-65264342D02*
X208238095Y-65169104D01*
X208238095Y-65169104D02*
X208190476Y-65073866D01*
X208190476Y-65073866D02*
X208142857Y-65026247D01*
X208142857Y-65026247D02*
X208047619Y-64978628D01*
X208047619Y-64978628D02*
X207857143Y-64931009D01*
X207857143Y-64931009D02*
X207761905Y-64883390D01*
X207761905Y-64883390D02*
X207714286Y-64835771D01*
X207714286Y-64835771D02*
X207666667Y-64740533D01*
X207666667Y-64740533D02*
X207666667Y-64645295D01*
X207666667Y-64645295D02*
X207714286Y-64550057D01*
X207714286Y-64550057D02*
X207761905Y-64502438D01*
X207761905Y-64502438D02*
X207857143Y-64454819D01*
X207857143Y-64454819D02*
X208095238Y-64454819D01*
X208095238Y-64454819D02*
X208238095Y-64502438D01*
X208571429Y-64454819D02*
X208809524Y-65454819D01*
X208809524Y-65454819D02*
X209000000Y-64740533D01*
X209000000Y-64740533D02*
X209190476Y-65454819D01*
X209190476Y-65454819D02*
X209428572Y-64454819D01*
X210238095Y-64788152D02*
X210238095Y-65454819D01*
X210000000Y-64407200D02*
X209761905Y-65121485D01*
X209761905Y-65121485D02*
X210380952Y-65121485D01*
X159666667Y-79407200D02*
X159809524Y-79454819D01*
X159809524Y-79454819D02*
X160047619Y-79454819D01*
X160047619Y-79454819D02*
X160142857Y-79407200D01*
X160142857Y-79407200D02*
X160190476Y-79359580D01*
X160190476Y-79359580D02*
X160238095Y-79264342D01*
X160238095Y-79264342D02*
X160238095Y-79169104D01*
X160238095Y-79169104D02*
X160190476Y-79073866D01*
X160190476Y-79073866D02*
X160142857Y-79026247D01*
X160142857Y-79026247D02*
X160047619Y-78978628D01*
X160047619Y-78978628D02*
X159857143Y-78931009D01*
X159857143Y-78931009D02*
X159761905Y-78883390D01*
X159761905Y-78883390D02*
X159714286Y-78835771D01*
X159714286Y-78835771D02*
X159666667Y-78740533D01*
X159666667Y-78740533D02*
X159666667Y-78645295D01*
X159666667Y-78645295D02*
X159714286Y-78550057D01*
X159714286Y-78550057D02*
X159761905Y-78502438D01*
X159761905Y-78502438D02*
X159857143Y-78454819D01*
X159857143Y-78454819D02*
X160095238Y-78454819D01*
X160095238Y-78454819D02*
X160238095Y-78502438D01*
X160571429Y-78454819D02*
X160809524Y-79454819D01*
X160809524Y-79454819D02*
X161000000Y-78740533D01*
X161000000Y-78740533D02*
X161190476Y-79454819D01*
X161190476Y-79454819D02*
X161428572Y-78454819D01*
X162285714Y-78454819D02*
X161809524Y-78454819D01*
X161809524Y-78454819D02*
X161761905Y-78931009D01*
X161761905Y-78931009D02*
X161809524Y-78883390D01*
X161809524Y-78883390D02*
X161904762Y-78835771D01*
X161904762Y-78835771D02*
X162142857Y-78835771D01*
X162142857Y-78835771D02*
X162238095Y-78883390D01*
X162238095Y-78883390D02*
X162285714Y-78931009D01*
X162285714Y-78931009D02*
X162333333Y-79026247D01*
X162333333Y-79026247D02*
X162333333Y-79264342D01*
X162333333Y-79264342D02*
X162285714Y-79359580D01*
X162285714Y-79359580D02*
X162238095Y-79407200D01*
X162238095Y-79407200D02*
X162142857Y-79454819D01*
X162142857Y-79454819D02*
X161904762Y-79454819D01*
X161904762Y-79454819D02*
X161809524Y-79407200D01*
X161809524Y-79407200D02*
X161761905Y-79359580D01*
X159666667Y-87407200D02*
X159809524Y-87454819D01*
X159809524Y-87454819D02*
X160047619Y-87454819D01*
X160047619Y-87454819D02*
X160142857Y-87407200D01*
X160142857Y-87407200D02*
X160190476Y-87359580D01*
X160190476Y-87359580D02*
X160238095Y-87264342D01*
X160238095Y-87264342D02*
X160238095Y-87169104D01*
X160238095Y-87169104D02*
X160190476Y-87073866D01*
X160190476Y-87073866D02*
X160142857Y-87026247D01*
X160142857Y-87026247D02*
X160047619Y-86978628D01*
X160047619Y-86978628D02*
X159857143Y-86931009D01*
X159857143Y-86931009D02*
X159761905Y-86883390D01*
X159761905Y-86883390D02*
X159714286Y-86835771D01*
X159714286Y-86835771D02*
X159666667Y-86740533D01*
X159666667Y-86740533D02*
X159666667Y-86645295D01*
X159666667Y-86645295D02*
X159714286Y-86550057D01*
X159714286Y-86550057D02*
X159761905Y-86502438D01*
X159761905Y-86502438D02*
X159857143Y-86454819D01*
X159857143Y-86454819D02*
X160095238Y-86454819D01*
X160095238Y-86454819D02*
X160238095Y-86502438D01*
X160571429Y-86454819D02*
X160809524Y-87454819D01*
X160809524Y-87454819D02*
X161000000Y-86740533D01*
X161000000Y-86740533D02*
X161190476Y-87454819D01*
X161190476Y-87454819D02*
X161428572Y-86454819D01*
X162238095Y-86454819D02*
X162047619Y-86454819D01*
X162047619Y-86454819D02*
X161952381Y-86502438D01*
X161952381Y-86502438D02*
X161904762Y-86550057D01*
X161904762Y-86550057D02*
X161809524Y-86692914D01*
X161809524Y-86692914D02*
X161761905Y-86883390D01*
X161761905Y-86883390D02*
X161761905Y-87264342D01*
X161761905Y-87264342D02*
X161809524Y-87359580D01*
X161809524Y-87359580D02*
X161857143Y-87407200D01*
X161857143Y-87407200D02*
X161952381Y-87454819D01*
X161952381Y-87454819D02*
X162142857Y-87454819D01*
X162142857Y-87454819D02*
X162238095Y-87407200D01*
X162238095Y-87407200D02*
X162285714Y-87359580D01*
X162285714Y-87359580D02*
X162333333Y-87264342D01*
X162333333Y-87264342D02*
X162333333Y-87026247D01*
X162333333Y-87026247D02*
X162285714Y-86931009D01*
X162285714Y-86931009D02*
X162238095Y-86883390D01*
X162238095Y-86883390D02*
X162142857Y-86835771D01*
X162142857Y-86835771D02*
X161952381Y-86835771D01*
X161952381Y-86835771D02*
X161857143Y-86883390D01*
X161857143Y-86883390D02*
X161809524Y-86931009D01*
X161809524Y-86931009D02*
X161761905Y-87026247D01*
X207666667Y-94407200D02*
X207809524Y-94454819D01*
X207809524Y-94454819D02*
X208047619Y-94454819D01*
X208047619Y-94454819D02*
X208142857Y-94407200D01*
X208142857Y-94407200D02*
X208190476Y-94359580D01*
X208190476Y-94359580D02*
X208238095Y-94264342D01*
X208238095Y-94264342D02*
X208238095Y-94169104D01*
X208238095Y-94169104D02*
X208190476Y-94073866D01*
X208190476Y-94073866D02*
X208142857Y-94026247D01*
X208142857Y-94026247D02*
X208047619Y-93978628D01*
X208047619Y-93978628D02*
X207857143Y-93931009D01*
X207857143Y-93931009D02*
X207761905Y-93883390D01*
X207761905Y-93883390D02*
X207714286Y-93835771D01*
X207714286Y-93835771D02*
X207666667Y-93740533D01*
X207666667Y-93740533D02*
X207666667Y-93645295D01*
X207666667Y-93645295D02*
X207714286Y-93550057D01*
X207714286Y-93550057D02*
X207761905Y-93502438D01*
X207761905Y-93502438D02*
X207857143Y-93454819D01*
X207857143Y-93454819D02*
X208095238Y-93454819D01*
X208095238Y-93454819D02*
X208238095Y-93502438D01*
X208571429Y-93454819D02*
X208809524Y-94454819D01*
X208809524Y-94454819D02*
X209000000Y-93740533D01*
X209000000Y-93740533D02*
X209190476Y-94454819D01*
X209190476Y-94454819D02*
X209428572Y-93454819D01*
X209714286Y-93454819D02*
X210380952Y-93454819D01*
X210380952Y-93454819D02*
X209952381Y-94454819D01*
X159666667Y-102407200D02*
X159809524Y-102454819D01*
X159809524Y-102454819D02*
X160047619Y-102454819D01*
X160047619Y-102454819D02*
X160142857Y-102407200D01*
X160142857Y-102407200D02*
X160190476Y-102359580D01*
X160190476Y-102359580D02*
X160238095Y-102264342D01*
X160238095Y-102264342D02*
X160238095Y-102169104D01*
X160238095Y-102169104D02*
X160190476Y-102073866D01*
X160190476Y-102073866D02*
X160142857Y-102026247D01*
X160142857Y-102026247D02*
X160047619Y-101978628D01*
X160047619Y-101978628D02*
X159857143Y-101931009D01*
X159857143Y-101931009D02*
X159761905Y-101883390D01*
X159761905Y-101883390D02*
X159714286Y-101835771D01*
X159714286Y-101835771D02*
X159666667Y-101740533D01*
X159666667Y-101740533D02*
X159666667Y-101645295D01*
X159666667Y-101645295D02*
X159714286Y-101550057D01*
X159714286Y-101550057D02*
X159761905Y-101502438D01*
X159761905Y-101502438D02*
X159857143Y-101454819D01*
X159857143Y-101454819D02*
X160095238Y-101454819D01*
X160095238Y-101454819D02*
X160238095Y-101502438D01*
X160571429Y-101454819D02*
X160809524Y-102454819D01*
X160809524Y-102454819D02*
X161000000Y-101740533D01*
X161000000Y-101740533D02*
X161190476Y-102454819D01*
X161190476Y-102454819D02*
X161428572Y-101454819D01*
X161952381Y-101883390D02*
X161857143Y-101835771D01*
X161857143Y-101835771D02*
X161809524Y-101788152D01*
X161809524Y-101788152D02*
X161761905Y-101692914D01*
X161761905Y-101692914D02*
X161761905Y-101645295D01*
X161761905Y-101645295D02*
X161809524Y-101550057D01*
X161809524Y-101550057D02*
X161857143Y-101502438D01*
X161857143Y-101502438D02*
X161952381Y-101454819D01*
X161952381Y-101454819D02*
X162142857Y-101454819D01*
X162142857Y-101454819D02*
X162238095Y-101502438D01*
X162238095Y-101502438D02*
X162285714Y-101550057D01*
X162285714Y-101550057D02*
X162333333Y-101645295D01*
X162333333Y-101645295D02*
X162333333Y-101692914D01*
X162333333Y-101692914D02*
X162285714Y-101788152D01*
X162285714Y-101788152D02*
X162238095Y-101835771D01*
X162238095Y-101835771D02*
X162142857Y-101883390D01*
X162142857Y-101883390D02*
X161952381Y-101883390D01*
X161952381Y-101883390D02*
X161857143Y-101931009D01*
X161857143Y-101931009D02*
X161809524Y-101978628D01*
X161809524Y-101978628D02*
X161761905Y-102073866D01*
X161761905Y-102073866D02*
X161761905Y-102264342D01*
X161761905Y-102264342D02*
X161809524Y-102359580D01*
X161809524Y-102359580D02*
X161857143Y-102407200D01*
X161857143Y-102407200D02*
X161952381Y-102454819D01*
X161952381Y-102454819D02*
X162142857Y-102454819D01*
X162142857Y-102454819D02*
X162238095Y-102407200D01*
X162238095Y-102407200D02*
X162285714Y-102359580D01*
X162285714Y-102359580D02*
X162333333Y-102264342D01*
X162333333Y-102264342D02*
X162333333Y-102073866D01*
X162333333Y-102073866D02*
X162285714Y-101978628D01*
X162285714Y-101978628D02*
X162238095Y-101931009D01*
X162238095Y-101931009D02*
X162142857Y-101883390D01*
X207666667Y-102407200D02*
X207809524Y-102454819D01*
X207809524Y-102454819D02*
X208047619Y-102454819D01*
X208047619Y-102454819D02*
X208142857Y-102407200D01*
X208142857Y-102407200D02*
X208190476Y-102359580D01*
X208190476Y-102359580D02*
X208238095Y-102264342D01*
X208238095Y-102264342D02*
X208238095Y-102169104D01*
X208238095Y-102169104D02*
X208190476Y-102073866D01*
X208190476Y-102073866D02*
X208142857Y-102026247D01*
X208142857Y-102026247D02*
X208047619Y-101978628D01*
X208047619Y-101978628D02*
X207857143Y-101931009D01*
X207857143Y-101931009D02*
X207761905Y-101883390D01*
X207761905Y-101883390D02*
X207714286Y-101835771D01*
X207714286Y-101835771D02*
X207666667Y-101740533D01*
X207666667Y-101740533D02*
X207666667Y-101645295D01*
X207666667Y-101645295D02*
X207714286Y-101550057D01*
X207714286Y-101550057D02*
X207761905Y-101502438D01*
X207761905Y-101502438D02*
X207857143Y-101454819D01*
X207857143Y-101454819D02*
X208095238Y-101454819D01*
X208095238Y-101454819D02*
X208238095Y-101502438D01*
X208571429Y-101454819D02*
X208809524Y-102454819D01*
X208809524Y-102454819D02*
X209000000Y-101740533D01*
X209000000Y-101740533D02*
X209190476Y-102454819D01*
X209190476Y-102454819D02*
X209428572Y-101454819D01*
X209857143Y-102454819D02*
X210047619Y-102454819D01*
X210047619Y-102454819D02*
X210142857Y-102407200D01*
X210142857Y-102407200D02*
X210190476Y-102359580D01*
X210190476Y-102359580D02*
X210285714Y-102216723D01*
X210285714Y-102216723D02*
X210333333Y-102026247D01*
X210333333Y-102026247D02*
X210333333Y-101645295D01*
X210333333Y-101645295D02*
X210285714Y-101550057D01*
X210285714Y-101550057D02*
X210238095Y-101502438D01*
X210238095Y-101502438D02*
X210142857Y-101454819D01*
X210142857Y-101454819D02*
X209952381Y-101454819D01*
X209952381Y-101454819D02*
X209857143Y-101502438D01*
X209857143Y-101502438D02*
X209809524Y-101550057D01*
X209809524Y-101550057D02*
X209761905Y-101645295D01*
X209761905Y-101645295D02*
X209761905Y-101883390D01*
X209761905Y-101883390D02*
X209809524Y-101978628D01*
X209809524Y-101978628D02*
X209857143Y-102026247D01*
X209857143Y-102026247D02*
X209952381Y-102073866D01*
X209952381Y-102073866D02*
X210142857Y-102073866D01*
X210142857Y-102073866D02*
X210238095Y-102026247D01*
X210238095Y-102026247D02*
X210285714Y-101978628D01*
X210285714Y-101978628D02*
X210333333Y-101883390D01*
X192991905Y-85454819D02*
X192991905Y-84454819D01*
X192991905Y-84454819D02*
X193230000Y-84454819D01*
X193230000Y-84454819D02*
X193372857Y-84502438D01*
X193372857Y-84502438D02*
X193468095Y-84597676D01*
X193468095Y-84597676D02*
X193515714Y-84692914D01*
X193515714Y-84692914D02*
X193563333Y-84883390D01*
X193563333Y-84883390D02*
X193563333Y-85026247D01*
X193563333Y-85026247D02*
X193515714Y-85216723D01*
X193515714Y-85216723D02*
X193468095Y-85311961D01*
X193468095Y-85311961D02*
X193372857Y-85407200D01*
X193372857Y-85407200D02*
X193230000Y-85454819D01*
X193230000Y-85454819D02*
X192991905Y-85454819D01*
X193896667Y-84454819D02*
X194515714Y-84454819D01*
X194515714Y-84454819D02*
X194182381Y-84835771D01*
X194182381Y-84835771D02*
X194325238Y-84835771D01*
X194325238Y-84835771D02*
X194420476Y-84883390D01*
X194420476Y-84883390D02*
X194468095Y-84931009D01*
X194468095Y-84931009D02*
X194515714Y-85026247D01*
X194515714Y-85026247D02*
X194515714Y-85264342D01*
X194515714Y-85264342D02*
X194468095Y-85359580D01*
X194468095Y-85359580D02*
X194420476Y-85407200D01*
X194420476Y-85407200D02*
X194325238Y-85454819D01*
X194325238Y-85454819D02*
X194039524Y-85454819D01*
X194039524Y-85454819D02*
X193944286Y-85407200D01*
X193944286Y-85407200D02*
X193896667Y-85359580D01*
X235550057Y-56095238D02*
X235502438Y-56190476D01*
X235502438Y-56190476D02*
X235407200Y-56285714D01*
X235407200Y-56285714D02*
X235264342Y-56428571D01*
X235264342Y-56428571D02*
X235216723Y-56523809D01*
X235216723Y-56523809D02*
X235216723Y-56619047D01*
X235454819Y-56571428D02*
X235407200Y-56666666D01*
X235407200Y-56666666D02*
X235311961Y-56761904D01*
X235311961Y-56761904D02*
X235121485Y-56809523D01*
X235121485Y-56809523D02*
X234788152Y-56809523D01*
X234788152Y-56809523D02*
X234597676Y-56761904D01*
X234597676Y-56761904D02*
X234502438Y-56666666D01*
X234502438Y-56666666D02*
X234454819Y-56571428D01*
X234454819Y-56571428D02*
X234454819Y-56380952D01*
X234454819Y-56380952D02*
X234502438Y-56285714D01*
X234502438Y-56285714D02*
X234597676Y-56190476D01*
X234597676Y-56190476D02*
X234788152Y-56142857D01*
X234788152Y-56142857D02*
X235121485Y-56142857D01*
X235121485Y-56142857D02*
X235311961Y-56190476D01*
X235311961Y-56190476D02*
X235407200Y-56285714D01*
X235407200Y-56285714D02*
X235454819Y-56380952D01*
X235454819Y-56380952D02*
X235454819Y-56571428D01*
X234454819Y-55809523D02*
X234454819Y-55190476D01*
X234454819Y-55190476D02*
X234835771Y-55523809D01*
X234835771Y-55523809D02*
X234835771Y-55380952D01*
X234835771Y-55380952D02*
X234883390Y-55285714D01*
X234883390Y-55285714D02*
X234931009Y-55238095D01*
X234931009Y-55238095D02*
X235026247Y-55190476D01*
X235026247Y-55190476D02*
X235264342Y-55190476D01*
X235264342Y-55190476D02*
X235359580Y-55238095D01*
X235359580Y-55238095D02*
X235407200Y-55285714D01*
X235407200Y-55285714D02*
X235454819Y-55380952D01*
X235454819Y-55380952D02*
X235454819Y-55666666D01*
X235454819Y-55666666D02*
X235407200Y-55761904D01*
X235407200Y-55761904D02*
X235359580Y-55809523D01*
X240531905Y-58454819D02*
X240531905Y-57454819D01*
X240531905Y-57454819D02*
X240770000Y-57454819D01*
X240770000Y-57454819D02*
X240912857Y-57502438D01*
X240912857Y-57502438D02*
X241008095Y-57597676D01*
X241008095Y-57597676D02*
X241055714Y-57692914D01*
X241055714Y-57692914D02*
X241103333Y-57883390D01*
X241103333Y-57883390D02*
X241103333Y-58026247D01*
X241103333Y-58026247D02*
X241055714Y-58216723D01*
X241055714Y-58216723D02*
X241008095Y-58311961D01*
X241008095Y-58311961D02*
X240912857Y-58407200D01*
X240912857Y-58407200D02*
X240770000Y-58454819D01*
X240770000Y-58454819D02*
X240531905Y-58454819D01*
X241484286Y-57550057D02*
X241531905Y-57502438D01*
X241531905Y-57502438D02*
X241627143Y-57454819D01*
X241627143Y-57454819D02*
X241865238Y-57454819D01*
X241865238Y-57454819D02*
X241960476Y-57502438D01*
X241960476Y-57502438D02*
X242008095Y-57550057D01*
X242008095Y-57550057D02*
X242055714Y-57645295D01*
X242055714Y-57645295D02*
X242055714Y-57740533D01*
X242055714Y-57740533D02*
X242008095Y-57883390D01*
X242008095Y-57883390D02*
X241436667Y-58454819D01*
X241436667Y-58454819D02*
X242055714Y-58454819D01*
X185550057Y-57095238D02*
X185502438Y-57190476D01*
X185502438Y-57190476D02*
X185407200Y-57285714D01*
X185407200Y-57285714D02*
X185264342Y-57428571D01*
X185264342Y-57428571D02*
X185216723Y-57523809D01*
X185216723Y-57523809D02*
X185216723Y-57619047D01*
X185454819Y-57571428D02*
X185407200Y-57666666D01*
X185407200Y-57666666D02*
X185311961Y-57761904D01*
X185311961Y-57761904D02*
X185121485Y-57809523D01*
X185121485Y-57809523D02*
X184788152Y-57809523D01*
X184788152Y-57809523D02*
X184597676Y-57761904D01*
X184597676Y-57761904D02*
X184502438Y-57666666D01*
X184502438Y-57666666D02*
X184454819Y-57571428D01*
X184454819Y-57571428D02*
X184454819Y-57380952D01*
X184454819Y-57380952D02*
X184502438Y-57285714D01*
X184502438Y-57285714D02*
X184597676Y-57190476D01*
X184597676Y-57190476D02*
X184788152Y-57142857D01*
X184788152Y-57142857D02*
X185121485Y-57142857D01*
X185121485Y-57142857D02*
X185311961Y-57190476D01*
X185311961Y-57190476D02*
X185407200Y-57285714D01*
X185407200Y-57285714D02*
X185454819Y-57380952D01*
X185454819Y-57380952D02*
X185454819Y-57571428D01*
X185454819Y-56190476D02*
X185454819Y-56761904D01*
X185454819Y-56476190D02*
X184454819Y-56476190D01*
X184454819Y-56476190D02*
X184597676Y-56571428D01*
X184597676Y-56571428D02*
X184692914Y-56666666D01*
X184692914Y-56666666D02*
X184740533Y-56761904D01*
X192991905Y-63454819D02*
X192991905Y-62454819D01*
X192991905Y-62454819D02*
X193230000Y-62454819D01*
X193230000Y-62454819D02*
X193372857Y-62502438D01*
X193372857Y-62502438D02*
X193468095Y-62597676D01*
X193468095Y-62597676D02*
X193515714Y-62692914D01*
X193515714Y-62692914D02*
X193563333Y-62883390D01*
X193563333Y-62883390D02*
X193563333Y-63026247D01*
X193563333Y-63026247D02*
X193515714Y-63216723D01*
X193515714Y-63216723D02*
X193468095Y-63311961D01*
X193468095Y-63311961D02*
X193372857Y-63407200D01*
X193372857Y-63407200D02*
X193230000Y-63454819D01*
X193230000Y-63454819D02*
X192991905Y-63454819D01*
X194515714Y-63454819D02*
X193944286Y-63454819D01*
X194230000Y-63454819D02*
X194230000Y-62454819D01*
X194230000Y-62454819D02*
X194134762Y-62597676D01*
X194134762Y-62597676D02*
X194039524Y-62692914D01*
X194039524Y-62692914D02*
X193944286Y-62740533D01*
X185550057Y-79095238D02*
X185502438Y-79190476D01*
X185502438Y-79190476D02*
X185407200Y-79285714D01*
X185407200Y-79285714D02*
X185264342Y-79428571D01*
X185264342Y-79428571D02*
X185216723Y-79523809D01*
X185216723Y-79523809D02*
X185216723Y-79619047D01*
X185454819Y-79571428D02*
X185407200Y-79666666D01*
X185407200Y-79666666D02*
X185311961Y-79761904D01*
X185311961Y-79761904D02*
X185121485Y-79809523D01*
X185121485Y-79809523D02*
X184788152Y-79809523D01*
X184788152Y-79809523D02*
X184597676Y-79761904D01*
X184597676Y-79761904D02*
X184502438Y-79666666D01*
X184502438Y-79666666D02*
X184454819Y-79571428D01*
X184454819Y-79571428D02*
X184454819Y-79380952D01*
X184454819Y-79380952D02*
X184502438Y-79285714D01*
X184502438Y-79285714D02*
X184597676Y-79190476D01*
X184597676Y-79190476D02*
X184788152Y-79142857D01*
X184788152Y-79142857D02*
X185121485Y-79142857D01*
X185121485Y-79142857D02*
X185311961Y-79190476D01*
X185311961Y-79190476D02*
X185407200Y-79285714D01*
X185407200Y-79285714D02*
X185454819Y-79380952D01*
X185454819Y-79380952D02*
X185454819Y-79571428D01*
X184454819Y-78285714D02*
X184454819Y-78476190D01*
X184454819Y-78476190D02*
X184502438Y-78571428D01*
X184502438Y-78571428D02*
X184550057Y-78619047D01*
X184550057Y-78619047D02*
X184692914Y-78714285D01*
X184692914Y-78714285D02*
X184883390Y-78761904D01*
X184883390Y-78761904D02*
X185264342Y-78761904D01*
X185264342Y-78761904D02*
X185359580Y-78714285D01*
X185359580Y-78714285D02*
X185407200Y-78666666D01*
X185407200Y-78666666D02*
X185454819Y-78571428D01*
X185454819Y-78571428D02*
X185454819Y-78380952D01*
X185454819Y-78380952D02*
X185407200Y-78285714D01*
X185407200Y-78285714D02*
X185359580Y-78238095D01*
X185359580Y-78238095D02*
X185264342Y-78190476D01*
X185264342Y-78190476D02*
X185026247Y-78190476D01*
X185026247Y-78190476D02*
X184931009Y-78238095D01*
X184931009Y-78238095D02*
X184883390Y-78285714D01*
X184883390Y-78285714D02*
X184835771Y-78380952D01*
X184835771Y-78380952D02*
X184835771Y-78571428D01*
X184835771Y-78571428D02*
X184883390Y-78666666D01*
X184883390Y-78666666D02*
X184931009Y-78714285D01*
X184931009Y-78714285D02*
X185026247Y-78761904D01*
X193833333Y-56454819D02*
X193500000Y-55978628D01*
X193261905Y-56454819D02*
X193261905Y-55454819D01*
X193261905Y-55454819D02*
X193642857Y-55454819D01*
X193642857Y-55454819D02*
X193738095Y-55502438D01*
X193738095Y-55502438D02*
X193785714Y-55550057D01*
X193785714Y-55550057D02*
X193833333Y-55645295D01*
X193833333Y-55645295D02*
X193833333Y-55788152D01*
X193833333Y-55788152D02*
X193785714Y-55883390D01*
X193785714Y-55883390D02*
X193738095Y-55931009D01*
X193738095Y-55931009D02*
X193642857Y-55978628D01*
X193642857Y-55978628D02*
X193261905Y-55978628D01*
X194214286Y-55550057D02*
X194261905Y-55502438D01*
X194261905Y-55502438D02*
X194357143Y-55454819D01*
X194357143Y-55454819D02*
X194595238Y-55454819D01*
X194595238Y-55454819D02*
X194690476Y-55502438D01*
X194690476Y-55502438D02*
X194738095Y-55550057D01*
X194738095Y-55550057D02*
X194785714Y-55645295D01*
X194785714Y-55645295D02*
X194785714Y-55740533D01*
X194785714Y-55740533D02*
X194738095Y-55883390D01*
X194738095Y-55883390D02*
X194166667Y-56454819D01*
X194166667Y-56454819D02*
X194785714Y-56454819D01*
X240991905Y-99454819D02*
X240991905Y-98454819D01*
X240991905Y-98454819D02*
X241230000Y-98454819D01*
X241230000Y-98454819D02*
X241372857Y-98502438D01*
X241372857Y-98502438D02*
X241468095Y-98597676D01*
X241468095Y-98597676D02*
X241515714Y-98692914D01*
X241515714Y-98692914D02*
X241563333Y-98883390D01*
X241563333Y-98883390D02*
X241563333Y-99026247D01*
X241563333Y-99026247D02*
X241515714Y-99216723D01*
X241515714Y-99216723D02*
X241468095Y-99311961D01*
X241468095Y-99311961D02*
X241372857Y-99407200D01*
X241372857Y-99407200D02*
X241230000Y-99454819D01*
X241230000Y-99454819D02*
X240991905Y-99454819D01*
X242420476Y-98788152D02*
X242420476Y-99454819D01*
X242182381Y-98407200D02*
X241944286Y-99121485D01*
X241944286Y-99121485D02*
X242563333Y-99121485D01*
X232550057Y-102571428D02*
X232502438Y-102666666D01*
X232502438Y-102666666D02*
X232407200Y-102761904D01*
X232407200Y-102761904D02*
X232264342Y-102904761D01*
X232264342Y-102904761D02*
X232216723Y-102999999D01*
X232216723Y-102999999D02*
X232216723Y-103095237D01*
X232454819Y-103047618D02*
X232407200Y-103142856D01*
X232407200Y-103142856D02*
X232311961Y-103238094D01*
X232311961Y-103238094D02*
X232121485Y-103285713D01*
X232121485Y-103285713D02*
X231788152Y-103285713D01*
X231788152Y-103285713D02*
X231597676Y-103238094D01*
X231597676Y-103238094D02*
X231502438Y-103142856D01*
X231502438Y-103142856D02*
X231454819Y-103047618D01*
X231454819Y-103047618D02*
X231454819Y-102857142D01*
X231454819Y-102857142D02*
X231502438Y-102761904D01*
X231502438Y-102761904D02*
X231597676Y-102666666D01*
X231597676Y-102666666D02*
X231788152Y-102619047D01*
X231788152Y-102619047D02*
X232121485Y-102619047D01*
X232121485Y-102619047D02*
X232311961Y-102666666D01*
X232311961Y-102666666D02*
X232407200Y-102761904D01*
X232407200Y-102761904D02*
X232454819Y-102857142D01*
X232454819Y-102857142D02*
X232454819Y-103047618D01*
X232454819Y-101666666D02*
X232454819Y-102238094D01*
X232454819Y-101952380D02*
X231454819Y-101952380D01*
X231454819Y-101952380D02*
X231597676Y-102047618D01*
X231597676Y-102047618D02*
X231692914Y-102142856D01*
X231692914Y-102142856D02*
X231740533Y-102238094D01*
X231454819Y-101333332D02*
X231454819Y-100714285D01*
X231454819Y-100714285D02*
X231835771Y-101047618D01*
X231835771Y-101047618D02*
X231835771Y-100904761D01*
X231835771Y-100904761D02*
X231883390Y-100809523D01*
X231883390Y-100809523D02*
X231931009Y-100761904D01*
X231931009Y-100761904D02*
X232026247Y-100714285D01*
X232026247Y-100714285D02*
X232264342Y-100714285D01*
X232264342Y-100714285D02*
X232359580Y-100761904D01*
X232359580Y-100761904D02*
X232407200Y-100809523D01*
X232407200Y-100809523D02*
X232454819Y-100904761D01*
X232454819Y-100904761D02*
X232454819Y-101190475D01*
X232454819Y-101190475D02*
X232407200Y-101285713D01*
X232407200Y-101285713D02*
X232359580Y-101333332D01*
X159666667Y-65407200D02*
X159809524Y-65454819D01*
X159809524Y-65454819D02*
X160047619Y-65454819D01*
X160047619Y-65454819D02*
X160142857Y-65407200D01*
X160142857Y-65407200D02*
X160190476Y-65359580D01*
X160190476Y-65359580D02*
X160238095Y-65264342D01*
X160238095Y-65264342D02*
X160238095Y-65169104D01*
X160238095Y-65169104D02*
X160190476Y-65073866D01*
X160190476Y-65073866D02*
X160142857Y-65026247D01*
X160142857Y-65026247D02*
X160047619Y-64978628D01*
X160047619Y-64978628D02*
X159857143Y-64931009D01*
X159857143Y-64931009D02*
X159761905Y-64883390D01*
X159761905Y-64883390D02*
X159714286Y-64835771D01*
X159714286Y-64835771D02*
X159666667Y-64740533D01*
X159666667Y-64740533D02*
X159666667Y-64645295D01*
X159666667Y-64645295D02*
X159714286Y-64550057D01*
X159714286Y-64550057D02*
X159761905Y-64502438D01*
X159761905Y-64502438D02*
X159857143Y-64454819D01*
X159857143Y-64454819D02*
X160095238Y-64454819D01*
X160095238Y-64454819D02*
X160238095Y-64502438D01*
X160571429Y-64454819D02*
X160809524Y-65454819D01*
X160809524Y-65454819D02*
X161000000Y-64740533D01*
X161000000Y-64740533D02*
X161190476Y-65454819D01*
X161190476Y-65454819D02*
X161428572Y-64454819D01*
X161761905Y-64550057D02*
X161809524Y-64502438D01*
X161809524Y-64502438D02*
X161904762Y-64454819D01*
X161904762Y-64454819D02*
X162142857Y-64454819D01*
X162142857Y-64454819D02*
X162238095Y-64502438D01*
X162238095Y-64502438D02*
X162285714Y-64550057D01*
X162285714Y-64550057D02*
X162333333Y-64645295D01*
X162333333Y-64645295D02*
X162333333Y-64740533D01*
X162333333Y-64740533D02*
X162285714Y-64883390D01*
X162285714Y-64883390D02*
X161714286Y-65454819D01*
X161714286Y-65454819D02*
X162333333Y-65454819D01*
X247454819Y-60166666D02*
X246978628Y-60499999D01*
X247454819Y-60738094D02*
X246454819Y-60738094D01*
X246454819Y-60738094D02*
X246454819Y-60357142D01*
X246454819Y-60357142D02*
X246502438Y-60261904D01*
X246502438Y-60261904D02*
X246550057Y-60214285D01*
X246550057Y-60214285D02*
X246645295Y-60166666D01*
X246645295Y-60166666D02*
X246788152Y-60166666D01*
X246788152Y-60166666D02*
X246883390Y-60214285D01*
X246883390Y-60214285D02*
X246931009Y-60261904D01*
X246931009Y-60261904D02*
X246978628Y-60357142D01*
X246978628Y-60357142D02*
X246978628Y-60738094D01*
X246454819Y-59309523D02*
X246454819Y-59499999D01*
X246454819Y-59499999D02*
X246502438Y-59595237D01*
X246502438Y-59595237D02*
X246550057Y-59642856D01*
X246550057Y-59642856D02*
X246692914Y-59738094D01*
X246692914Y-59738094D02*
X246883390Y-59785713D01*
X246883390Y-59785713D02*
X247264342Y-59785713D01*
X247264342Y-59785713D02*
X247359580Y-59738094D01*
X247359580Y-59738094D02*
X247407200Y-59690475D01*
X247407200Y-59690475D02*
X247454819Y-59595237D01*
X247454819Y-59595237D02*
X247454819Y-59404761D01*
X247454819Y-59404761D02*
X247407200Y-59309523D01*
X247407200Y-59309523D02*
X247359580Y-59261904D01*
X247359580Y-59261904D02*
X247264342Y-59214285D01*
X247264342Y-59214285D02*
X247026247Y-59214285D01*
X247026247Y-59214285D02*
X246931009Y-59261904D01*
X246931009Y-59261904D02*
X246883390Y-59309523D01*
X246883390Y-59309523D02*
X246835771Y-59404761D01*
X246835771Y-59404761D02*
X246835771Y-59595237D01*
X246835771Y-59595237D02*
X246883390Y-59690475D01*
X246883390Y-59690475D02*
X246931009Y-59738094D01*
X246931009Y-59738094D02*
X247026247Y-59785713D01*
X225750057Y-81571428D02*
X225702438Y-81666666D01*
X225702438Y-81666666D02*
X225607200Y-81761904D01*
X225607200Y-81761904D02*
X225464342Y-81904761D01*
X225464342Y-81904761D02*
X225416723Y-81999999D01*
X225416723Y-81999999D02*
X225416723Y-82095237D01*
X225654819Y-82047618D02*
X225607200Y-82142856D01*
X225607200Y-82142856D02*
X225511961Y-82238094D01*
X225511961Y-82238094D02*
X225321485Y-82285713D01*
X225321485Y-82285713D02*
X224988152Y-82285713D01*
X224988152Y-82285713D02*
X224797676Y-82238094D01*
X224797676Y-82238094D02*
X224702438Y-82142856D01*
X224702438Y-82142856D02*
X224654819Y-82047618D01*
X224654819Y-82047618D02*
X224654819Y-81857142D01*
X224654819Y-81857142D02*
X224702438Y-81761904D01*
X224702438Y-81761904D02*
X224797676Y-81666666D01*
X224797676Y-81666666D02*
X224988152Y-81619047D01*
X224988152Y-81619047D02*
X225321485Y-81619047D01*
X225321485Y-81619047D02*
X225511961Y-81666666D01*
X225511961Y-81666666D02*
X225607200Y-81761904D01*
X225607200Y-81761904D02*
X225654819Y-81857142D01*
X225654819Y-81857142D02*
X225654819Y-82047618D01*
X225654819Y-80666666D02*
X225654819Y-81238094D01*
X225654819Y-80952380D02*
X224654819Y-80952380D01*
X224654819Y-80952380D02*
X224797676Y-81047618D01*
X224797676Y-81047618D02*
X224892914Y-81142856D01*
X224892914Y-81142856D02*
X224940533Y-81238094D01*
X224654819Y-80047618D02*
X224654819Y-79952380D01*
X224654819Y-79952380D02*
X224702438Y-79857142D01*
X224702438Y-79857142D02*
X224750057Y-79809523D01*
X224750057Y-79809523D02*
X224845295Y-79761904D01*
X224845295Y-79761904D02*
X225035771Y-79714285D01*
X225035771Y-79714285D02*
X225273866Y-79714285D01*
X225273866Y-79714285D02*
X225464342Y-79761904D01*
X225464342Y-79761904D02*
X225559580Y-79809523D01*
X225559580Y-79809523D02*
X225607200Y-79857142D01*
X225607200Y-79857142D02*
X225654819Y-79952380D01*
X225654819Y-79952380D02*
X225654819Y-80047618D01*
X225654819Y-80047618D02*
X225607200Y-80142856D01*
X225607200Y-80142856D02*
X225559580Y-80190475D01*
X225559580Y-80190475D02*
X225464342Y-80238094D01*
X225464342Y-80238094D02*
X225273866Y-80285713D01*
X225273866Y-80285713D02*
X225035771Y-80285713D01*
X225035771Y-80285713D02*
X224845295Y-80238094D01*
X224845295Y-80238094D02*
X224750057Y-80190475D01*
X224750057Y-80190475D02*
X224702438Y-80142856D01*
X224702438Y-80142856D02*
X224654819Y-80047618D01*
X185550057Y-87095238D02*
X185502438Y-87190476D01*
X185502438Y-87190476D02*
X185407200Y-87285714D01*
X185407200Y-87285714D02*
X185264342Y-87428571D01*
X185264342Y-87428571D02*
X185216723Y-87523809D01*
X185216723Y-87523809D02*
X185216723Y-87619047D01*
X185454819Y-87571428D02*
X185407200Y-87666666D01*
X185407200Y-87666666D02*
X185311961Y-87761904D01*
X185311961Y-87761904D02*
X185121485Y-87809523D01*
X185121485Y-87809523D02*
X184788152Y-87809523D01*
X184788152Y-87809523D02*
X184597676Y-87761904D01*
X184597676Y-87761904D02*
X184502438Y-87666666D01*
X184502438Y-87666666D02*
X184454819Y-87571428D01*
X184454819Y-87571428D02*
X184454819Y-87380952D01*
X184454819Y-87380952D02*
X184502438Y-87285714D01*
X184502438Y-87285714D02*
X184597676Y-87190476D01*
X184597676Y-87190476D02*
X184788152Y-87142857D01*
X184788152Y-87142857D02*
X185121485Y-87142857D01*
X185121485Y-87142857D02*
X185311961Y-87190476D01*
X185311961Y-87190476D02*
X185407200Y-87285714D01*
X185407200Y-87285714D02*
X185454819Y-87380952D01*
X185454819Y-87380952D02*
X185454819Y-87571428D01*
X184454819Y-86809523D02*
X184454819Y-86142857D01*
X184454819Y-86142857D02*
X185454819Y-86571428D01*
X173833333Y-65454819D02*
X173500000Y-64978628D01*
X173261905Y-65454819D02*
X173261905Y-64454819D01*
X173261905Y-64454819D02*
X173642857Y-64454819D01*
X173642857Y-64454819D02*
X173738095Y-64502438D01*
X173738095Y-64502438D02*
X173785714Y-64550057D01*
X173785714Y-64550057D02*
X173833333Y-64645295D01*
X173833333Y-64645295D02*
X173833333Y-64788152D01*
X173833333Y-64788152D02*
X173785714Y-64883390D01*
X173785714Y-64883390D02*
X173738095Y-64931009D01*
X173738095Y-64931009D02*
X173642857Y-64978628D01*
X173642857Y-64978628D02*
X173261905Y-64978628D01*
X174166667Y-64454819D02*
X174785714Y-64454819D01*
X174785714Y-64454819D02*
X174452381Y-64835771D01*
X174452381Y-64835771D02*
X174595238Y-64835771D01*
X174595238Y-64835771D02*
X174690476Y-64883390D01*
X174690476Y-64883390D02*
X174738095Y-64931009D01*
X174738095Y-64931009D02*
X174785714Y-65026247D01*
X174785714Y-65026247D02*
X174785714Y-65264342D01*
X174785714Y-65264342D02*
X174738095Y-65359580D01*
X174738095Y-65359580D02*
X174690476Y-65407200D01*
X174690476Y-65407200D02*
X174595238Y-65454819D01*
X174595238Y-65454819D02*
X174309524Y-65454819D01*
X174309524Y-65454819D02*
X174214286Y-65407200D01*
X174214286Y-65407200D02*
X174166667Y-65359580D01*
X232550057Y-94571428D02*
X232502438Y-94666666D01*
X232502438Y-94666666D02*
X232407200Y-94761904D01*
X232407200Y-94761904D02*
X232264342Y-94904761D01*
X232264342Y-94904761D02*
X232216723Y-94999999D01*
X232216723Y-94999999D02*
X232216723Y-95095237D01*
X232454819Y-95047618D02*
X232407200Y-95142856D01*
X232407200Y-95142856D02*
X232311961Y-95238094D01*
X232311961Y-95238094D02*
X232121485Y-95285713D01*
X232121485Y-95285713D02*
X231788152Y-95285713D01*
X231788152Y-95285713D02*
X231597676Y-95238094D01*
X231597676Y-95238094D02*
X231502438Y-95142856D01*
X231502438Y-95142856D02*
X231454819Y-95047618D01*
X231454819Y-95047618D02*
X231454819Y-94857142D01*
X231454819Y-94857142D02*
X231502438Y-94761904D01*
X231502438Y-94761904D02*
X231597676Y-94666666D01*
X231597676Y-94666666D02*
X231788152Y-94619047D01*
X231788152Y-94619047D02*
X232121485Y-94619047D01*
X232121485Y-94619047D02*
X232311961Y-94666666D01*
X232311961Y-94666666D02*
X232407200Y-94761904D01*
X232407200Y-94761904D02*
X232454819Y-94857142D01*
X232454819Y-94857142D02*
X232454819Y-95047618D01*
X232454819Y-93666666D02*
X232454819Y-94238094D01*
X232454819Y-93952380D02*
X231454819Y-93952380D01*
X231454819Y-93952380D02*
X231597676Y-94047618D01*
X231597676Y-94047618D02*
X231692914Y-94142856D01*
X231692914Y-94142856D02*
X231740533Y-94238094D01*
X232454819Y-92714285D02*
X232454819Y-93285713D01*
X232454819Y-92999999D02*
X231454819Y-92999999D01*
X231454819Y-92999999D02*
X231597676Y-93095237D01*
X231597676Y-93095237D02*
X231692914Y-93190475D01*
X231692914Y-93190475D02*
X231740533Y-93285713D01*
X185550057Y-102571428D02*
X185502438Y-102666666D01*
X185502438Y-102666666D02*
X185407200Y-102761904D01*
X185407200Y-102761904D02*
X185264342Y-102904761D01*
X185264342Y-102904761D02*
X185216723Y-102999999D01*
X185216723Y-102999999D02*
X185216723Y-103095237D01*
X185454819Y-103047618D02*
X185407200Y-103142856D01*
X185407200Y-103142856D02*
X185311961Y-103238094D01*
X185311961Y-103238094D02*
X185121485Y-103285713D01*
X185121485Y-103285713D02*
X184788152Y-103285713D01*
X184788152Y-103285713D02*
X184597676Y-103238094D01*
X184597676Y-103238094D02*
X184502438Y-103142856D01*
X184502438Y-103142856D02*
X184454819Y-103047618D01*
X184454819Y-103047618D02*
X184454819Y-102857142D01*
X184454819Y-102857142D02*
X184502438Y-102761904D01*
X184502438Y-102761904D02*
X184597676Y-102666666D01*
X184597676Y-102666666D02*
X184788152Y-102619047D01*
X184788152Y-102619047D02*
X185121485Y-102619047D01*
X185121485Y-102619047D02*
X185311961Y-102666666D01*
X185311961Y-102666666D02*
X185407200Y-102761904D01*
X185407200Y-102761904D02*
X185454819Y-102857142D01*
X185454819Y-102857142D02*
X185454819Y-103047618D01*
X185454819Y-101666666D02*
X185454819Y-102238094D01*
X185454819Y-101952380D02*
X184454819Y-101952380D01*
X184454819Y-101952380D02*
X184597676Y-102047618D01*
X184597676Y-102047618D02*
X184692914Y-102142856D01*
X184692914Y-102142856D02*
X184740533Y-102238094D01*
X184550057Y-101285713D02*
X184502438Y-101238094D01*
X184502438Y-101238094D02*
X184454819Y-101142856D01*
X184454819Y-101142856D02*
X184454819Y-100904761D01*
X184454819Y-100904761D02*
X184502438Y-100809523D01*
X184502438Y-100809523D02*
X184550057Y-100761904D01*
X184550057Y-100761904D02*
X184645295Y-100714285D01*
X184645295Y-100714285D02*
X184740533Y-100714285D01*
X184740533Y-100714285D02*
X184883390Y-100761904D01*
X184883390Y-100761904D02*
X185454819Y-101333332D01*
X185454819Y-101333332D02*
X185454819Y-100714285D01*
X207666667Y-57407200D02*
X207809524Y-57454819D01*
X207809524Y-57454819D02*
X208047619Y-57454819D01*
X208047619Y-57454819D02*
X208142857Y-57407200D01*
X208142857Y-57407200D02*
X208190476Y-57359580D01*
X208190476Y-57359580D02*
X208238095Y-57264342D01*
X208238095Y-57264342D02*
X208238095Y-57169104D01*
X208238095Y-57169104D02*
X208190476Y-57073866D01*
X208190476Y-57073866D02*
X208142857Y-57026247D01*
X208142857Y-57026247D02*
X208047619Y-56978628D01*
X208047619Y-56978628D02*
X207857143Y-56931009D01*
X207857143Y-56931009D02*
X207761905Y-56883390D01*
X207761905Y-56883390D02*
X207714286Y-56835771D01*
X207714286Y-56835771D02*
X207666667Y-56740533D01*
X207666667Y-56740533D02*
X207666667Y-56645295D01*
X207666667Y-56645295D02*
X207714286Y-56550057D01*
X207714286Y-56550057D02*
X207761905Y-56502438D01*
X207761905Y-56502438D02*
X207857143Y-56454819D01*
X207857143Y-56454819D02*
X208095238Y-56454819D01*
X208095238Y-56454819D02*
X208238095Y-56502438D01*
X208571429Y-56454819D02*
X208809524Y-57454819D01*
X208809524Y-57454819D02*
X209000000Y-56740533D01*
X209000000Y-56740533D02*
X209190476Y-57454819D01*
X209190476Y-57454819D02*
X209428572Y-56454819D01*
X209714286Y-56454819D02*
X210333333Y-56454819D01*
X210333333Y-56454819D02*
X210000000Y-56835771D01*
X210000000Y-56835771D02*
X210142857Y-56835771D01*
X210142857Y-56835771D02*
X210238095Y-56883390D01*
X210238095Y-56883390D02*
X210285714Y-56931009D01*
X210285714Y-56931009D02*
X210333333Y-57026247D01*
X210333333Y-57026247D02*
X210333333Y-57264342D01*
X210333333Y-57264342D02*
X210285714Y-57359580D01*
X210285714Y-57359580D02*
X210238095Y-57407200D01*
X210238095Y-57407200D02*
X210142857Y-57454819D01*
X210142857Y-57454819D02*
X209857143Y-57454819D01*
X209857143Y-57454819D02*
X209761905Y-57407200D01*
X209761905Y-57407200D02*
X209714286Y-57359580D01*
X159666667Y-57407200D02*
X159809524Y-57454819D01*
X159809524Y-57454819D02*
X160047619Y-57454819D01*
X160047619Y-57454819D02*
X160142857Y-57407200D01*
X160142857Y-57407200D02*
X160190476Y-57359580D01*
X160190476Y-57359580D02*
X160238095Y-57264342D01*
X160238095Y-57264342D02*
X160238095Y-57169104D01*
X160238095Y-57169104D02*
X160190476Y-57073866D01*
X160190476Y-57073866D02*
X160142857Y-57026247D01*
X160142857Y-57026247D02*
X160047619Y-56978628D01*
X160047619Y-56978628D02*
X159857143Y-56931009D01*
X159857143Y-56931009D02*
X159761905Y-56883390D01*
X159761905Y-56883390D02*
X159714286Y-56835771D01*
X159714286Y-56835771D02*
X159666667Y-56740533D01*
X159666667Y-56740533D02*
X159666667Y-56645295D01*
X159666667Y-56645295D02*
X159714286Y-56550057D01*
X159714286Y-56550057D02*
X159761905Y-56502438D01*
X159761905Y-56502438D02*
X159857143Y-56454819D01*
X159857143Y-56454819D02*
X160095238Y-56454819D01*
X160095238Y-56454819D02*
X160238095Y-56502438D01*
X160571429Y-56454819D02*
X160809524Y-57454819D01*
X160809524Y-57454819D02*
X161000000Y-56740533D01*
X161000000Y-56740533D02*
X161190476Y-57454819D01*
X161190476Y-57454819D02*
X161428572Y-56454819D01*
X162333333Y-57454819D02*
X161761905Y-57454819D01*
X162047619Y-57454819D02*
X162047619Y-56454819D01*
X162047619Y-56454819D02*
X161952381Y-56597676D01*
X161952381Y-56597676D02*
X161857143Y-56692914D01*
X161857143Y-56692914D02*
X161761905Y-56740533D01*
X185550057Y-65095238D02*
X185502438Y-65190476D01*
X185502438Y-65190476D02*
X185407200Y-65285714D01*
X185407200Y-65285714D02*
X185264342Y-65428571D01*
X185264342Y-65428571D02*
X185216723Y-65523809D01*
X185216723Y-65523809D02*
X185216723Y-65619047D01*
X185454819Y-65571428D02*
X185407200Y-65666666D01*
X185407200Y-65666666D02*
X185311961Y-65761904D01*
X185311961Y-65761904D02*
X185121485Y-65809523D01*
X185121485Y-65809523D02*
X184788152Y-65809523D01*
X184788152Y-65809523D02*
X184597676Y-65761904D01*
X184597676Y-65761904D02*
X184502438Y-65666666D01*
X184502438Y-65666666D02*
X184454819Y-65571428D01*
X184454819Y-65571428D02*
X184454819Y-65380952D01*
X184454819Y-65380952D02*
X184502438Y-65285714D01*
X184502438Y-65285714D02*
X184597676Y-65190476D01*
X184597676Y-65190476D02*
X184788152Y-65142857D01*
X184788152Y-65142857D02*
X185121485Y-65142857D01*
X185121485Y-65142857D02*
X185311961Y-65190476D01*
X185311961Y-65190476D02*
X185407200Y-65285714D01*
X185407200Y-65285714D02*
X185454819Y-65380952D01*
X185454819Y-65380952D02*
X185454819Y-65571428D01*
X184550057Y-64761904D02*
X184502438Y-64714285D01*
X184502438Y-64714285D02*
X184454819Y-64619047D01*
X184454819Y-64619047D02*
X184454819Y-64380952D01*
X184454819Y-64380952D02*
X184502438Y-64285714D01*
X184502438Y-64285714D02*
X184550057Y-64238095D01*
X184550057Y-64238095D02*
X184645295Y-64190476D01*
X184645295Y-64190476D02*
X184740533Y-64190476D01*
X184740533Y-64190476D02*
X184883390Y-64238095D01*
X184883390Y-64238095D02*
X185454819Y-64809523D01*
X185454819Y-64809523D02*
X185454819Y-64190476D01*
X173833333Y-57454819D02*
X173500000Y-56978628D01*
X173261905Y-57454819D02*
X173261905Y-56454819D01*
X173261905Y-56454819D02*
X173642857Y-56454819D01*
X173642857Y-56454819D02*
X173738095Y-56502438D01*
X173738095Y-56502438D02*
X173785714Y-56550057D01*
X173785714Y-56550057D02*
X173833333Y-56645295D01*
X173833333Y-56645295D02*
X173833333Y-56788152D01*
X173833333Y-56788152D02*
X173785714Y-56883390D01*
X173785714Y-56883390D02*
X173738095Y-56931009D01*
X173738095Y-56931009D02*
X173642857Y-56978628D01*
X173642857Y-56978628D02*
X173261905Y-56978628D01*
X174785714Y-57454819D02*
X174214286Y-57454819D01*
X174500000Y-57454819D02*
X174500000Y-56454819D01*
X174500000Y-56454819D02*
X174404762Y-56597676D01*
X174404762Y-56597676D02*
X174309524Y-56692914D01*
X174309524Y-56692914D02*
X174214286Y-56740533D01*
X220357142Y-102454819D02*
X220023809Y-101978628D01*
X219785714Y-102454819D02*
X219785714Y-101454819D01*
X219785714Y-101454819D02*
X220166666Y-101454819D01*
X220166666Y-101454819D02*
X220261904Y-101502438D01*
X220261904Y-101502438D02*
X220309523Y-101550057D01*
X220309523Y-101550057D02*
X220357142Y-101645295D01*
X220357142Y-101645295D02*
X220357142Y-101788152D01*
X220357142Y-101788152D02*
X220309523Y-101883390D01*
X220309523Y-101883390D02*
X220261904Y-101931009D01*
X220261904Y-101931009D02*
X220166666Y-101978628D01*
X220166666Y-101978628D02*
X219785714Y-101978628D01*
X220738095Y-101550057D02*
X220785714Y-101502438D01*
X220785714Y-101502438D02*
X220880952Y-101454819D01*
X220880952Y-101454819D02*
X221119047Y-101454819D01*
X221119047Y-101454819D02*
X221214285Y-101502438D01*
X221214285Y-101502438D02*
X221261904Y-101550057D01*
X221261904Y-101550057D02*
X221309523Y-101645295D01*
X221309523Y-101645295D02*
X221309523Y-101740533D01*
X221309523Y-101740533D02*
X221261904Y-101883390D01*
X221261904Y-101883390D02*
X220690476Y-102454819D01*
X220690476Y-102454819D02*
X221309523Y-102454819D01*
X222261904Y-102454819D02*
X221690476Y-102454819D01*
X221976190Y-102454819D02*
X221976190Y-101454819D01*
X221976190Y-101454819D02*
X221880952Y-101597676D01*
X221880952Y-101597676D02*
X221785714Y-101692914D01*
X221785714Y-101692914D02*
X221690476Y-101740533D01*
X247454819Y-99452857D02*
X246978628Y-99786190D01*
X247454819Y-100024285D02*
X246454819Y-100024285D01*
X246454819Y-100024285D02*
X246454819Y-99643333D01*
X246454819Y-99643333D02*
X246502438Y-99548095D01*
X246502438Y-99548095D02*
X246550057Y-99500476D01*
X246550057Y-99500476D02*
X246645295Y-99452857D01*
X246645295Y-99452857D02*
X246788152Y-99452857D01*
X246788152Y-99452857D02*
X246883390Y-99500476D01*
X246883390Y-99500476D02*
X246931009Y-99548095D01*
X246931009Y-99548095D02*
X246978628Y-99643333D01*
X246978628Y-99643333D02*
X246978628Y-100024285D01*
X247454819Y-98500476D02*
X247454819Y-99071904D01*
X247454819Y-98786190D02*
X246454819Y-98786190D01*
X246454819Y-98786190D02*
X246597676Y-98881428D01*
X246597676Y-98881428D02*
X246692914Y-98976666D01*
X246692914Y-98976666D02*
X246740533Y-99071904D01*
X247454819Y-98024285D02*
X247454819Y-97833809D01*
X247454819Y-97833809D02*
X247407200Y-97738571D01*
X247407200Y-97738571D02*
X247359580Y-97690952D01*
X247359580Y-97690952D02*
X247216723Y-97595714D01*
X247216723Y-97595714D02*
X247026247Y-97548095D01*
X247026247Y-97548095D02*
X246645295Y-97548095D01*
X246645295Y-97548095D02*
X246550057Y-97595714D01*
X246550057Y-97595714D02*
X246502438Y-97643333D01*
X246502438Y-97643333D02*
X246454819Y-97738571D01*
X246454819Y-97738571D02*
X246454819Y-97929047D01*
X246454819Y-97929047D02*
X246502438Y-98024285D01*
X246502438Y-98024285D02*
X246550057Y-98071904D01*
X246550057Y-98071904D02*
X246645295Y-98119523D01*
X246645295Y-98119523D02*
X246883390Y-98119523D01*
X246883390Y-98119523D02*
X246978628Y-98071904D01*
X246978628Y-98071904D02*
X247026247Y-98024285D01*
X247026247Y-98024285D02*
X247073866Y-97929047D01*
X247073866Y-97929047D02*
X247073866Y-97738571D01*
X247073866Y-97738571D02*
X247026247Y-97643333D01*
X247026247Y-97643333D02*
X246978628Y-97595714D01*
X246978628Y-97595714D02*
X246883390Y-97548095D01*
D12*
%TO.C,R22*%
X229080000Y-67870000D02*
X222540000Y-67870000D01*
X229080000Y-67540000D02*
X229080000Y-67870000D01*
X229080000Y-65460000D02*
X229080000Y-65130000D01*
X229080000Y-65130000D02*
X222540000Y-65130000D01*
X222540000Y-67870000D02*
X222540000Y-67540000D01*
X222540000Y-65130000D02*
X222540000Y-65460000D01*
%TO.C,R20*%
X197630000Y-105080000D02*
X197630000Y-98540000D01*
X197960000Y-105080000D02*
X197630000Y-105080000D01*
X200040000Y-105080000D02*
X200370000Y-105080000D01*
X200370000Y-105080000D02*
X200370000Y-98540000D01*
X197630000Y-98540000D02*
X197960000Y-98540000D01*
X200370000Y-98540000D02*
X200040000Y-98540000D01*
%TO.C,D5*%
X196230000Y-102000000D02*
G75*
G02*
X191230000Y-102000000I-2500000J0D01*
G01*
X191230000Y-102000000D02*
G75*
G02*
X196230000Y-102000000I2500000J0D01*
G01*
X196290000Y-103544830D02*
G75*
G02*
X190740000Y-102000048I-2560000J1544830D01*
G01*
X190740000Y-101999952D02*
G75*
G02*
X196290000Y-100455170I2990000J-48D01*
G01*
X196290000Y-103545000D02*
X196290000Y-100455000D01*
%TO.C,Q4*%
X233842156Y-63811453D02*
G75*
G02*
X229550000Y-62820000I-1842156J1811453D01*
G01*
X229550000Y-61220000D02*
G75*
G02*
X233827684Y-60191555I2450000J-780000D01*
G01*
X233850000Y-63800000D02*
X233850000Y-60200000D01*
%TO.C,Q5*%
X244842156Y-70541453D02*
G75*
G02*
X240550000Y-69550000I-1842156J1811453D01*
G01*
X240550000Y-67950000D02*
G75*
G02*
X244827684Y-66921555I2450000J-780000D01*
G01*
X244850000Y-70530000D02*
X244850000Y-66930000D01*
%TO.C,Q9*%
X230842156Y-76811453D02*
G75*
G02*
X226550000Y-75820000I-1842156J1811453D01*
G01*
X226550000Y-74220000D02*
G75*
G02*
X230827684Y-73191555I2450000J-780000D01*
G01*
X230850000Y-76800000D02*
X230850000Y-73200000D01*
%TO.C,Q8*%
X244842156Y-80811453D02*
G75*
G02*
X240550000Y-79820000I-1842156J1811453D01*
G01*
X240550000Y-78220000D02*
G75*
G02*
X244827684Y-77191555I2450000J-780000D01*
G01*
X244850000Y-80800000D02*
X244850000Y-77200000D01*
%TO.C,R4*%
X243270000Y-55370000D02*
X243270000Y-55040000D01*
X243270000Y-52630000D02*
X243270000Y-52960000D01*
X236730000Y-55370000D02*
X243270000Y-55370000D01*
X236730000Y-55040000D02*
X236730000Y-55370000D01*
X236730000Y-52960000D02*
X236730000Y-52630000D01*
X236730000Y-52630000D02*
X243270000Y-52630000D01*
%TO.C,R5*%
X227270000Y-57370000D02*
X227270000Y-57040000D01*
X227270000Y-54630000D02*
X227270000Y-54960000D01*
X220730000Y-57370000D02*
X227270000Y-57370000D01*
X220730000Y-57040000D02*
X220730000Y-57370000D01*
X220730000Y-54960000D02*
X220730000Y-54630000D01*
X220730000Y-54630000D02*
X227270000Y-54630000D01*
%TO.C,R7*%
X227270000Y-63370000D02*
X227270000Y-63040000D01*
X227270000Y-60630000D02*
X227270000Y-60960000D01*
X220730000Y-63370000D02*
X227270000Y-63370000D01*
X220730000Y-63040000D02*
X220730000Y-63370000D01*
X220730000Y-60960000D02*
X220730000Y-60630000D01*
X220730000Y-60630000D02*
X227270000Y-60630000D01*
%TO.C,R8*%
X177270000Y-80370000D02*
X177270000Y-80040000D01*
X177270000Y-77630000D02*
X177270000Y-77960000D01*
X170730000Y-80370000D02*
X177270000Y-80370000D01*
X170730000Y-80040000D02*
X170730000Y-80370000D01*
X170730000Y-77960000D02*
X170730000Y-77630000D01*
X170730000Y-77630000D02*
X177270000Y-77630000D01*
%TO.C,R9*%
X197270000Y-79370000D02*
X197270000Y-79040000D01*
X197270000Y-76630000D02*
X197270000Y-76960000D01*
X190730000Y-79370000D02*
X197270000Y-79370000D01*
X190730000Y-79040000D02*
X190730000Y-79370000D01*
X190730000Y-76960000D02*
X190730000Y-76630000D01*
X190730000Y-76630000D02*
X197270000Y-76630000D01*
%TO.C,R11*%
X177270000Y-88370000D02*
X177270000Y-88040000D01*
X177270000Y-85630000D02*
X177270000Y-85960000D01*
X170730000Y-88370000D02*
X177270000Y-88370000D01*
X170730000Y-88040000D02*
X170730000Y-88370000D01*
X170730000Y-85960000D02*
X170730000Y-85630000D01*
X170730000Y-85630000D02*
X177270000Y-85630000D01*
%TO.C,R13*%
X223270000Y-76370000D02*
X223270000Y-76040000D01*
X223270000Y-73630000D02*
X223270000Y-73960000D01*
X216730000Y-76370000D02*
X223270000Y-76370000D01*
X216730000Y-76040000D02*
X216730000Y-76370000D01*
X216730000Y-73960000D02*
X216730000Y-73630000D01*
X216730000Y-73630000D02*
X223270000Y-73630000D01*
%TO.C,R12*%
X237370000Y-78270000D02*
X237040000Y-78270000D01*
X237370000Y-71730000D02*
X237370000Y-78270000D01*
X237040000Y-71730000D02*
X237370000Y-71730000D01*
X234960000Y-71730000D02*
X234630000Y-71730000D01*
X234630000Y-78270000D02*
X234960000Y-78270000D01*
X234630000Y-71730000D02*
X234630000Y-78270000D01*
%TO.C,R14*%
X223270000Y-82370000D02*
X223270000Y-82040000D01*
X223270000Y-79630000D02*
X223270000Y-79960000D01*
X216730000Y-82370000D02*
X223270000Y-82370000D01*
X216730000Y-82040000D02*
X216730000Y-82370000D01*
X216730000Y-79960000D02*
X216730000Y-79630000D01*
X216730000Y-79630000D02*
X223270000Y-79630000D01*
%TO.C,R10*%
X224270000Y-72370000D02*
X217730000Y-72370000D01*
X224270000Y-72040000D02*
X224270000Y-72370000D01*
X224270000Y-69960000D02*
X224270000Y-69630000D01*
X224270000Y-69630000D02*
X217730000Y-69630000D01*
X217730000Y-72370000D02*
X217730000Y-72040000D01*
X217730000Y-69630000D02*
X217730000Y-69960000D01*
%TO.C,R15*%
X244460000Y-92370000D02*
X237920000Y-92370000D01*
X244460000Y-92040000D02*
X244460000Y-92370000D01*
X244460000Y-89960000D02*
X244460000Y-89630000D01*
X244460000Y-89630000D02*
X237920000Y-89630000D01*
X237920000Y-92370000D02*
X237920000Y-92040000D01*
X237920000Y-89630000D02*
X237920000Y-89960000D01*
%TO.C,R16*%
X185270000Y-98370000D02*
X178730000Y-98370000D01*
X185270000Y-98040000D02*
X185270000Y-98370000D01*
X185270000Y-95960000D02*
X185270000Y-95630000D01*
X185270000Y-95630000D02*
X178730000Y-95630000D01*
X178730000Y-98370000D02*
X178730000Y-98040000D01*
X178730000Y-95630000D02*
X178730000Y-95960000D01*
%TO.C,R17*%
X224270000Y-95370000D02*
X224270000Y-95040000D01*
X224270000Y-92630000D02*
X224270000Y-92960000D01*
X217730000Y-95370000D02*
X224270000Y-95370000D01*
X217730000Y-95040000D02*
X217730000Y-95370000D01*
X217730000Y-92960000D02*
X217730000Y-92630000D01*
X217730000Y-92630000D02*
X224270000Y-92630000D01*
%TO.C,R18*%
X177270000Y-103370000D02*
X177270000Y-103040000D01*
X177270000Y-100630000D02*
X177270000Y-100960000D01*
X170730000Y-103370000D02*
X177270000Y-103370000D01*
X170730000Y-103040000D02*
X170730000Y-103370000D01*
X170730000Y-100960000D02*
X170730000Y-100630000D01*
X170730000Y-100630000D02*
X177270000Y-100630000D01*
%TO.C,SW4*%
X212500000Y-65750000D02*
X212500000Y-64250000D01*
X211250000Y-61750000D02*
X206750000Y-61750000D01*
X206750000Y-68250000D02*
X211250000Y-68250000D01*
X205500000Y-64250000D02*
X205500000Y-65750000D01*
%TO.C,SW5*%
X164500000Y-79750000D02*
X164500000Y-78250000D01*
X163250000Y-75750000D02*
X158750000Y-75750000D01*
X158750000Y-82250000D02*
X163250000Y-82250000D01*
X157500000Y-78250000D02*
X157500000Y-79750000D01*
%TO.C,SW6*%
X164500000Y-87750000D02*
X164500000Y-86250000D01*
X163250000Y-83750000D02*
X158750000Y-83750000D01*
X158750000Y-90250000D02*
X163250000Y-90250000D01*
X157500000Y-86250000D02*
X157500000Y-87750000D01*
%TO.C,SW7*%
X212500000Y-94750000D02*
X212500000Y-93250000D01*
X211250000Y-90750000D02*
X206750000Y-90750000D01*
X206750000Y-97250000D02*
X211250000Y-97250000D01*
X205500000Y-93250000D02*
X205500000Y-94750000D01*
%TO.C,SW8*%
X164500000Y-102750000D02*
X164500000Y-101250000D01*
X163250000Y-98750000D02*
X158750000Y-98750000D01*
X158750000Y-105250000D02*
X163250000Y-105250000D01*
X157500000Y-101250000D02*
X157500000Y-102750000D01*
%TO.C,SW9*%
X212500000Y-102750000D02*
X212500000Y-101250000D01*
X211250000Y-98750000D02*
X206750000Y-98750000D01*
X206750000Y-105250000D02*
X211250000Y-105250000D01*
X205500000Y-101250000D02*
X205500000Y-102750000D01*
%TO.C,D3*%
X196290000Y-84545000D02*
X196290000Y-81455000D01*
X190740000Y-82999952D02*
G75*
G02*
X196290000Y-81455170I2990000J-48D01*
G01*
X196290000Y-84544830D02*
G75*
G02*
X190740000Y-83000048I-2560000J1544830D01*
G01*
X196230000Y-83000000D02*
G75*
G02*
X191230000Y-83000000I-2500000J0D01*
G01*
X191230000Y-83000000D02*
G75*
G02*
X196230000Y-83000000I2500000J0D01*
G01*
%TO.C,Q3*%
X233850000Y-57800000D02*
X233850000Y-54200000D01*
X229550000Y-55220000D02*
G75*
G02*
X233827684Y-54191555I2450000J-780000D01*
G01*
X233842156Y-57811453D02*
G75*
G02*
X229550000Y-56820000I-1842156J1811453D01*
G01*
%TO.C,D2*%
X238710000Y-58455000D02*
X238710000Y-61545000D01*
X244260000Y-60000048D02*
G75*
G02*
X238710000Y-61544830I-2990000J48D01*
G01*
X238710000Y-58455170D02*
G75*
G02*
X244260000Y-59999952I2560000J-1544830D01*
G01*
X243770000Y-60000000D02*
G75*
G02*
X238770000Y-60000000I-2500000J0D01*
G01*
X238770000Y-60000000D02*
G75*
G02*
X243770000Y-60000000I2500000J0D01*
G01*
%TO.C,Q1*%
X183850000Y-58800000D02*
X183850000Y-55200000D01*
X179550000Y-56220000D02*
G75*
G02*
X183827684Y-55191555I2450000J-780000D01*
G01*
X183842156Y-58811453D02*
G75*
G02*
X179550000Y-57820000I-1842156J1811453D01*
G01*
%TO.C,D1*%
X196290000Y-62545000D02*
X196290000Y-59455000D01*
X190740000Y-60999952D02*
G75*
G02*
X196290000Y-59455170I2990000J-48D01*
G01*
X196290000Y-62544830D02*
G75*
G02*
X190740000Y-61000048I-2560000J1544830D01*
G01*
X196230000Y-61000000D02*
G75*
G02*
X191230000Y-61000000I-2500000J0D01*
G01*
X191230000Y-61000000D02*
G75*
G02*
X196230000Y-61000000I2500000J0D01*
G01*
%TO.C,Q6*%
X183850000Y-80800000D02*
X183850000Y-77200000D01*
X179550000Y-78220000D02*
G75*
G02*
X183827684Y-77191555I2450000J-780000D01*
G01*
X183842156Y-80811453D02*
G75*
G02*
X179550000Y-79820000I-1842156J1811453D01*
G01*
%TO.C,R2*%
X190730000Y-54630000D02*
X197270000Y-54630000D01*
X190730000Y-54960000D02*
X190730000Y-54630000D01*
X190730000Y-57040000D02*
X190730000Y-57370000D01*
X190730000Y-57370000D02*
X197270000Y-57370000D01*
X197270000Y-54630000D02*
X197270000Y-54960000D01*
X197270000Y-57370000D02*
X197270000Y-57040000D01*
%TO.C,D4*%
X244290000Y-98545000D02*
X244290000Y-95455000D01*
X238740000Y-96999952D02*
G75*
G02*
X244290000Y-95455170I2990000J-48D01*
G01*
X244290000Y-98544830D02*
G75*
G02*
X238740000Y-97000048I-2560000J1544830D01*
G01*
X244230000Y-97000000D02*
G75*
G02*
X239230000Y-97000000I-2500000J0D01*
G01*
X239230000Y-97000000D02*
G75*
G02*
X244230000Y-97000000I2500000J0D01*
G01*
%TO.C,Q13*%
X230850000Y-103800000D02*
X230850000Y-100200000D01*
X226550000Y-101220000D02*
G75*
G02*
X230827684Y-100191555I2450000J-780000D01*
G01*
X230842156Y-103811453D02*
G75*
G02*
X226550000Y-102820000I-1842156J1811453D01*
G01*
%TO.C,SW2*%
X157500000Y-64250000D02*
X157500000Y-65750000D01*
X158750000Y-68250000D02*
X163250000Y-68250000D01*
X163250000Y-61750000D02*
X158750000Y-61750000D01*
X164500000Y-65750000D02*
X164500000Y-64250000D01*
%TO.C,R6*%
X245630000Y-56730000D02*
X245630000Y-63270000D01*
X245630000Y-63270000D02*
X245960000Y-63270000D01*
X245960000Y-56730000D02*
X245630000Y-56730000D01*
X248040000Y-56730000D02*
X248370000Y-56730000D01*
X248370000Y-56730000D02*
X248370000Y-63270000D01*
X248370000Y-63270000D02*
X248040000Y-63270000D01*
%TO.C,Q10*%
X230850000Y-82800000D02*
X230850000Y-79200000D01*
X226550000Y-80220000D02*
G75*
G02*
X230827684Y-79191555I2450000J-780000D01*
G01*
X230842156Y-82811453D02*
G75*
G02*
X226550000Y-81820000I-1842156J1811453D01*
G01*
%TO.C,Q7*%
X183850000Y-88800000D02*
X183850000Y-85200000D01*
X179550000Y-86220000D02*
G75*
G02*
X183827684Y-85191555I2450000J-780000D01*
G01*
X183842156Y-88811453D02*
G75*
G02*
X179550000Y-87820000I-1842156J1811453D01*
G01*
%TO.C,R3*%
X170730000Y-63630000D02*
X177270000Y-63630000D01*
X170730000Y-63960000D02*
X170730000Y-63630000D01*
X170730000Y-66040000D02*
X170730000Y-66370000D01*
X170730000Y-66370000D02*
X177270000Y-66370000D01*
X177270000Y-63630000D02*
X177270000Y-63960000D01*
X177270000Y-66370000D02*
X177270000Y-66040000D01*
%TO.C,Q11*%
X230850000Y-95800000D02*
X230850000Y-92200000D01*
X226550000Y-93220000D02*
G75*
G02*
X230827684Y-92191555I2450000J-780000D01*
G01*
X230842156Y-95811453D02*
G75*
G02*
X226550000Y-94820000I-1842156J1811453D01*
G01*
%TO.C,Q12*%
X183850000Y-103800000D02*
X183850000Y-100200000D01*
X179550000Y-101220000D02*
G75*
G02*
X183827684Y-100191555I2450000J-780000D01*
G01*
X183842156Y-103811453D02*
G75*
G02*
X179550000Y-102820000I-1842156J1811453D01*
G01*
%TO.C,SW3*%
X205500000Y-56250000D02*
X205500000Y-57750000D01*
X206750000Y-60250000D02*
X211250000Y-60250000D01*
X211250000Y-53750000D02*
X206750000Y-53750000D01*
X212500000Y-57750000D02*
X212500000Y-56250000D01*
%TO.C,SW1*%
X157500000Y-56250000D02*
X157500000Y-57750000D01*
X158750000Y-60250000D02*
X163250000Y-60250000D01*
X163250000Y-53750000D02*
X158750000Y-53750000D01*
X164500000Y-57750000D02*
X164500000Y-56250000D01*
%TO.C,Q2*%
X183850000Y-66800000D02*
X183850000Y-63200000D01*
X179550000Y-64220000D02*
G75*
G02*
X183827684Y-63191555I2450000J-780000D01*
G01*
X183842156Y-66811453D02*
G75*
G02*
X179550000Y-65820000I-1842156J1811453D01*
G01*
%TO.C,R1*%
X170730000Y-55630000D02*
X177270000Y-55630000D01*
X170730000Y-55960000D02*
X170730000Y-55630000D01*
X170730000Y-58040000D02*
X170730000Y-58370000D01*
X170730000Y-58370000D02*
X177270000Y-58370000D01*
X177270000Y-55630000D02*
X177270000Y-55960000D01*
X177270000Y-58370000D02*
X177270000Y-58040000D01*
%TO.C,R21*%
X217730000Y-100630000D02*
X224270000Y-100630000D01*
X217730000Y-100960000D02*
X217730000Y-100630000D01*
X217730000Y-103040000D02*
X217730000Y-103370000D01*
X217730000Y-103370000D02*
X224270000Y-103370000D01*
X224270000Y-100630000D02*
X224270000Y-100960000D01*
X224270000Y-103370000D02*
X224270000Y-103040000D01*
%TO.C,R19*%
X245630000Y-95540000D02*
X245960000Y-95540000D01*
X245630000Y-102080000D02*
X245630000Y-95540000D01*
X245960000Y-102080000D02*
X245630000Y-102080000D01*
X248040000Y-102080000D02*
X248370000Y-102080000D01*
X248370000Y-95540000D02*
X248040000Y-95540000D01*
X248370000Y-102080000D02*
X248370000Y-95540000D01*
%TD*%
D13*
X229620000Y-66500000D03*
X222000000Y-66500000D03*
X199000000Y-105620000D03*
X199000000Y-98000000D03*
X192460000Y-102000000D03*
X195000000Y-102000000D03*
X232000000Y-60730000D03*
X230730000Y-62000000D03*
X232000000Y-63270000D03*
X243000000Y-67460000D03*
X241730000Y-68730000D03*
X243000000Y-70000000D03*
X229000000Y-73730000D03*
X227730000Y-75000000D03*
X229000000Y-76270000D03*
X243000000Y-77730000D03*
X241730000Y-79000000D03*
X243000000Y-80270000D03*
X243810000Y-54000000D03*
X236190000Y-54000000D03*
X227810000Y-56000000D03*
X220190000Y-56000000D03*
X227810000Y-62000000D03*
X220190000Y-62000000D03*
X177810000Y-79000000D03*
X170190000Y-79000000D03*
X197810000Y-78000000D03*
X190190000Y-78000000D03*
X177810000Y-87000000D03*
X170190000Y-87000000D03*
X223810000Y-75000000D03*
X216190000Y-75000000D03*
X236000000Y-78810000D03*
X236000000Y-71190000D03*
X223810000Y-81000000D03*
X216190000Y-81000000D03*
X217190000Y-71000000D03*
X224810000Y-71000000D03*
X237380000Y-91000000D03*
X245000000Y-91000000D03*
X178190000Y-97000000D03*
X185810000Y-97000000D03*
X224810000Y-94000000D03*
X217190000Y-94000000D03*
X177810000Y-102000000D03*
X170190000Y-102000000D03*
X205750000Y-62750000D03*
X212250000Y-62750000D03*
X205750000Y-67250000D03*
X212250000Y-67250000D03*
X157750000Y-76750000D03*
X164250000Y-76750000D03*
X157750000Y-81250000D03*
X164250000Y-81250000D03*
X157750000Y-84750000D03*
X164250000Y-84750000D03*
X157750000Y-89250000D03*
X164250000Y-89250000D03*
X205750000Y-91750000D03*
X212250000Y-91750000D03*
X205750000Y-96250000D03*
X212250000Y-96250000D03*
X157750000Y-99750000D03*
X164250000Y-99750000D03*
X157750000Y-104250000D03*
X164250000Y-104250000D03*
X205750000Y-99750000D03*
X212250000Y-99750000D03*
X205750000Y-104250000D03*
X212250000Y-104250000D03*
X195000000Y-83000000D03*
X192460000Y-83000000D03*
X232000000Y-57270000D03*
X230730000Y-56000000D03*
X232000000Y-54730000D03*
X240000000Y-60000000D03*
X242540000Y-60000000D03*
X182000000Y-58270000D03*
X180730000Y-57000000D03*
X182000000Y-55730000D03*
X195000000Y-61000000D03*
X192460000Y-61000000D03*
X182000000Y-80270000D03*
X180730000Y-79000000D03*
X182000000Y-77730000D03*
X190190000Y-56000000D03*
X197810000Y-56000000D03*
X243000000Y-97000000D03*
X240460000Y-97000000D03*
X229000000Y-103270000D03*
X227730000Y-102000000D03*
X229000000Y-100730000D03*
X164250000Y-67250000D03*
X157750000Y-67250000D03*
X164250000Y-62750000D03*
X157750000Y-62750000D03*
X247000000Y-56190000D03*
X247000000Y-63810000D03*
X229000000Y-82270000D03*
X227730000Y-81000000D03*
X229000000Y-79730000D03*
X182000000Y-88270000D03*
X180730000Y-87000000D03*
X182000000Y-85730000D03*
X170190000Y-65000000D03*
X177810000Y-65000000D03*
X229000000Y-95270000D03*
X227730000Y-94000000D03*
X229000000Y-92730000D03*
X182000000Y-103270000D03*
X180730000Y-102000000D03*
X182000000Y-100730000D03*
X212250000Y-59250000D03*
X205750000Y-59250000D03*
X212250000Y-54750000D03*
X205750000Y-54750000D03*
X164250000Y-59250000D03*
X157750000Y-59250000D03*
X164250000Y-54750000D03*
X157750000Y-54750000D03*
X182000000Y-66270000D03*
X180730000Y-65000000D03*
X182000000Y-63730000D03*
X170190000Y-57000000D03*
X177810000Y-57000000D03*
X217190000Y-102000000D03*
X224810000Y-102000000D03*
X247000000Y-102620000D03*
X247000000Y-95000000D03*
M02*
