%TF.GenerationSoftware,KiCad,Pcbnew,8.99.0-3415-g545c771fd6*%
%TF.CreationDate,2025-05-12T12:54:29+02:00*%
%TF.ProjectId,logic-solder,6c6f6769-632d-4736-9f6c-6465722e6b69,3*%
%TF.SameCoordinates,Original*%
%TF.FileFunction,Profile,NP*%
%FSLAX46Y46*%
G04 Gerber Fmt 4.6, Leading zero omitted, Abs format (unit mm)*
G04 Created by KiCad (PCBNEW 8.99.0-3415-g545c771fd6) date 2025-05-12 12:54:29*
%MOMM*%
%LPD*%
G01*
G04 APERTURE LIST*
%TA.AperFunction,Profile*%
%ADD10C,0.050000*%
%TD*%
%ADD11C,0.350000*%
G04 APERTURE END LIST*
D10*
X153000000Y-108000000D02*
X153000000Y-29000000D01*
X251000000Y-108000000D02*
G75*
G02*
X249000000Y-110000000I-2000000J0D01*
G01*
X249000000Y-110000000D02*
X155000000Y-110000000D01*
X251000000Y-29000000D02*
X251000000Y-108000000D01*
X155000000Y-110000000D02*
G75*
G02*
X153000000Y-108000000I0J2000000D01*
G01*
X155000000Y-27000000D02*
X249000000Y-27000000D01*
X153000000Y-29000000D02*
G75*
G02*
X155000000Y-27000000I2000000J0D01*
G01*
X249000000Y-27000000D02*
G75*
G02*
X251000000Y-29000000I0J-2000000D01*
G01*
D11*
X229620000Y-66500000D03*
X222000000Y-66500000D03*
X199000000Y-105620000D03*
X199000000Y-98000000D03*
X192460000Y-102000000D03*
X195000000Y-102000000D03*
X232000000Y-60730000D03*
X230730000Y-62000000D03*
X232000000Y-63270000D03*
X243000000Y-67460000D03*
X241730000Y-68730000D03*
X243000000Y-70000000D03*
X229000000Y-73730000D03*
X227730000Y-75000000D03*
X229000000Y-76270000D03*
X243000000Y-77730000D03*
X241730000Y-79000000D03*
X243000000Y-80270000D03*
X243810000Y-54000000D03*
X236190000Y-54000000D03*
X227810000Y-56000000D03*
X220190000Y-56000000D03*
X227810000Y-62000000D03*
X220190000Y-62000000D03*
X177810000Y-79000000D03*
X170190000Y-79000000D03*
X197810000Y-78000000D03*
X190190000Y-78000000D03*
X177810000Y-87000000D03*
X170190000Y-87000000D03*
X223810000Y-75000000D03*
X216190000Y-75000000D03*
X236000000Y-78810000D03*
X236000000Y-71190000D03*
X223810000Y-81000000D03*
X216190000Y-81000000D03*
X217190000Y-71000000D03*
X224810000Y-71000000D03*
X237380000Y-91000000D03*
X245000000Y-91000000D03*
X178190000Y-97000000D03*
X185810000Y-97000000D03*
X224810000Y-94000000D03*
X217190000Y-94000000D03*
X177810000Y-102000000D03*
X170190000Y-102000000D03*
X205750000Y-62750000D03*
X212250000Y-62750000D03*
X205750000Y-67250000D03*
X212250000Y-67250000D03*
X157750000Y-76750000D03*
X164250000Y-76750000D03*
X157750000Y-81250000D03*
X164250000Y-81250000D03*
X157750000Y-84750000D03*
X164250000Y-84750000D03*
X157750000Y-89250000D03*
X164250000Y-89250000D03*
X205750000Y-91750000D03*
X212250000Y-91750000D03*
X205750000Y-96250000D03*
X212250000Y-96250000D03*
X157750000Y-99750000D03*
X164250000Y-99750000D03*
X157750000Y-104250000D03*
X164250000Y-104250000D03*
X205750000Y-99750000D03*
X212250000Y-99750000D03*
X205750000Y-104250000D03*
X212250000Y-104250000D03*
X195000000Y-83000000D03*
X192460000Y-83000000D03*
X232000000Y-57270000D03*
X230730000Y-56000000D03*
X232000000Y-54730000D03*
X240000000Y-60000000D03*
X242540000Y-60000000D03*
X182000000Y-58270000D03*
X180730000Y-57000000D03*
X182000000Y-55730000D03*
X195000000Y-61000000D03*
X192460000Y-61000000D03*
X182000000Y-80270000D03*
X180730000Y-79000000D03*
X182000000Y-77730000D03*
X190190000Y-56000000D03*
X197810000Y-56000000D03*
X243000000Y-97000000D03*
X240460000Y-97000000D03*
X229000000Y-103270000D03*
X227730000Y-102000000D03*
X229000000Y-100730000D03*
X164250000Y-67250000D03*
X157750000Y-67250000D03*
X164250000Y-62750000D03*
X157750000Y-62750000D03*
X247000000Y-56190000D03*
X247000000Y-63810000D03*
X229000000Y-82270000D03*
X227730000Y-81000000D03*
X229000000Y-79730000D03*
X182000000Y-88270000D03*
X180730000Y-87000000D03*
X182000000Y-85730000D03*
X170190000Y-65000000D03*
X177810000Y-65000000D03*
X229000000Y-95270000D03*
X227730000Y-94000000D03*
X229000000Y-92730000D03*
X182000000Y-103270000D03*
X180730000Y-102000000D03*
X182000000Y-100730000D03*
X212250000Y-59250000D03*
X205750000Y-59250000D03*
X212250000Y-54750000D03*
X205750000Y-54750000D03*
X164250000Y-59250000D03*
X157750000Y-59250000D03*
X164250000Y-54750000D03*
X157750000Y-54750000D03*
X182000000Y-66270000D03*
X180730000Y-65000000D03*
X182000000Y-63730000D03*
X170190000Y-57000000D03*
X177810000Y-57000000D03*
X217190000Y-102000000D03*
X224810000Y-102000000D03*
X247000000Y-102620000D03*
X247000000Y-95000000D03*
M02*
